<svg width="32" height="32" viewBox="0 0 32 32" fill="none" xmlns="http://www.w3.org/2000/svg">
<path fill-rule="evenodd" clip-rule="evenodd" d="M18.8284 14.9775H22.5189C23.0784 14.9775 23.5181 14.5149 23.5181 13.957C23.5181 13.3855 23.0784 12.9365 22.5189 12.9365H18.8284C18.2688 12.9365 17.8292 13.3855 17.8292 13.957C17.8292 14.5149 18.2688 14.9775 18.8284 14.9775ZM26.9021 7.90331C27.7148 7.90331 28.2477 8.18906 28.7807 8.81497C29.3136 9.44088 29.4068 10.3389 29.2869 11.154L28.0213 20.08C27.7814 21.7958 26.3426 23.0599 24.6505 23.0599H10.1152C8.34325 23.0599 6.87773 21.6734 6.73118 19.8773L5.50546 5.04453L3.4937 4.69075C2.96078 4.5955 2.58774 4.06484 2.681 3.52057C2.77426 2.96405 3.29385 2.59531 3.8401 2.67831L7.01762 3.16679C7.4706 3.24979 7.80367 3.62942 7.84364 4.09205L8.09678 7.13997C8.13675 7.57675 8.48314 7.90331 8.90948 7.90331H26.9021ZM9.90177 25.2105C8.78264 25.2105 7.87668 26.1357 7.87668 27.2787C7.87668 28.4081 8.78264 29.3333 9.90177 29.3333C11.0076 29.3333 11.9135 28.4081 11.9135 27.2787C11.9135 26.1357 11.0076 25.2105 9.90177 25.2105ZM24.8901 25.2105C23.771 25.2105 22.865 26.1357 22.865 27.2787C22.865 28.4081 23.771 29.3333 24.8901 29.3333C25.9959 29.3333 26.9019 28.4081 26.9019 27.2787C26.9019 26.1357 25.9959 25.2105 24.8901 25.2105Z" fill="#50ABA3"/>
</svg>
