<svg width="18" height="20" viewBox="0 0 18 20" fill="none" xmlns="http://www.w3.org/2000/svg">
<path fill-rule="evenodd" clip-rule="evenodd" d="M7.60018 0.295715C8.24223 -0.0985712 9.05138 -0.0985721 9.69342 0.295715L12.9468 2.29365L16.2982 4.24031C16.9216 4.60244 17.3019 5.27209 17.2935 5.99302L17.2468 9.99971L17.2935 14.0064C17.3019 14.7273 16.9216 15.397 16.2982 15.7591L12.9468 17.7058L9.69342 19.7037C9.05138 20.098 8.24223 20.098 7.60018 19.7037L4.3468 17.7058L0.995454 15.7591C0.372017 15.397 -0.00826055 14.7273 0.000136239 14.0064L0.0468028 9.99971L0.000136236 5.99302C-0.00826056 5.27209 0.372016 4.60244 0.995453 4.24031L4.3468 2.29365L7.60018 0.295715ZM8.6468 4.82601C9.19909 4.82601 9.6468 5.28925 9.6468 5.86069V9.99938C9.6468 10.5708 9.19909 11.0341 8.6468 11.0341C8.09452 11.0341 7.6468 10.5708 7.6468 9.99938V5.86069C7.6468 5.28925 8.09452 4.82601 8.6468 4.82601ZM8.6468 15.1727C9.19909 15.1727 9.6468 14.7095 9.6468 14.1381C9.6468 13.5666 9.19909 13.1034 8.6468 13.1034C8.09452 13.1034 7.6468 13.5666 7.6468 14.1381C7.6468 14.7095 8.09452 15.1727 8.6468 15.1727Z" fill="#FFC700"/>
</svg>
