<svg width="26" height="26" viewBox="0 0 26 26" fill="none" xmlns="http://www.w3.org/2000/svg">
<path fill-rule="evenodd" clip-rule="evenodd" d="M13 26C20.1797 26 26 20.1797 26 13C26 5.8203 20.1797 0 13 0C5.8203 0 0 5.8203 0 13C0 20.1797 5.8203 26 13 26ZM9.90039 12.0303H9.41211V10.1016H9.87109C10.3594 10.1016 10.7191 10.1732 10.9502 10.3164C11.1846 10.4596 11.3018 10.7005 11.3018 11.0391C11.3018 11.3809 11.1878 11.6315 10.96 11.791C10.7321 11.9505 10.3789 12.0303 9.90039 12.0303ZM9.41211 16V13.2607H10.2178L11.9219 16H13.6016C13.276 15.5312 12.5762 14.4945 11.502 12.8896C11.9251 12.7041 12.2523 12.4486 12.4834 12.123C12.7145 11.7943 12.8301 11.4199 12.8301 11C12.8301 10.2806 12.5973 9.74512 12.1318 9.39355C11.6663 9.03874 10.9486 8.86133 9.97852 8.86133H7.89844V16H9.41211ZM15.8721 15.3994C16.2367 15.8649 16.7396 16.0977 17.3809 16.0977C17.8073 16.0977 18.1784 15.9854 18.4941 15.7607C18.8099 15.5361 19.0524 15.209 19.2217 14.7793C19.3942 14.3496 19.4805 13.8434 19.4805 13.2607C19.4805 12.3753 19.2982 11.6836 18.9336 11.1855C18.569 10.6875 18.0645 10.4385 17.4199 10.4385C16.7363 10.4385 16.2204 10.7087 15.8721 11.249H15.8037L15.5938 10.541H14.3828V18.4023H15.8721V16.1904C15.8721 16.1188 15.846 15.8551 15.7939 15.3994H15.8721ZM16.1357 11.9717C16.305 11.7438 16.5736 11.6299 16.9414 11.6299C17.293 11.6299 17.5501 11.765 17.7129 12.0352C17.8789 12.3021 17.9619 12.7041 17.9619 13.2412C17.9619 14.3415 17.6283 14.8916 16.9609 14.8916C16.5833 14.8916 16.3066 14.7646 16.1309 14.5107C15.9583 14.2568 15.8721 13.8369 15.8721 13.251V13.0898C15.8786 12.569 15.9665 12.1963 16.1357 11.9717Z" fill="#50ABA3"/>
</svg>
