<svg width="32" height="32" viewBox="0 0 32 32" fill="none" xmlns="http://www.w3.org/2000/svg">
<path d="M22.5308 8.58752H10.7408C8.38539 8.58752 6.39882 10.3411 6.10763 12.6771L4.03694 24.0918C3.68751 26.8743 5.86174 29.3333 8.67011 29.3333H24.6015C27.4099 29.3333 29.5776 26.8743 29.2347 24.0918L27.164 12.6771C26.8728 10.3411 24.8862 8.58752 22.5308 8.58752Z" fill="#50ABA3"/>
<path d="M16.6228 11.0918C14.2998 11.0918 12.4103 9.20227 12.4103 6.87921C12.4103 4.55616 14.2998 2.66666 16.6228 2.66666C18.9459 2.66666 20.8354 4.55616 20.8354 6.87921C20.8354 9.20227 18.9459 11.0918 16.6228 11.0918ZM16.6228 4.60793C15.3739 4.60793 14.3515 5.62386 14.3515 6.87921C14.3515 8.13457 15.3675 9.1505 16.6228 9.1505C17.8782 9.1505 18.8941 8.13457 18.8941 6.87921C18.8941 5.62386 17.8782 4.60793 16.6228 4.60793Z" fill="#50ABA3"/>
<path d="M16.4871 21.8982H14.6688L13.491 19.6205L13.0122 19.9052V21.8982H11.3945V15.945H13.0122V18.5333C13.0963 18.3716 13.2581 18.1192 13.504 17.7698L14.7529 15.945H16.5194L14.6429 18.611L16.4871 21.8982Z" fill="white"/>
<path d="M19.5155 18.4104H22.0844V21.62C21.3856 21.8594 20.622 21.9759 19.7808 21.9759C18.8619 21.9759 18.1566 21.7105 17.6519 21.1799C17.1471 20.6493 16.9077 19.8922 16.9077 18.9086C16.9077 17.9509 17.1795 17.2003 17.7295 16.6632C18.2795 16.1261 19.0431 15.8608 20.0332 15.8608C20.4085 15.8608 20.7644 15.8932 21.0944 15.9644C21.4244 16.0356 21.7156 16.1261 21.9615 16.2362L21.4503 17.498C21.0232 17.2844 20.5508 17.1809 20.0396 17.1809C19.5673 17.1809 19.2049 17.3362 18.9525 17.6403C18.6937 17.9445 18.5707 18.3845 18.5707 18.9475C18.5707 19.504 18.6872 19.931 18.9202 20.2222C19.1531 20.5134 19.4896 20.6623 19.9232 20.6623C20.1626 20.6623 20.3826 20.6364 20.5832 20.5911V19.6593H19.522V18.4104H19.5155Z" fill="white"/>
</svg>
