<svg width="25" height="26" viewBox="0 0 25 26" fill="none" xmlns="http://www.w3.org/2000/svg">
<rect x="24.5" y="25" width="24" height="24" rx="3.5" transform="rotate(-180 24.5 25)" fill="white"/>
<path d="M12.4849 12.1699L19.1255 5.5293C19.5845 5.07031 20.3267 5.07031 20.7808 5.5293L21.8843 6.63281C22.3433 7.0918 22.3433 7.83398 21.8843 8.28809L17.1772 12.9951L21.8843 17.7021C22.3433 18.1611 22.3433 18.9033 21.8843 19.3574L20.7856 20.4707C20.3267 20.9297 19.5845 20.9297 19.1304 20.4707L12.4897 13.8301C12.0259 13.3711 12.0259 12.6289 12.4849 12.1699V12.1699ZM3.10986 13.8301L9.75049 20.4707C10.2095 20.9297 10.9517 20.9297 11.4058 20.4707L12.5093 19.3672C12.9683 18.9082 12.9683 18.166 12.5093 17.7119L7.80225 13.0049L12.5093 8.29785C12.9683 7.83887 12.9683 7.09668 12.5093 6.64258L11.4058 5.53906C10.9468 5.08008 10.2046 5.08008 9.75049 5.53906L3.10986 12.1797C2.65088 12.6289 2.65088 13.3711 3.10986 13.8301Z" fill="#858585"/>
<rect x="24.5" y="25" width="24" height="24" rx="3.5" transform="rotate(-180 24.5 25)" stroke="#EBEBEB"/>
</svg>
