<svg width="25" height="26" viewBox="0 0 25 26" fill="none" xmlns="http://www.w3.org/2000/svg">
<rect x="0.5" y="1" width="24" height="24" rx="3.5" fill="white"/>
<path d="M12.5151 13.8301L5.87451 20.4707C5.41553 20.9297 4.67334 20.9297 4.21924 20.4707L3.11572 19.3672C2.65674 18.9082 2.65674 18.166 3.11572 17.7119L7.82275 13.0049L3.11572 8.29785C2.65674 7.83887 2.65674 7.09668 3.11572 6.64258L4.21436 5.5293C4.67334 5.07031 5.41553 5.07031 5.86963 5.5293L12.5103 12.1699C12.9741 12.6289 12.9741 13.3711 12.5151 13.8301V13.8301ZM21.8901 12.1699L15.2495 5.5293C14.7905 5.07031 14.0483 5.07031 13.5942 5.5293L12.4907 6.63281C12.0317 7.0918 12.0317 7.83398 12.4907 8.28809L17.1978 12.9951L12.4907 17.7021C12.0317 18.1611 12.0317 18.9033 12.4907 19.3574L13.5942 20.4609C14.0532 20.9199 14.7954 20.9199 15.2495 20.4609L21.8901 13.8203C22.3491 13.3711 22.3491 12.6289 21.8901 12.1699Z" fill="#50ABA3"/>
<rect x="0.5" y="1" width="24" height="24" rx="3.5" stroke="#EBEBEB"/>
</svg>
