<svg width="32" height="32" viewBox="0 0 32 32" fill="none" xmlns="http://www.w3.org/2000/svg">
<circle cx="16" cy="16" r="13.25" fill="#FFE600" stroke="#FFB800" stroke-width="1.5"/>
<path d="M24.3999 16.0019C24.3999 16.0672 24.3992 16.1318 24.3971 16.1964C24.3971 16.2105 24.3971 16.2238 24.3964 16.2379C24.395 16.2947 24.3929 16.3516 24.3894 16.4078C24.3894 16.4212 24.3887 16.4331 24.388 16.4457C24.3809 16.5848 24.3704 16.7225 24.3564 16.8601C24.3493 16.931 24.3409 17.0013 24.3318 17.0715C24.3248 17.1263 24.317 17.1804 24.3093 17.2352C24.3037 17.2745 24.2974 17.3138 24.2918 17.3531C24.2833 17.4051 24.2742 17.4564 24.2651 17.5084C24.2532 17.5709 24.2419 17.6334 24.2286 17.6952C24.2159 17.7605 24.2012 17.8258 24.1858 17.8918C24.1851 17.8967 24.1836 17.9017 24.1829 17.9066C24.1682 17.9719 24.1514 18.0372 24.1352 18.1018C24.1198 18.1636 24.1029 18.2247 24.0861 18.2858C24.084 18.2929 24.0818 18.2999 24.0797 18.3062C24.0608 18.3715 24.0418 18.4361 24.0215 18.5007V18.5021C24.0039 18.5562 23.9871 18.6103 23.9688 18.6637C23.9632 18.6819 23.9569 18.7002 23.9506 18.7192C23.9309 18.7768 23.9105 18.8343 23.8895 18.8905C23.8719 18.9376 23.8544 18.9853 23.8368 19.0324C23.8277 19.0549 23.8186 19.0781 23.8101 19.1005C23.7919 19.1476 23.7729 19.1932 23.7533 19.2396C23.7491 19.2501 23.7441 19.2607 23.7399 19.2719C23.7154 19.3302 23.6901 19.3871 23.6648 19.444C23.662 19.4496 23.6592 19.4552 23.6571 19.4608C23.6346 19.51 23.6122 19.5584 23.589 19.6062C23.5792 19.6294 23.5679 19.6533 23.556 19.6757C23.5349 19.72 23.5132 19.7628 23.4907 19.8064C23.464 19.859 23.4373 19.9103 23.4093 19.9623C23.3833 20.0114 23.3566 20.0599 23.3299 20.107C23.3222 20.1217 23.3145 20.1358 23.306 20.1498C23.2808 20.1955 23.2548 20.239 23.2274 20.2839C23.1811 20.3619 23.134 20.4392 23.0856 20.5157C23.0463 20.5768 23.0063 20.6379 22.9662 20.6983C22.9178 20.7685 22.8701 20.8388 22.8195 20.9076C22.7851 20.9561 22.7493 21.0045 22.7128 21.0523C22.7065 21.0614 22.7001 21.0698 22.6924 21.0783C22.6552 21.1281 22.6166 21.178 22.5773 21.2265C22.5717 21.2342 22.5653 21.2412 22.5583 21.2489C22.5225 21.2946 22.486 21.3395 22.4488 21.3831C22.4369 21.3978 22.4249 21.4126 22.4116 21.4273C22.3737 21.473 22.3344 21.5179 22.295 21.5615C22.2915 21.5657 22.2873 21.5713 22.2831 21.5755C22.2375 21.6268 22.1918 21.6774 22.1455 21.7272C22.1427 21.7307 22.1399 21.7335 22.1371 21.7364C22.0964 21.7799 22.0556 21.8227 22.0135 21.8649C22.0002 21.8803 21.9854 21.8951 21.9707 21.9077C21.9447 21.9344 21.9194 21.9604 21.8935 21.9857C21.864 22.0152 21.8345 22.044 21.8043 22.0735C21.7608 22.1149 21.7172 22.1549 21.6723 22.1964C21.6224 22.2413 21.5726 22.287 21.5213 22.3312C21.5171 22.3354 21.5122 22.3389 21.508 22.3432L21.4701 22.3755C21.468 22.3776 21.4652 22.3797 21.4631 22.3818C21.4118 22.4253 21.3606 22.4689 21.3079 22.5103C21.2819 22.5314 21.2567 22.5532 21.2307 22.5728C21.2061 22.5932 21.1808 22.6129 21.1556 22.6318C21.1261 22.6557 21.0966 22.6782 21.0671 22.7006C21.018 22.7386 20.9674 22.7758 20.9169 22.8116C20.9119 22.8158 20.907 22.8193 20.9014 22.8228C20.8502 22.8608 20.7968 22.898 20.7434 22.9338C20.7336 22.9415 20.7224 22.9493 20.7111 22.9563C20.6606 22.9907 20.61 23.0237 20.5588 23.0567C20.5321 23.0743 20.5061 23.0904 20.4802 23.1073C20.3903 23.1635 20.2997 23.219 20.2077 23.2716C20.1762 23.2899 20.1453 23.3082 20.1137 23.325C20.0912 23.3377 20.0694 23.3496 20.0477 23.3622C20.0175 23.3791 19.9873 23.3952 19.9571 23.4114C19.9487 23.4163 19.941 23.4205 19.9325 23.424C19.8504 23.469 19.7668 23.5111 19.6819 23.5526L19.6454 23.5708C19.5829 23.601 19.5204 23.6298 19.4565 23.6593C19.4032 23.6832 19.3491 23.7071 19.295 23.7296C19.2719 23.7401 19.2494 23.7499 19.2255 23.759C19.1771 23.7794 19.1279 23.7991 19.0795 23.818C19.0212 23.8412 18.9622 23.8637 18.9033 23.8855C18.8963 23.8883 18.8899 23.8897 18.8829 23.8925C18.8204 23.9157 18.7572 23.9381 18.6934 23.9592C18.654 23.9733 18.614 23.9859 18.574 23.9985C18.4813 24.0287 18.3886 24.0561 18.2953 24.0828C18.23 24.1018 18.1647 24.1193 18.0987 24.1362C18.0341 24.1531 17.9688 24.1692 17.9021 24.1847C17.8951 24.1861 17.8881 24.1875 17.881 24.1896C17.8228 24.2022 17.7638 24.2156 17.7048 24.2275C17.6922 24.2303 17.6802 24.2331 17.6683 24.2352C17.6185 24.2458 17.5686 24.2556 17.5181 24.264C17.4956 24.2682 17.4724 24.2724 17.4493 24.2767C17.445 24.2774 17.4401 24.2781 17.4359 24.2788C17.3847 24.2879 17.3327 24.2956 17.2801 24.3041C17.2801 24.3041 17.2779 24.3048 17.2765 24.3041C17.2127 24.3146 17.1495 24.3237 17.0863 24.3307C17.0673 24.3336 17.0484 24.3364 17.0294 24.3378C16.9725 24.3455 16.915 24.3525 16.8581 24.3574C16.8539 24.3581 16.8497 24.3581 16.8455 24.3588C16.7788 24.3659 16.7121 24.3715 16.6454 24.3764C16.5745 24.382 16.5028 24.3862 16.4312 24.3897C16.3687 24.3932 16.3056 24.3954 16.2431 24.3975C16.2311 24.3975 16.2199 24.3982 16.208 24.3982C16.1385 24.4003 16.069 24.401 15.9988 24.401C15.9054 24.401 15.812 24.3996 15.7193 24.3961C15.6765 24.3947 15.6337 24.3932 15.5915 24.3904C15.574 24.3904 15.5564 24.389 15.5389 24.3883C15.4799 24.3855 15.4202 24.382 15.362 24.3771C15.3535 24.3771 15.3465 24.3764 15.3381 24.375C15.2903 24.3715 15.2433 24.368 15.197 24.3623C15.1647 24.3602 15.1338 24.3567 15.1029 24.3532C15.0741 24.3504 15.0446 24.3469 15.0158 24.3427C14.9758 24.3392 14.9365 24.3335 14.8972 24.3279C14.7757 24.3125 14.6557 24.2942 14.5356 24.2731C13.3652 24.0674 12.3177 23.3945 11.6971 22.3804C11.6915 22.3713 11.6858 22.3621 11.6802 22.353C11.3952 21.881 11.2386 21.3388 11.2379 20.7875V20.7791C11.2379 20.7264 11.2386 20.6751 11.24 20.6232C11.2407 20.6 11.2421 20.5754 11.2442 20.5522C11.2597 20.2685 11.318 19.9883 11.4169 19.7214C11.5384 19.3955 11.6922 19.0844 11.8733 18.7929C12.2187 18.2374 12.7179 17.7963 13.3119 17.521C13.5078 17.429 13.7121 17.3503 13.9206 17.2836C14.3573 17.1446 14.8192 17.061 15.2974 17.0413C15.369 17.0378 15.442 17.0371 15.5143 17.0371C16.8581 17.0371 18.0825 17.5421 19.0093 18.3743C19.0149 18.3743 19.0205 18.3736 19.0261 18.3736C20.5848 16.8489 21.5522 14.7215 21.5522 12.368C21.5522 11.2464 21.3325 10.1768 20.9337 9.19846C22.38 10.2491 23.4767 11.7514 24.0208 13.4974C24.0376 13.5515 24.0545 13.6069 24.0699 13.6617C24.079 13.6891 24.0861 13.7179 24.0938 13.746C24.1064 13.7903 24.1184 13.8345 24.1289 13.8787C24.1324 13.8886 24.1352 13.8991 24.1373 13.9089C24.1535 13.9722 24.1689 14.0354 24.1837 14.0993V14.1007C24.1998 14.1681 24.2145 14.2362 24.2279 14.3051C24.2398 14.3598 24.2503 14.4146 24.2595 14.4694C24.2658 14.5003 24.2714 14.5312 24.2763 14.5614C24.2904 14.6408 24.303 14.7201 24.3135 14.7995C24.3192 14.8339 24.3234 14.869 24.3276 14.9034C24.3311 14.9273 24.3339 14.9526 24.3367 14.9772C24.3409 15.0109 24.3444 15.0446 24.3479 15.0783C24.3521 15.1113 24.3557 15.1443 24.3585 15.178C24.3648 15.2356 24.3697 15.2946 24.3732 15.3522C24.3788 15.4196 24.383 15.4871 24.3866 15.5545C24.3873 15.5664 24.388 15.5777 24.388 15.5896C24.3915 15.6437 24.3936 15.6992 24.395 15.754C24.3957 15.768 24.3957 15.7806 24.3957 15.7947C24.3999 15.8656 24.3999 15.933 24.3999 16.0019Z" fill="#FFB800"/>
<path d="M20.2733 8.76516C20.0578 8.86349 19.8492 8.97656 19.6513 9.10298C19.5052 9.19498 19.3648 9.29471 19.2286 9.40077C19.018 9.56651 18.82 9.74701 18.6381 9.94156C17.8251 10.8047 17.3028 11.9432 17.2241 13.2024C17.2129 13.3808 17.1764 13.5571 17.1132 13.725C17.1076 13.7404 17.1013 13.7559 17.095 13.772C16.7938 14.5369 16.3185 15.2139 15.7175 15.7547C15.0449 16.3601 14.2129 16.7941 13.2939 16.9859C13.1851 17.0083 13.0046 17.0266 12.8937 17.0266H12.8923C12.6662 17.0266 12.4465 17.0505 12.2337 17.0961C11.347 17.2844 10.5986 17.8476 10.1626 18.6117C9.8986 19.0718 9.74835 19.6034 9.74835 20.1716C9.74835 20.5993 9.83331 21.0053 9.98776 21.3768C9.42329 20.2482 9.10595 18.9741 9.10595 17.6271C9.10595 14.074 11.3105 11.0365 14.4256 9.80741C12.9105 10.1473 11.5499 10.8974 10.4666 11.9348C9.72238 12.6476 9.17194 13.5424 8.86443 14.5256C8.61589 15.3193 8.4825 16.1634 8.4825 17.0385C8.4825 18.8688 9.06663 20.5614 10.0601 21.9415C9.42188 21.3052 8.8876 20.5649 8.48039 19.7495C8.22553 19.2389 8.02193 18.6995 7.87379 18.137C7.69546 17.4557 7.59998 16.7401 7.59998 16.0026C7.59998 15.5089 7.6428 15.025 7.72495 14.5551C7.8113 14.053 7.94329 13.5655 8.11671 13.0978C9.22249 10.0933 11.9957 7.89639 15.3131 7.6274C15.5398 7.60914 15.7687 7.60001 16.0004 7.60001C16.3501 7.60001 16.6948 7.62108 17.0339 7.66321C18.2057 7.80579 19.3023 8.19066 20.2733 8.76516Z" fill="#FFB800"/>
</svg>
