<svg width="32" height="32" viewBox="0 0 32 32" fill="none" xmlns="http://www.w3.org/2000/svg">
<g clip-path="url(#clip0_1910_10377)">
<path d="M17.4999 16.59C21.4211 16.59 24.5999 13.4112 24.5999 9.49C24.5999 5.56878 21.4211 2.39 17.4999 2.39C13.5787 2.39 10.3999 5.56878 10.3999 9.49C10.3999 13.4112 13.5787 16.59 17.4999 16.59Z" fill="#FFE600"/>
<path d="M17.5 17C13.36 17 10 13.63 10 9.5C10 5.36 13.37 2 17.5 2C21.63 2 25 5.37 25 9.5C25 13.63 21.63 17 17.5 17ZM17.5 2.79C13.81 2.79 10.8 5.8 10.8 9.49C10.8 13.18 13.81 16.19 17.5 16.19C21.19 16.19 24.2 13.18 24.2 9.49C24.2 5.8 21.19 2.79 17.5 2.79Z" fill="#FFB800"/>
<path d="M22 9.50001C22 9.54001 22 9.57001 22 9.60001C22 9.61001 22 9.61001 22 9.62001C22 9.65001 22 9.68001 22 9.71001C22 9.72001 22 9.72001 22 9.73001C22 9.80001 21.99 9.88001 21.98 9.95001C21.98 9.99001 21.97 10.03 21.97 10.06C21.97 10.09 21.96 10.12 21.96 10.15C21.96 10.17 21.95 10.19 21.95 10.21C21.95 10.24 21.9399 10.27 21.9399 10.29C21.9299 10.32 21.93 10.36 21.92 10.39C21.91 10.43 21.91 10.46 21.9 10.5V10.51C21.89 10.55 21.88 10.58 21.87 10.61C21.86 10.64 21.85 10.68 21.84 10.71V10.72C21.83 10.76 21.82 10.79 21.81 10.82C21.8 10.85 21.79 10.88 21.78 10.91C21.78 10.92 21.7699 10.93 21.7699 10.94C21.7599 10.97 21.75 11 21.74 11.03C21.73 11.06 21.72 11.08 21.71 11.11C21.71 11.12 21.7 11.13 21.7 11.15C21.6899 11.18 21.68 11.2 21.67 11.22C21.67 11.23 21.67 11.23 21.66 11.24C21.65 11.27 21.63 11.3 21.62 11.33V11.34C21.61 11.37 21.6 11.39 21.58 11.42C21.57 11.43 21.57 11.45 21.56 11.46C21.55 11.48 21.5399 11.51 21.5199 11.53C21.5099 11.56 21.49 11.59 21.48 11.61C21.47 11.64 21.45 11.66 21.4399 11.69C21.4399 11.7 21.43 11.71 21.43 11.71C21.42 11.73 21.4 11.76 21.39 11.78C21.37 11.82 21.34 11.86 21.31 11.9C21.29 11.93 21.27 11.97 21.25 12C21.22 12.04 21.2 12.08 21.17 12.11C21.15 12.14 21.13 12.16 21.11 12.19L21.1 12.2C21.08 12.23 21.06 12.25 21.04 12.28L21.03 12.29C21.01 12.31 20.99 12.34 20.97 12.36C20.96 12.37 20.96 12.38 20.95 12.38C20.93 12.4 20.91 12.43 20.89 12.45C20.89 12.45 20.89 12.46 20.88 12.46C20.86 12.49 20.83 12.51 20.81 12.54C20.79 12.56 20.77 12.59 20.74 12.61C20.73 12.62 20.72 12.63 20.72 12.63C20.71 12.64 20.69 12.66 20.68 12.67C20.66 12.69 20.65 12.7 20.63 12.72C20.61 12.74 20.58 12.76 20.56 12.79C20.53 12.81 20.51 12.84 20.48 12.86C20.48 12.86 20.48 12.86 20.47 12.87L20.45 12.89C20.42 12.91 20.4 12.94 20.37 12.96C20.33 12.99 20.31 13.01 20.3 13.02C20.29 13.03 20.27 13.04 20.26 13.05C20.24 13.06 20.23 13.07 20.21 13.09C20.18 13.11 20.16 13.13 20.13 13.15C20.13 13.15 20.12 13.15 20.12 13.16C20.09 13.18 20.06 13.2 20.04 13.22C20.03 13.22 20.03 13.23 20.0199 13.23C19.9899 13.25 19.97 13.27 19.9399 13.28C19.9299 13.29 19.91 13.3 19.9 13.31C19.85 13.34 19.8 13.37 19.75 13.4C19.73 13.41 19.72 13.42 19.7 13.43C19.6899 13.44 19.68 13.44 19.66 13.45C19.64 13.46 19.63 13.47 19.61 13.48C19.61 13.48 19.6 13.48 19.6 13.49C19.56 13.51 19.51 13.54 19.47 13.56L19.45 13.57C19.42 13.59 19.38 13.6 19.35 13.62C19.32 13.63 19.29 13.65 19.26 13.66C19.25 13.67 19.24 13.67 19.22 13.68C19.19 13.69 19.17 13.7 19.14 13.71C19.11 13.72 19.08 13.73 19.05 13.75H19.04C19.01 13.76 18.97 13.77 18.9399 13.79C18.92 13.8 18.9 13.8 18.88 13.81C18.83 13.83 18.78 13.84 18.73 13.86C18.69 13.87 18.66 13.88 18.62 13.89C18.59 13.9 18.55 13.91 18.51 13.92H18.5C18.47 13.93 18.44 13.93 18.41 13.94C18.4 13.94 18.4 13.94 18.39 13.94C18.36 13.95 18.34 13.95 18.31 13.96C18.3 13.96 18.2899 13.96 18.2699 13.97C18.2699 13.97 18.27 13.97 18.26 13.97C18.23 13.97 18.2 13.98 18.18 13.98C18.15 13.99 18.11 13.99 18.08 13.99C18.07 13.99 18.06 13.99 18.05 13.99C18.02 13.99 17.99 14 17.96 14C17.96 14 17.96 14 17.95 14C17.91 14 17.88 14.01 17.84 14.01C17.8 13.99 17.77 13.99 17.73 13.99C17.7 13.99 17.66 13.99 17.63 13.99C17.62 13.99 17.62 13.99 17.61 13.99C17.57 13.99 17.54 13.99 17.5 13.99C17.45 13.99 17.4 13.99 17.35 13.99C17.33 13.99 17.3 13.99 17.28 13.99C17.27 13.99 17.26 13.99 17.25 13.99C17.22 13.99 17.19 13.99 17.16 13.98H17.15C17.12 13.98 17.1 13.98 17.07 13.97C17.05 13.97 17.0399 13.97 17.0199 13.97C16.9999 13.97 16.99 13.97 16.97 13.96C16.95 13.96 16.93 13.96 16.91 13.95C16.84 13.94 16.78 13.93 16.72 13.92C16.09 13.81 15.53 13.45 15.2 12.91L15.19 12.9C15.04 12.65 14.95 12.36 14.95 12.06C14.95 12.03 14.95 12 14.95 11.98C14.95 11.97 14.95 11.95 14.95 11.94C14.96 11.79 14.99 11.64 15.04 11.49C15.11 11.32 15.19 11.15 15.28 10.99C15.47 10.69 15.73 10.46 16.05 10.31C16.15 10.26 16.26 10.22 16.38 10.18C16.61 10.11 16.86 10.06 17.12 10.05C17.16 10.05 17.2 10.05 17.24 10.05C17.96 10.05 18.62 10.32 19.11 10.77H19.12C19.96 9.95001 20.47 8.81001 20.47 7.55001C20.47 6.95001 20.35 6.38001 20.14 5.85001C20.92 6.41001 21.5 7.22001 21.79 8.15001C21.8 8.18001 21.81 8.21001 21.82 8.24001C21.82 8.25001 21.83 8.27001 21.83 8.29001C21.84 8.31001 21.84 8.34001 21.85 8.36001C21.85 8.37001 21.85 8.37001 21.85 8.38001C21.86 8.41001 21.87 8.45001 21.87 8.48001C21.88 8.52001 21.89 8.55001 21.89 8.59001C21.9 8.62001 21.9 8.65001 21.91 8.68001C21.91 8.70001 21.92 8.71001 21.92 8.73001C21.93 8.77001 21.9299 8.82001 21.9399 8.86001C21.9399 8.88001 21.95 8.90001 21.95 8.92001C21.95 8.93001 21.95 8.95001 21.95 8.96001C21.95 8.98001 21.95 9.00001 21.96 9.01001C21.96 9.03001 21.96 9.05001 21.97 9.06001C21.97 9.09001 21.98 9.12001 21.98 9.15001C21.98 9.19001 21.99 9.22001 21.99 9.26001C21.99 9.27001 21.99 9.27001 21.99 9.28001C21.99 9.31001 21.99 9.34001 21.99 9.37001C21.99 9.38001 21.99 9.38001 21.99 9.39001C22 9.42001 22 9.46001 22 9.50001Z" fill="#FFB800"/>
<path d="M19.79 5.62001C19.67 5.67001 19.56 5.73001 19.46 5.80001C19.38 5.85001 19.31 5.90001 19.23 5.96001C19.11 6.05001 19.01 6.14001 18.91 6.25001C18.47 6.71001 18.19 7.32001 18.15 7.99001C18.14 8.09001 18.12 8.18001 18.09 8.27001C18.09 8.28001 18.08 8.29001 18.08 8.30001C17.92 8.71001 17.66 9.07001 17.34 9.36001C16.98 9.68001 16.53 9.92001 16.04 10.02C15.98 10.03 15.88 10.04 15.83 10.04C15.71 10.04 15.59 10.05 15.48 10.08C15 10.18 14.6 10.48 14.37 10.89C14.23 11.14 14.15 11.42 14.15 11.73C14.15 11.96 14.2 12.18 14.28 12.38C13.98 11.78 13.81 11.09 13.81 10.37C13.81 8.47001 14.99 6.84001 16.66 6.18001C15.85 6.36001 15.12 6.76001 14.54 7.32001C14.14 7.70001 13.85 8.18001 13.68 8.71001C13.55 9.14001 13.48 9.59001 13.48 10.06C13.48 11.04 13.79 11.95 14.33 12.69C13.99 12.35 13.7 11.95 13.48 11.52C13.34 11.25 13.23 10.96 13.15 10.66C13.05 10.29 13 9.91001 13 9.52001C13 9.26 13.02 9.00001 13.07 8.74001C13.12 8.47001 13.19 8.21001 13.28 7.96001C13.87 6.35001 15.36 5.17001 17.14 5.03001C17.25 5.00001 17.37 4.99001 17.5 4.99001C17.69 4.99001 17.87 5.00001 18.05 5.02001C18.68 5.10001 19.27 5.31001 19.79 5.62001Z" fill="#FFB800"/>
</g>
<path fill-rule="evenodd" clip-rule="evenodd" d="M17.6234 17.4536H20.8404C21.3299 17.4536 21.7096 17.054 21.7096 16.5645C21.7096 16.0649 21.3299 15.6753 20.8404 15.6753H17.6234C17.1339 15.6753 16.7542 16.0649 16.7542 16.5645C16.7542 17.044 17.1339 17.4536 17.6234 17.4536ZM24.6668 11.2794C25.3762 11.2794 25.8357 11.5292 26.3053 12.0787C26.7748 12.6282 26.8548 13.4074 26.7449 14.1168L25.6359 21.8995C25.4261 23.3981 24.1673 24.497 22.6987 24.497H10.0205C8.472 24.497 7.1932 23.2882 7.07331 21.7196L6.00432 8.78177L4.24596 8.48205C3.78639 8.39214 3.4567 7.93257 3.53663 7.45302C3.61655 6.96348 4.07612 6.64378 4.54568 6.71371L7.31309 7.14331C7.71271 7.21324 8.00244 7.54293 8.03241 7.95255L8.25221 10.6101C8.28218 10.9897 8.59189 11.2794 8.96154 11.2794H24.6668ZM9.84072 26.3753C8.86164 26.3753 8.07238 27.1845 8.07238 28.1836C8.07238 29.1727 8.86164 29.9719 9.84072 29.9719C10.8098 29.9719 11.5991 29.1627 11.5991 28.1836C11.5891 27.1845 10.7998 26.3753 9.84072 26.3753ZM22.9085 26.3753C21.9294 26.3753 21.1401 27.1845 21.1401 28.1836C21.1401 29.1727 21.9294 29.9719 22.9085 29.9719C23.8776 29.9719 24.6668 29.1627 24.6668 28.1836C24.6668 27.1845 23.8776 26.3753 22.9085 26.3753Z" fill="#50ABA3"/>
<defs>
<clipPath id="clip0_1910_10377">
<rect width="15" height="11" fill="white" transform="translate(10 2)"/>
</clipPath>
</defs>
</svg>
