<svg width="32" height="32" viewBox="0 0 32 32" fill="none" xmlns="http://www.w3.org/2000/svg">
<path d="M21.5932 18.34C25.9823 18.34 29.5403 14.7807 29.5403 10.39C29.5403 5.99932 25.9823 2.43999 21.5932 2.43999C17.2041 2.43999 13.646 5.99932 13.646 10.39C13.646 14.7807 17.2041 18.34 21.5932 18.34Z" fill="#FFE600"/>
<path d="M21.593 18.8C16.9647 18.8 13.196 15.03 13.196 10.4C13.196 5.77 16.9647 2 21.593 2C26.2214 2 29.99 5.77 29.99 10.4C30 15.03 26.2314 18.8 21.593 18.8ZM21.593 2.89C17.4545 2.89 14.0957 6.26 14.0957 10.39C14.0957 14.53 17.4645 17.89 21.593 17.89C25.7216 17.89 29.0904 14.52 29.0904 10.39C29.1004 6.26 25.7316 2.89 21.593 2.89Z" fill="#FFB800"/>
<path d="M26.6313 10.4C26.6313 10.44 26.6313 10.48 26.6313 10.52C26.6313 10.53 26.6313 10.54 26.6313 10.54C26.6313 10.57 26.6313 10.61 26.6313 10.64C26.6313 10.65 26.6313 10.66 26.6313 10.66C26.6313 10.74 26.6214 10.83 26.6114 10.91C26.6114 10.95 26.6014 10.99 26.6014 11.04C26.6014 11.07 26.5914 11.11 26.5914 11.14C26.5914 11.16 26.5814 11.19 26.5814 11.21C26.5714 11.24 26.5714 11.27 26.5614 11.3C26.5514 11.34 26.5514 11.38 26.5414 11.41C26.5314 11.45 26.5214 11.49 26.5114 11.53V11.54C26.5014 11.58 26.4914 11.62 26.4814 11.66C26.4714 11.7 26.4614 11.73 26.4514 11.77V11.78C26.4414 11.82 26.4314 11.86 26.4214 11.9C26.4114 11.93 26.4014 11.96 26.3914 12C26.3914 12.01 26.3814 12.02 26.3814 12.03C26.3714 12.06 26.3614 12.1 26.3415 12.13C26.3315 12.16 26.3215 12.19 26.3115 12.22C26.3015 12.23 26.3015 12.25 26.2915 12.26C26.2815 12.29 26.2715 12.32 26.2615 12.34C26.2615 12.35 26.2515 12.35 26.2515 12.36C26.2415 12.39 26.2215 12.43 26.2015 12.46V12.47C26.1915 12.5 26.1715 12.53 26.1615 12.56C26.1515 12.57 26.1515 12.59 26.1415 12.6C26.1315 12.63 26.1115 12.65 26.1015 12.68C26.0815 12.71 26.0715 12.74 26.0516 12.77C26.0316 12.8 26.0216 12.83 26.0016 12.86C26.0016 12.87 25.9916 12.88 25.9916 12.89C25.9716 12.92 25.9616 12.94 25.9416 12.97C25.9116 13.02 25.8816 13.06 25.8516 13.11C25.8316 13.15 25.8016 13.18 25.7817 13.22C25.7517 13.26 25.7217 13.3 25.6917 13.35C25.6717 13.38 25.6517 13.41 25.6317 13.44C25.6317 13.45 25.6217 13.45 25.6217 13.46C25.6017 13.49 25.5717 13.52 25.5517 13.55L25.5417 13.56C25.5217 13.59 25.5018 13.61 25.4718 13.64C25.4618 13.65 25.4618 13.66 25.4518 13.67C25.4318 13.7 25.4018 13.72 25.3818 13.75C25.3818 13.75 25.3818 13.76 25.3718 13.76C25.3418 13.79 25.3218 13.82 25.2918 13.85C25.2918 13.85 25.2918 13.85 25.2818 13.86C25.2618 13.89 25.2318 13.91 25.2119 13.94C25.2019 13.95 25.1919 13.96 25.1819 13.97C25.1619 13.99 25.1519 14 25.1319 14.02C25.1119 14.04 25.0919 14.05 25.0819 14.07C25.0519 14.09 25.0319 14.12 25.0019 14.14C24.9719 14.17 24.942 14.19 24.912 14.22C24.912 14.22 24.902 14.22 24.902 14.23L24.882 14.25C24.852 14.28 24.822 14.3 24.792 14.33C24.772 14.34 24.762 14.36 24.742 14.37C24.732 14.38 24.712 14.39 24.692 14.41C24.672 14.42 24.6521 14.44 24.6421 14.45C24.6121 14.47 24.5821 14.5 24.5521 14.52C24.5521 14.52 24.5421 14.52 24.5421 14.53C24.5121 14.55 24.4821 14.58 24.4521 14.6C24.4421 14.6 24.4421 14.61 24.4321 14.61C24.4021 14.63 24.3722 14.65 24.3422 14.67C24.3222 14.68 24.3122 14.69 24.2922 14.7C24.2422 14.73 24.1822 14.77 24.1322 14.8C24.1122 14.81 24.0923 14.82 24.0723 14.83C24.0623 14.84 24.0423 14.84 24.0323 14.85C24.0123 14.86 23.9923 14.87 23.9823 14.88C23.9723 14.88 23.9723 14.89 23.9723 14.89C23.9223 14.92 23.8723 14.94 23.8224 14.97L23.8024 14.98C23.7624 15 23.7224 15.02 23.6924 15.03C23.6624 15.04 23.6324 15.06 23.5924 15.07C23.5824 15.08 23.5624 15.08 23.5524 15.09C23.5225 15.1 23.4925 15.11 23.4625 15.13C23.4325 15.14 23.3925 15.16 23.3525 15.17H23.3425C23.3025 15.18 23.2626 15.2 23.2326 15.21C23.2126 15.22 23.1826 15.23 23.1626 15.23C23.1026 15.25 23.0526 15.26 22.9926 15.28C22.9527 15.29 22.9127 15.3 22.8727 15.31C22.8327 15.32 22.7927 15.33 22.7527 15.34H22.7427C22.7127 15.35 22.6728 15.36 22.6328 15.36C22.6228 15.36 22.6228 15.36 22.6128 15.36C22.5828 15.37 22.5528 15.37 22.5228 15.38C22.5128 15.38 22.4928 15.39 22.4828 15.39H22.4728C22.4428 15.4 22.4129 15.4 22.3829 15.41C22.3429 15.42 22.3029 15.42 22.2729 15.43C22.2629 15.43 22.2529 15.43 22.2429 15.43C22.2129 15.43 22.1729 15.44 22.143 15.44H22.133C22.093 15.44 22.053 15.45 22.013 15.45C21.973 15.45 21.923 15.46 21.883 15.46C21.8431 15.46 21.8031 15.46 21.7731 15.46C21.7631 15.46 21.7631 15.46 21.7531 15.46C21.7131 15.46 21.6731 15.46 21.6231 15.46C21.5632 15.46 21.5132 15.46 21.4532 15.46C21.4232 15.46 21.4032 15.46 21.3732 15.46C21.3632 15.46 21.3532 15.46 21.3432 15.46C21.3033 15.46 21.2733 15.46 21.2333 15.45C21.2233 15.45 21.2233 15.45 21.2233 15.45C21.1933 15.45 21.1633 15.45 21.1433 15.44C21.1233 15.44 21.1033 15.44 21.0833 15.43C21.0633 15.43 21.0533 15.43 21.0333 15.42C21.0134 15.42 20.9834 15.41 20.9634 15.41C20.8934 15.4 20.8234 15.39 20.7435 15.38C20.0437 15.26 19.4139 14.85 19.0441 14.24C19.0441 14.23 19.0341 14.23 19.0341 14.22C18.8641 13.94 18.7642 13.61 18.7642 13.28V13.27C18.7642 13.24 18.7642 13.21 18.7642 13.18C18.7642 13.17 18.7642 13.15 18.7642 13.14C18.7742 12.97 18.8041 12.8 18.8641 12.64C18.9341 12.44 19.0341 12.26 19.134 12.08C19.344 11.75 19.6438 11.48 19.9937 11.32C20.1137 11.26 20.2336 11.22 20.3636 11.18C20.6235 11.1 20.9034 11.05 21.1933 11.03C21.2333 11.03 21.2833 11.03 21.3232 11.03C22.133 11.03 22.8627 11.33 23.4225 11.83H23.4325C24.3722 10.91 24.9519 9.63999 24.9519 8.21999C24.9519 7.54999 24.822 6.89999 24.5821 6.31999C25.4518 6.94999 26.1115 7.84999 26.4314 8.89999C26.4414 8.92999 26.4514 8.96999 26.4614 8.99999C26.4714 9.01999 26.4714 9.02999 26.4714 9.04999C26.4814 9.07999 26.4814 9.09999 26.4914 9.12999C26.4914 9.13999 26.4914 9.13999 26.5014 9.14999C26.5114 9.18999 26.5214 9.22999 26.5314 9.25999C26.5414 9.29999 26.5514 9.33999 26.5614 9.37999C26.5714 9.40999 26.5714 9.44999 26.5814 9.47999C26.5814 9.49999 26.5914 9.51999 26.5914 9.53999C26.6014 9.58999 26.6114 9.63999 26.6114 9.67999C26.6114 9.69999 26.6214 9.71999 26.6214 9.73999C26.6214 9.74999 26.6214 9.76999 26.6313 9.77999C26.6313 9.79999 26.6314 9.81999 26.6413 9.83999C26.6413 9.85999 26.6413 9.87999 26.6513 9.89999C26.6513 9.92999 26.6613 9.96999 26.6613 9.99999C26.6613 10.04 26.6713 10.08 26.6713 10.12C26.6713 10.13 26.6713 10.13 26.6713 10.14C26.6713 10.17 26.6713 10.21 26.6713 10.24C26.6713 10.25 26.6713 10.26 26.6713 10.26C26.6314 10.31 26.6313 10.35 26.6313 10.4Z" fill="#FFB800"/>
<path d="M24.1622 6.05001C24.0323 6.11001 23.9123 6.18001 23.7924 6.25001C23.7024 6.31001 23.6224 6.37001 23.5424 6.43001C23.4125 6.53001 23.2925 6.64001 23.1926 6.75001C22.7027 7.27001 22.3929 7.95001 22.3429 8.71001C22.3329 8.82001 22.3129 8.92001 22.2729 9.02001C22.2729 9.03001 22.2629 9.04001 22.2629 9.05001C22.083 9.51001 21.7931 9.92001 21.4332 10.24C21.0333 10.6 20.5335 10.86 19.9837 10.98C19.9137 10.99 19.8138 11 19.7438 11C19.6039 11 19.4739 11.01 19.3439 11.04C18.8141 11.15 18.3643 11.49 18.1044 11.95C17.9444 12.23 17.8545 12.55 17.8545 12.89C17.8545 13.15 17.9045 13.39 17.9944 13.61C17.6546 12.93 17.4646 12.17 17.4646 11.36C17.4646 9.23001 18.7841 7.40001 20.6535 6.67001C19.7438 6.87001 18.9241 7.32001 18.2743 7.95001C17.8245 8.38001 17.4946 8.92001 17.3147 9.51001C17.1647 9.99001 17.0848 10.49 17.0848 11.02C17.0848 12.12 17.4346 13.13 18.0344 13.96C17.6546 13.58 17.3347 13.13 17.0848 12.64C16.9348 12.33 16.8049 12.01 16.7249 11.67C16.6149 11.26 16.5649 10.83 16.5649 10.39C16.5649 10.09 16.5949 9.80001 16.6449 9.52001C16.6949 9.22001 16.7749 8.93001 16.8848 8.65001C17.5446 6.85001 19.214 5.53001 21.2033 5.37001C21.3432 5.36001 21.4732 5.35001 21.6131 5.35001C21.8231 5.35001 22.033 5.36001 22.2329 5.39001C22.9227 5.48001 23.5724 5.71001 24.1622 6.05001Z" fill="#FFB800"/>
<path d="M4.06926 16.77C2.92967 16.77 2 17.7 2 18.84V26.98C2 28.12 2.92967 29.05 4.06926 29.05C5.20885 29.05 6.13852 28.12 6.13852 26.98V18.84C6.13852 17.7 5.20885 16.77 4.06926 16.77Z" fill="#50ABA3"/>
<path d="M30.0001 25.56C30.0001 24.32 29.0005 23.32 27.7609 23.32H9.25751C8.01795 23.32 7.01831 24.32 7.01831 25.56V25.85C7.01831 26.81 7.62809 27.66 8.52777 27.97L14.0658 29.88C14.4257 30 14.8055 30.03 15.1754 29.97L28.1408 27.76C29.2104 27.59 30.0001 26.65 30.0001 25.56Z" fill="#50ABA3"/>
<path d="M15.0255 20.35C15.0255 19.21 14.0958 18.28 12.9562 18.28H9.08757C7.94798 18.28 7.01831 19.21 7.01831 20.35C7.01831 21.49 7.94798 22.42 9.08757 22.42H12.9662C14.1058 22.42 15.0255 21.49 15.0255 20.35Z" fill="#50ABA3"/>
</svg>
