<svg width="25" height="26" viewBox="0 0 25 26" fill="none" xmlns="http://www.w3.org/2000/svg">
<path d="M0 8.70332V7.92207C0 7.27485 0.524658 6.75019 1.17188 6.75019H18.75V4.40644C18.75 3.36313 20.0146 2.84189 20.7505 3.57778L24.6568 7.48403C25.1144 7.9417 25.1144 8.68369 24.6568 9.14131L20.7505 13.0476C20.0174 13.7806 18.75 13.2666 18.75 12.2189V9.87519H1.17188C0.524658 9.87519 0 9.35053 0 8.70332ZM23.8281 16.1252H6.25V13.7814C6.25 12.7407 4.98721 12.215 4.24946 12.9528L0.343213 16.859C-0.114404 17.3167 -0.114404 18.0587 0.343213 18.5163L4.24946 22.4226C4.98325 23.1563 6.25 22.6407 6.25 21.5939V19.2502H23.8281C24.4753 19.2502 25 18.7255 25 18.0783V17.2971C25 16.6498 24.4753 16.1252 23.8281 16.1252Z" fill="#858585"/>
</svg>
