<svg width="439" height="252" viewBox="0 0 439 252" fill="none" xmlns="http://www.w3.org/2000/svg">
<path d="M268.597 164.366C315.874 164.366 354.2 127.621 354.2 82.2947C354.2 36.968 315.874 0.223389 268.597 0.223389C221.319 0.223389 182.993 36.968 182.993 82.2947C182.993 127.621 221.319 164.366 268.597 164.366Z" fill="#F2F2F2"/>
<path d="M176.059 223.738C175.52 223.635 174.313 223.305 173.796 222.81C173.58 222.603 173.085 222.191 172.826 222.191" stroke="#4ABFB2" stroke-width="0.3"/>
<path d="M150.999 19.9291C150.999 49.7899 170.538 73.9529 194.685 73.9529L150.999 19.9291Z" fill="#2F2E41"/>
<path d="M194.687 73.9529C194.687 43.7566 216.491 19.3221 243.438 19.3221L194.687 73.9529Z" fill="#4ABFB2"/>
<path d="M166.827 22.636C166.827 51.0006 179.287 73.9529 194.685 73.9529L166.827 22.636Z" fill="#4ABFB2"/>
<path d="M194.687 73.9529C194.687 35.3687 219.889 4.14691 251.035 4.14691L194.687 73.9529Z" fill="#2F2E41"/>
<path d="M325.264 251.446C388.078 251.446 439 244.805 439 236.612C439 228.419 388.078 221.777 325.264 221.777C262.449 221.777 211.527 228.419 211.527 236.612C211.527 244.805 262.449 251.446 325.264 251.446Z" fill="#3F3D56"/>
<path d="M113.867 239.743C151.6 239.743 182.189 235.754 182.189 230.832C182.189 225.911 151.6 221.921 113.867 221.921C76.1338 221.921 45.5449 225.911 45.5449 230.832C45.5449 235.754 76.1338 239.743 113.867 239.743Z" fill="#3F3D56"/>
<path d="M174.955 223.319C211.126 232.181 280.653 211.759 288.289 188.641" stroke="#2F2E41" stroke-width="2" stroke-miterlimit="10"/>
<path d="M44.4952 142.32C44.4952 141.907 44.1719 140.772 42.8789 139.533" stroke="#4ABFB2" stroke-width="0.3"/>
<path d="M44.8186 142.01C44.7108 141.391 44.56 140.029 44.8186 139.533" stroke="#4ABFB2" stroke-width="0.3"/>
<path d="M45.1425 142.01C45.0347 141.804 44.9166 141.204 45.1425 140.772C45.4657 140.152 45.401 139.719 45.1424 139.224" stroke="#4ABFB2" stroke-width="0.3"/>
<path d="M44.1721 142.01C44.0643 141.7 43.9135 141.019 44.1721 140.772C44.2799 140.565 44.4308 140.029 44.1721 139.533" stroke="#4ABFB2" stroke-width="0.3"/>
<path d="M77.4668 212.594C77.3591 213.006 77.0143 213.832 76.4971 213.832" stroke="#4ABFB2" stroke-width="0.3"/>
<path d="M77.791 212.594C77.6833 212.8 77.4678 213.275 77.4678 213.522C77.4678 213.626 77.4031 213.894 77.1445 214.142" stroke="#4ABFB2" stroke-width="0.3"/>
<path d="M78.113 212.594C78.0052 212.697 78.0133 213.172 78.113 213.522C78.1872 213.783 78.4361 213.894 78.4361 214.142" stroke="#4ABFB2" stroke-width="0.3"/>
<path d="M78.4367 212.594C78.329 212.697 78.1781 212.965 78.4367 213.213C78.5444 213.316 78.7599 213.584 78.7599 213.832" stroke="#4ABFB2" stroke-width="0.3"/>
<path d="M175.412 223.429C157.957 219.714 154.142 174.357 149.552 161.513M0.856445 218.476C21.2212 224.977 20.5831 205.787 63.184 189.219C67.9397 187.356 77.652 186.367 78.4558 197.31C78.4558 199.622 78.3352 205.941 77.8529 212.722" stroke="#2F2E41" stroke-width="2" stroke-miterlimit="10"/>
<path d="M301.992 199.136L298.826 218.516C298.826 218.516 283.24 226.454 294.199 226.688C305.158 226.921 356.787 226.688 356.787 226.688C356.787 226.688 366.772 226.688 350.943 218.282L347.777 197.969L301.992 199.136Z" fill="#2F2E41"/>
<path opacity="0.1" d="M291.995 226.477C294.484 224.354 298.827 222.142 298.827 222.142L301.993 202.763L347.777 202.804L350.943 221.908C354.635 223.868 356.921 225.371 358.259 226.524C360.292 226.079 362.514 224.426 350.943 218.282L347.777 197.969L301.993 199.136L298.827 218.516C298.827 218.516 285.73 225.187 291.995 226.477Z" fill="black"/>
<path d="M420.526 64.0651H228.757C224.752 64.0651 221.505 67.1781 221.505 71.0183V194.868C221.505 198.708 224.752 201.822 228.757 201.822H420.526C424.532 201.822 427.779 198.708 427.779 194.868V71.0183C427.779 67.1781 424.532 64.0651 420.526 64.0651Z" fill="#2F2E41"/>
<path d="M420.837 71.4198H228.444V174.62H420.837V71.4198Z" fill="#3F3D56"/>
<path d="M324.642 69.3185C325.315 69.3185 325.86 68.7958 325.86 68.1511C325.86 67.5063 325.315 66.9836 324.642 66.9836C323.97 66.9836 323.425 67.5063 323.425 68.1511C323.425 68.7958 323.97 69.3185 324.642 69.3185Z" fill="#F2F2F2"/>
<path d="M427.779 182.792V194.868C427.779 195.781 427.591 196.686 427.227 197.529C426.862 198.373 426.328 199.139 425.655 199.785C424.981 200.431 424.182 200.943 423.302 201.292C422.422 201.642 421.479 201.822 420.526 201.821H228.757C227.805 201.822 226.862 201.642 225.982 201.292C225.102 200.943 224.302 200.431 223.629 199.785C222.955 199.139 222.421 198.373 222.057 197.529C221.692 196.686 221.505 195.781 221.505 194.868V182.792H427.779Z" fill="#2F2E41"/>
<path d="M378.462 239.296V241.631H247.44V239.763L247.621 239.296L250.85 230.89H375.783L378.462 239.296Z" fill="#2F2E41"/>
<path d="M428.884 237.01C428.645 237.988 427.744 239.02 425.708 239.996C418.402 243.499 403.547 239.062 403.547 239.062C403.547 239.062 392.101 237.195 392.101 232.291C392.422 232.08 392.757 231.889 393.104 231.719C396.176 230.161 406.36 226.317 424.419 231.882C425.749 232.282 426.937 233.029 427.851 234.039C428.583 234.86 429.157 235.902 428.884 237.01Z" fill="#2F2E41"/>
<path opacity="0.1" d="M428.884 237.01C419.941 240.295 411.97 240.54 403.79 235.093C399.664 232.347 395.916 231.668 393.104 231.719C396.175 230.161 406.36 226.317 424.418 231.882C425.749 232.282 426.937 233.029 427.851 234.039C428.583 234.86 429.156 235.902 428.884 237.01Z" fill="black"/>
<path d="M417.672 235.093C419.42 235.093 420.838 234.675 420.838 234.159C420.838 233.643 419.42 233.225 417.672 233.225C415.923 233.225 414.506 233.643 414.506 234.159C414.506 234.675 415.923 235.093 417.672 235.093Z" fill="#F2F2F2"/>
<path d="M324.641 196.802C327.196 196.802 329.268 194.815 329.268 192.365C329.268 189.915 327.196 187.929 324.641 187.929C322.085 187.929 320.014 189.915 320.014 192.365C320.014 194.815 322.085 196.802 324.641 196.802Z" fill="#F2F2F2"/>
<path opacity="0.1" d="M378.462 239.296V241.631H247.44V239.763L247.621 239.296H378.462Z" fill="black"/>
<path d="M116.279 219.851C133.814 219.851 148.029 206.222 148.029 189.411C148.029 172.6 133.814 158.972 116.279 158.972C98.7441 158.972 84.5293 172.6 84.5293 189.411C84.5293 206.222 98.7441 219.851 116.279 219.851Z" fill="#2F2E41"/>
<path d="M111.456 213.3H101.811V229.869H111.456V213.3Z" fill="#2F2E41"/>
<path d="M130.746 213.3H121.101V229.869H130.746V213.3Z" fill="#2F2E41"/>
<path d="M109.848 232.951C114.288 232.951 117.886 231.657 117.886 230.061C117.886 228.465 114.288 227.172 109.848 227.172C105.409 227.172 101.811 228.465 101.811 230.061C101.811 231.657 105.409 232.951 109.848 232.951Z" fill="#2F2E41"/>
<path d="M129.138 232.566C133.578 232.566 137.176 231.272 137.176 229.676C137.176 228.08 133.578 226.786 129.138 226.786C124.699 226.786 121.101 228.08 121.101 229.676C121.101 231.272 124.699 232.566 129.138 232.566Z" fill="#2F2E41"/>
<path d="M117.083 192.108C123.076 192.108 127.934 187.451 127.934 181.705C127.934 175.959 123.076 171.302 117.083 171.302C111.09 171.302 106.231 175.959 106.231 181.705C106.231 187.451 111.09 192.108 117.083 192.108Z" fill="white"/>
<path d="M117.083 185.173C119.081 185.173 120.7 183.62 120.7 181.705C120.7 179.79 119.081 178.237 117.083 178.237C115.085 178.237 113.466 179.79 113.466 181.705C113.466 183.62 115.085 185.173 117.083 185.173Z" fill="#3F3D56"/>
<path d="M85.4811 161.103C82.9175 150.096 91.1124 138.973 103.785 136.26C116.458 133.547 128.809 140.271 131.373 151.279C133.936 162.286 125.538 166.346 112.865 169.059C100.193 171.772 88.0447 172.111 85.4811 161.103Z" fill="#4ABFB2"/>
<path d="M146.057 183.34C154.117 180.033 159.774 175.385 158.691 172.959C157.608 170.533 150.196 171.248 142.135 174.555C134.075 177.862 128.419 182.51 129.502 184.936C130.585 187.362 137.997 186.648 146.057 183.34Z" fill="#2F2E41"/>
<path d="M86.5757 203.762C94.6359 200.454 100.292 195.806 99.2091 193.38C98.1261 190.954 90.7141 191.669 82.6539 194.976C74.5937 198.284 68.9375 202.932 70.0205 205.358C71.1035 207.784 78.5155 207.069 86.5757 203.762Z" fill="#2F2E41"/>
<path d="M126.278 200.83C126.278 200.83 126.764 207.136 117.886 207.136C109.007 207.136 109.469 201.758 109.469 201.758C109.469 201.758 109.007 196.347 117.886 196.347C126.764 196.347 126.278 200.83 126.278 200.83Z" fill="white"/>
<path d="M301.528 147.151H305.848V139.423H310.648V135.631H305.848V112.783H300.616L283.768 136.111V139.423H301.528V147.151ZM288.808 135.631L301.72 117.343V135.631H288.808ZM319.812 129.439C319.812 139.519 322.308 147.151 331.908 147.151C341.46 147.151 343.956 139.519 343.956 129.439C343.956 119.503 341.46 111.919 331.908 111.919C322.308 111.919 319.812 119.503 319.812 129.439ZM339.636 129.439C339.636 136.927 338.724 143.167 331.908 143.167C325.044 143.167 324.132 136.927 324.132 129.439C324.132 122.239 325.044 115.903 331.908 115.903C338.724 115.903 339.636 122.239 339.636 129.439ZM358.209 147.151H362.625V112.447H353.601V116.431H358.209V147.151Z" fill="#F2F2F2"/>
</svg>
