<svg width="400" height="287" viewBox="0 0 400 287" fill="none" xmlns="http://www.w3.org/2000/svg">
<g clip-path="url(#clip0)">
<path opacity="0.1" d="M393.666 192.47C384.388 211.608 365.55 224.405 346.028 232.845C319.746 244.21 290.803 248.718 262.259 246.812C257.256 246.479 252.269 245.947 247.297 245.216C230.028 242.697 213.192 237.794 197.271 230.648C192.676 228.579 188.174 226.32 183.765 223.871C176.401 219.789 169.345 215.175 162.654 210.065C160.971 208.78 159.311 207.462 157.675 206.112C156.54 205.176 155.416 204.22 154.274 203.291C151.865 201.332 149.386 199.471 146.62 198.078C145.786 197.657 144.93 197.28 144.057 196.946C135.3 193.615 125.202 194.872 116.085 197.47C109.151 199.447 102.391 202.153 95.463 204.084C92.3816 204.969 89.2418 205.636 86.0668 206.081C78.9782 206.978 71.7796 206.346 64.9559 204.227L64.3728 204.045C63.3951 203.738 62.4256 203.402 61.4642 203.036L60.8811 202.813C59.95 202.454 59.0386 202.069 58.1471 201.657L57.564 201.391C56.6328 200.958 55.7215 200.501 54.83 200.019C54.5087 199.852 54.191 199.67 53.8767 199.499C48.8042 196.666 44.1933 193.076 40.2032 188.853C40.0879 188.737 39.9797 188.619 39.854 188.504C39.2988 187.903 38.7541 187.292 38.2269 186.667C38.0313 186.436 37.8358 186.206 37.6437 185.969C37.0176 185.205 36.4135 184.424 35.8315 183.626C35.7443 183.51 35.6605 183.392 35.5767 183.276C33.1924 179.978 31.2157 176.403 29.6896 172.63C29.6407 172.515 29.5954 172.396 29.5535 172.281C29.0879 171.082 28.6631 169.864 28.279 168.625C28.1219 168.108 27.9717 167.578 27.839 167.061C27.7936 166.907 27.7517 166.75 27.7133 166.597C25.7859 159.009 25.5659 151.121 25.5659 143.279C25.5659 142.364 25.5659 141.45 25.5659 140.538C25.6218 127.852 25.8173 114.951 27.6889 102.44C27.6889 102.353 27.7133 102.265 27.7273 102.181C28.3537 97.9697 29.2057 93.7945 30.2797 89.6741C31.4038 85.3507 32.8403 81.1145 34.578 76.9992C38.8833 66.8732 45.1439 57.6586 52.0959 49.1179C69.6069 27.6264 92.5719 9.58472 119.451 2.83175C148.415 -4.44148 180.605 2.52797 203.968 21.1283C211.091 26.7989 217.491 33.5134 225.491 37.8606C232.474 41.6456 240.648 43.2134 248.128 40.235C254.308 37.7733 258.33 36.5512 265.272 36.9248C279.642 37.7378 293.809 40.7051 307.298 45.7274C307.843 45.9265 308.388 46.1325 308.929 46.3385C344.094 59.792 374.322 86.5211 390.034 120.869C390.451 121.777 390.855 122.692 391.246 123.614C400.614 145.496 404.001 171.143 393.666 192.47Z" fill="#4ABFB2"/>
<path opacity="0.1" d="M42.005 259.431C59.0291 259.431 72.8298 257.214 72.8298 254.479C72.8298 251.745 59.0291 249.528 42.005 249.528C24.9809 249.528 11.1802 251.745 11.1802 254.479C11.1802 257.214 24.9809 259.431 42.005 259.431Z" fill="#4ABFB2"/>
<path opacity="0.1" d="M318.535 286.289C348.721 286.289 373.191 283.913 373.191 280.982C373.191 278.05 348.721 275.674 318.535 275.674C288.35 275.674 263.879 278.05 263.879 280.982C263.879 283.913 288.35 286.289 318.535 286.289Z" fill="#4ABFB2"/>
<path d="M368.019 37.6232H44.9134C42.5048 37.6232 40.5522 39.5757 40.5522 41.9843V221.231C40.5522 223.64 42.5048 225.592 44.9134 225.592H368.019C370.428 225.592 372.38 223.64 372.38 221.231V41.9843C372.38 39.5757 370.428 37.6232 368.019 37.6232Z" fill="url(#paint0_linear)"/>
<path d="M367.531 40.2664H45.4417C43.0331 40.2664 41.0806 42.219 41.0806 44.6276V220.606C41.0806 223.015 43.0331 224.967 45.4417 224.967H367.531C369.94 224.967 371.892 223.015 371.892 220.606V44.6276C371.892 42.219 369.94 40.2664 367.531 40.2664Z" fill="white"/>
<path d="M367.531 40.2664H45.4417C43.0331 40.2664 41.0806 42.219 41.0806 44.6276V220.606C41.0806 223.015 43.0331 224.967 45.4417 224.967H367.531C369.94 224.967 371.892 223.015 371.892 220.606V44.6276C371.892 42.219 369.94 40.2664 367.531 40.2664Z" fill="white"/>
<path opacity="0.04" d="M367.531 40.2664H45.4417C43.0331 40.2664 41.0806 42.219 41.0806 44.6276V220.606C41.0806 223.015 43.0331 224.967 45.4417 224.967H367.531C369.94 224.967 371.892 223.015 371.892 220.606V44.6276C371.892 42.219 369.94 40.2664 367.531 40.2664Z" fill="white"/>
<path d="M370.213 38.1469H42.7601C42.3146 38.1469 41.8875 38.3239 41.5725 38.6388C41.2575 38.9538 41.0806 39.381 41.0806 39.8264V46.9251H371.878V39.8264C371.878 39.3834 371.703 38.9583 371.391 38.6437C371.079 38.3292 370.656 38.1506 370.213 38.1469Z" fill="#5A5773"/>
<path d="M47.6861 44.8056C48.9396 44.8056 49.9557 43.7895 49.9557 42.536C49.9557 41.2826 48.9396 40.2664 47.6861 40.2664C46.4326 40.2664 45.4165 41.2826 45.4165 42.536C45.4165 43.7895 46.4326 44.8056 47.6861 44.8056Z" fill="white"/>
<path d="M53.7965 44.8056C55.0499 44.8056 56.0661 43.7895 56.0661 42.536C56.0661 41.2826 55.0499 40.2664 53.7965 40.2664C52.543 40.2664 51.5269 41.2826 51.5269 42.536C51.5269 43.7895 52.543 44.8056 53.7965 44.8056Z" fill="white"/>
<path d="M59.9063 44.8056C61.1598 44.8056 62.1759 43.7895 62.1759 42.536C62.1759 41.2826 61.1598 40.2664 59.9063 40.2664C58.6529 40.2664 57.6367 41.2826 57.6367 42.536C57.6367 43.7895 58.6529 44.8056 59.9063 44.8056Z" fill="white"/>
<path opacity="0.2" d="M157.103 63.4339H68.3262V70.969H157.103V63.4339Z" fill="#4ABFB2"/>
<path opacity="0.1" d="M344.646 93.6477H68.3262V209.559H344.646V93.6477Z" fill="#5A5773"/>
<path opacity="0.1" d="M344.645 82.4917H316.677V89.0945H344.645V82.4917Z" fill="#5A5773"/>
<path d="M354.165 282.581C353.981 281.655 353.665 280.76 353.229 279.924L349.039 273.666H349.063C349.063 273.666 348.403 270.524 349.063 268.98C349.723 267.437 346.71 263.642 346.71 263.642C346.71 263.642 346.343 262.688 347.3 261.515C348.257 260.342 346.71 256.906 346.71 256.906C346.71 256.906 345.977 249.731 345.903 248.634C345.83 247.538 345.24 241.462 345.24 241.462L343.843 228.581L341.357 194.443L341.312 193.804C341.619 193.654 341.783 193.56 341.783 193.56L341.287 174.683L341.717 174.296C345.467 170.902 354.116 163.045 354.029 162.874C353.941 162.703 352.981 149.756 352.869 146.516C352.773 144.213 352.27 141.945 351.382 139.819C351.165 139.389 350.54 136.557 350.282 135.36C350.212 135.031 350.167 134.825 350.167 134.825C350.167 134.825 347.632 129.993 347.852 127.797C348.072 125.6 348.512 123.956 343.107 123.188C343.107 123.188 338.567 122.51 335.865 120.663C334.266 119.557 332.519 118.682 330.676 118.065C330.676 118.065 329.161 115.272 328.106 116.218C327.66 115.221 327.326 114.178 327.111 113.107L327.08 112.911C329.081 111.516 330.522 109.454 331.144 107.094C331.179 106.962 331.207 106.825 331.238 106.693C331.343 106.728 331.452 106.748 331.563 106.752C332.481 106.752 333.047 105.729 333.906 105.404C334.255 105.268 334.685 105.247 334.953 104.971C335.042 104.865 335.108 104.742 335.148 104.609C335.187 104.476 335.2 104.337 335.184 104.2C335.193 104.104 335.193 104.009 335.184 103.913C335.185 103.88 335.185 103.846 335.184 103.812V103.847C334.95 102.576 333.965 101.448 334.073 100.156C334.178 98.9411 335.247 97.8727 335.159 96.689C335.158 96.5954 335.15 96.502 335.135 96.4096V96.4515C335.005 95.9894 334.765 95.5654 334.437 95.2155C334.061 94.7034 333.567 94.289 332.998 94.0073C332.513 93.7943 331.95 93.7455 331.497 93.4906C330.163 92.7643 330.166 90.8718 329.374 89.5798C329.034 89.0405 328.552 88.6055 327.981 88.3227C327.41 88.0399 326.772 87.9203 326.137 87.9772C325.145 88.0749 324.248 88.6022 323.267 88.7733C321.926 89.0107 320.561 88.5742 319.29 88.0749C318.019 87.5756 316.73 87.0274 315.365 87.0274C314 87.0274 312.523 87.7257 312.111 89.0142C311.891 89.7125 311.999 90.4632 311.831 91.1721C311.531 92.4221 310.435 93.316 309.3 93.9375C308.601 94.3251 307.77 94.7685 307.554 95.5018C307.554 95.4808 307.554 95.4634 307.554 95.4459C307.538 95.5044 307.527 95.5639 307.519 95.624C307.512 95.7018 307.512 95.7801 307.519 95.8579C307.519 96.3608 307.784 96.8391 307.962 97.3175C308.294 98.2276 308.287 99.2268 307.941 100.132C307.683 100.795 307.243 101.378 306.992 102.038C306.873 102.346 306.796 102.667 306.761 102.995V102.939C306.753 103.088 306.753 103.237 306.761 103.386C306.757 103.896 306.877 104.399 307.11 104.853C307.271 105.166 307.492 105.443 307.761 105.669C308.03 105.895 308.342 106.065 308.678 106.169C309.377 106.33 309.813 105.645 310.55 105.82C310.682 105.852 310.811 105.892 310.937 105.942C310.962 106.099 310.986 106.256 311.014 106.41C311.46 108.76 312.712 110.88 314.555 112.405C314.555 112.489 314.583 112.573 314.593 112.66C314.816 114.052 314.913 115.462 314.883 116.871C314.883 116.871 313.783 115.261 312.275 118.369C312.275 118.369 308.34 120.639 306.981 120.897C305.623 121.155 300.801 122.835 300.801 122.835C300.074 123.361 299.198 123.643 298.301 123.641C296.796 123.641 295.546 126.934 295.727 128.725C295.909 130.517 295.619 131.837 294.219 131.91C292.819 131.983 293.584 134.822 293.594 134.871L293.465 135.482C293.192 136.732 292.599 139.414 292.389 139.833C291.502 141.96 290.997 144.227 290.898 146.53C290.79 149.77 289.851 162.668 289.743 162.888C289.669 163.031 295.595 168.447 299.76 172.232L300.364 172.777L298.448 190.682C298.503 191.372 298.708 192.042 299.048 192.645C299.388 193.247 299.855 193.769 300.417 194.174C300.417 194.384 300.417 194.597 300.396 194.817C300.312 196.912 300.144 199.447 299.809 200.11C299.223 201.283 299.369 207.575 299.369 207.575C299.369 207.575 298.779 220.383 298.046 221.776C297.313 223.169 297.163 226.092 297.383 226.664C297.603 227.237 296.646 242.618 296.646 242.618L295.913 249.5C295.913 249.5 296.133 256.086 295.469 256.232C294.806 256.379 294.439 260.918 294.439 260.918C294.439 260.918 292.089 264.137 293.116 265.307C294.142 266.477 292.966 266.994 292.857 267.284C292.749 267.573 290.616 268.68 292.159 272.772C292.173 272.813 292.189 272.853 292.208 272.891C290.762 274.899 286.181 281.376 286.46 282.361C286.667 282.987 287.104 283.512 287.683 283.827C288.762 284.473 290.612 284.774 293.556 283.827C298.444 282.252 298.095 281.118 298.095 281.118C298.12 280.587 298.348 280.086 298.731 279.719C299.114 279.351 299.624 279.144 300.155 279.141C302.177 278.995 303.685 277.13 303.685 277.13L303.448 276.247L303.123 275.025C303.161 274.675 303.409 274.064 304.52 273.726C306.213 273.212 305.77 269.993 305.77 269.993C305.77 269.993 305.623 266.627 306.356 266.187C307.09 265.747 306.8 260.185 306.8 260.185C306.8 260.185 307.61 256.159 308.783 253.449C309.956 250.74 311.36 234.643 311.36 234.643C311.36 234.643 312.313 226.738 313.197 224.468C314.08 222.199 314.89 215.833 314.89 215.833C314.89 215.833 320.334 205.292 320.403 202.949C320.403 202.949 321.102 200.752 321.8 203.169C322.498 205.585 324.461 211.367 324.461 211.367L326.371 218.466L328.651 229.077L330.124 238.009C330.124 238.009 329.901 241.375 330.474 242.548C331.046 243.721 331.87 246.424 331.43 246.937C330.99 247.451 332.31 249.867 332.68 250.377C333.05 250.886 332.68 261.721 332.68 261.721C332.68 261.721 334.37 270.943 336.797 272.546C336.966 272.657 337.146 272.75 337.335 272.825C337.3 273.824 337.265 275.161 337.31 275.859C337.305 276.015 337.331 276.171 337.387 276.317C337.607 276.61 340.107 278.586 340.624 278.586C341.141 278.586 342.974 279.868 343.051 280.489C343.127 281.111 348.424 283.743 349.175 283.82C349.926 283.897 353.564 284.55 354.064 283.527C354.187 283.228 354.222 282.899 354.165 282.581ZM341.151 150.692L341.528 151.017C341.528 151.017 341.916 154.037 342.192 154.941C342.468 155.846 342.136 157.605 342.136 157.605C342.161 158.262 342.292 158.911 342.523 159.526C342.852 160.186 341.86 161.621 341.86 161.621H340.977L340.701 150.315L341.151 150.692ZM314.883 116.934V116.868C314.876 116.889 314.873 116.913 314.873 116.934H314.883ZM301.318 160.458C301.182 160.166 301.162 159.832 301.262 159.526C301.34 159.36 301.402 159.187 301.447 159.009C301.555 158.55 301.623 158.083 301.649 157.612C301.65 157.607 301.65 157.601 301.649 157.595C301.618 157.427 301.335 155.807 301.597 154.948C301.859 154.089 302.257 151.023 302.257 151.023L302.508 150.811L303.092 150.304C303.092 150.304 303.092 150.116 303.133 149.805C303.256 152.459 303.353 155.392 303.196 155.538C302.903 155.828 301.834 158.681 302.093 158.793C302.177 158.831 302.061 159.973 301.866 161.509C301.646 161.179 301.463 160.827 301.318 160.458Z" fill="url(#paint1_linear)"/>
<path d="M329.461 119.724V124.067L320.55 128.547C320.55 128.547 311.702 123.195 313.884 121.065C315.281 119.717 315.012 116.016 314.635 113.47C314.415 111.99 314.16 110.904 314.16 110.904C314.16 110.904 330.054 106.365 327.652 109.811C326.849 110.963 326.786 112.454 327.055 113.931C327.6 116.861 329.461 119.724 329.461 119.724Z" fill="#FBBEBE"/>
<path d="M305.05 162.2L303.901 176.349C303.901 176.349 302.18 174.788 299.952 172.756C295.821 168.988 289.955 163.601 290.025 163.458C290.133 163.238 291.073 150.402 291.174 147.176C291.269 144.886 291.768 142.63 292.647 140.513C292.857 140.094 293.447 137.427 293.695 136.18C293.779 135.793 293.831 135.541 293.831 135.541L295.758 134.766C295.758 134.766 303.789 143.726 303.789 143.89C303.789 144.054 303.241 150.936 303.241 150.936L302.672 151.432L302.424 151.645C302.424 151.645 302.04 154.651 301.768 155.552C301.495 156.453 301.789 158.017 301.82 158.185C301.794 158.655 301.728 159.123 301.621 159.582C301.575 159.758 301.513 159.93 301.436 160.095C301.338 160.401 301.357 160.732 301.492 161.024C301.647 161.429 301.849 161.814 302.092 162.173L305.05 162.2Z" fill="#3F3D56"/>
<path d="M353.721 163.457C353.805 163.629 345.24 171.446 341.528 174.823L339.845 176.349L338.707 162.2H341.658C341.658 162.2 342.642 160.779 342.314 160.123C342.085 159.511 341.957 158.866 341.933 158.213C341.933 158.213 342.258 156.467 341.986 155.563C341.713 154.658 341.329 151.655 341.329 151.655L340.956 151.334L340.512 150.947C340.512 150.947 339.964 144.065 339.964 143.9C339.964 143.736 347.995 134.777 347.995 134.777L349.908 135.541C349.908 135.541 349.95 135.747 350.02 136.075C350.279 137.266 350.897 140.084 351.11 140.513C351.989 142.63 352.488 144.886 352.583 147.176C352.674 150.402 353.61 163.237 353.721 163.457Z" fill="#3F3D56"/>
<path d="M353.756 283.551C353.243 284.571 349.639 283.901 348.896 283.845C348.152 283.789 342.9 281.146 342.827 280.528C342.754 279.91 340.934 278.635 340.425 278.635C339.915 278.635 337.439 276.666 337.219 276.376C337.163 276.231 337.139 276.077 337.146 275.922C337.069 274.724 337.219 271.641 337.219 271.641L347.782 272.224L352.914 279.945C353.347 280.777 353.66 281.667 353.843 282.588C353.906 282.911 353.875 283.245 353.756 283.551Z" fill="#3F3D56"/>
<path opacity="0.1" d="M353.756 283.551C353.243 284.571 349.639 283.901 348.896 283.845C348.152 283.789 342.9 281.146 342.827 280.528C342.754 279.91 340.934 278.635 340.425 278.635C339.915 278.635 337.439 276.666 337.219 276.376C337.163 276.231 337.139 276.077 337.146 275.922C337.069 274.724 337.219 271.641 337.219 271.641L347.782 272.224L352.914 279.945C353.347 280.777 353.66 281.667 353.843 282.588C353.906 282.911 353.875 283.245 353.756 283.551Z" fill="black"/>
<path opacity="0.1" d="M353.756 283.551C353.243 284.571 349.639 283.901 348.895 283.845C348.152 283.789 342.9 281.146 342.827 280.528C342.753 279.91 340.934 278.635 340.425 278.635C339.915 278.635 337.439 276.666 337.219 276.376C337.163 276.231 337.138 276.077 337.146 275.922L340.568 278.087C340.568 278.087 342.753 279.484 343.337 280.311C343.92 281.139 348.515 282.86 348.895 282.895C349.178 282.923 352.195 282.343 353.843 282.588C353.905 282.911 353.875 283.245 353.756 283.551Z" fill="black"/>
<path d="M303.825 277.179C303.825 277.179 302.33 279.037 300.333 279.18C299.806 279.184 299.3 279.39 298.921 279.756C298.542 280.122 298.317 280.619 298.294 281.146C298.294 281.146 298.643 282.277 293.814 283.845C290.898 284.784 289.065 284.487 287.997 283.845C287.423 283.528 286.991 283.007 286.785 282.385C286.457 281.223 292.903 272.371 292.903 272.371L298.769 272.022L302.959 273.914L303.601 276.313L303.825 277.179Z" fill="#3F3D56"/>
<path opacity="0.1" d="M303.825 277.179C303.825 277.179 302.33 279.037 300.333 279.18C299.806 279.184 299.3 279.39 298.921 279.756C298.542 280.122 298.317 280.619 298.294 281.146C298.294 281.146 298.643 282.277 293.814 283.845C290.898 284.784 289.065 284.487 287.997 283.845C287.423 283.528 286.991 283.007 286.785 282.385C286.457 281.223 292.903 272.371 292.903 272.371L298.769 272.022L302.959 273.914L303.601 276.313L303.825 277.179Z" fill="black"/>
<path opacity="0.1" d="M303.824 277.179C303.824 277.179 302.329 279.037 300.332 279.18C299.805 279.184 299.299 279.39 298.92 279.756C298.54 280.122 298.316 280.619 298.293 281.146C298.293 281.146 298.642 282.277 293.813 283.845C290.897 284.784 289.064 284.487 287.996 283.845C290.744 283.558 296.816 281.823 297.423 281.222C298.153 280.493 299.064 278.488 299.682 278.454C300.112 278.426 302.294 277.113 303.604 276.299L303.824 277.179Z" fill="black"/>
<path d="M348.801 269.057C348.145 270.587 348.801 273.719 348.801 273.719C348.801 273.719 339.024 274.229 336.636 272.626C334.247 271.023 332.558 261.843 332.558 261.843C332.558 261.843 332.907 251.065 332.558 250.555C332.208 250.045 330.881 247.643 331.318 247.133C331.754 246.623 330.969 243.927 330.372 242.761C329.775 241.595 330.023 238.246 330.023 238.246L328.563 229.357L326.307 218.798L324.39 211.73C324.39 211.73 322.425 205.976 321.758 203.574C321.091 201.171 320.385 203.354 320.385 203.354C320.316 205.686 314.924 216.175 314.924 216.175C314.924 216.175 314.121 222.513 313.248 224.768C312.375 227.024 311.426 234.894 311.426 234.894C311.426 234.894 310.029 250.918 308.877 253.613C307.724 256.309 306.932 260.314 306.932 260.314C306.932 260.314 307.225 265.852 306.495 266.288C305.766 266.725 305.884 270.077 305.884 270.077C305.884 270.077 306.321 273.279 304.645 273.792C302.969 274.305 303.248 275.395 303.248 275.395C303.248 275.395 293.925 276.924 292.396 272.842C290.866 268.761 292.979 267.675 293.094 267.381C293.209 267.088 294.372 266.582 293.353 265.412C292.333 264.242 294.662 261.044 294.662 261.044C294.662 261.044 295.029 256.529 295.682 256.382C296.334 256.236 296.121 249.682 296.121 249.682L296.848 242.835C296.848 242.835 297.798 227.537 297.578 226.954C297.358 226.371 297.504 223.463 298.234 222.066C298.964 220.669 299.543 207.931 299.543 207.931C299.543 207.931 299.397 201.671 299.98 200.505C300.329 199.845 300.476 197.306 300.559 195.236C300.622 193.654 300.636 192.344 300.636 192.344L308.793 189.286L319.268 185.937L328.081 190.162L340.976 192.638L341.137 194.862L343.598 228.84L344.995 241.658C344.995 241.658 345.578 247.702 345.651 248.795C345.725 249.888 346.451 257.028 346.451 257.028C346.451 257.028 347.98 260.45 347.034 261.616C346.088 262.783 346.451 263.712 346.451 263.712C346.451 263.712 349.457 267.528 348.801 269.057Z" fill="#3F3D56"/>
<path opacity="0.1" d="M327.658 109.811C326.855 110.963 326.793 112.454 327.061 113.931C325.226 115.226 323.017 115.881 320.773 115.797C318.529 115.713 316.375 114.895 314.641 113.467C314.421 111.986 314.167 110.9 314.167 110.9C314.167 110.9 330.061 106.368 327.658 109.811Z" fill="black"/>
<path d="M331.374 105.355C331.374 107.379 330.774 109.357 329.649 111.039C328.525 112.722 326.927 114.033 325.058 114.807C323.189 115.582 321.131 115.784 319.147 115.39C317.162 114.995 315.339 114.02 313.909 112.59C312.478 111.159 311.503 109.336 311.109 107.351C310.714 105.367 310.917 103.31 311.691 101.44C312.465 99.5709 313.777 97.973 315.459 96.8489C317.141 95.7247 319.119 95.1247 321.143 95.1247C322.488 95.1182 323.821 95.3784 325.066 95.8903C326.31 96.4021 327.44 97.1555 328.391 98.1068C329.343 99.0581 330.096 100.188 330.608 101.433C331.12 102.677 331.38 104.01 331.374 105.355Z" fill="#FBBEBE"/>
<path opacity="0.1" d="M333.504 122.357L330.152 182.047L311.942 178.224L308.335 154.295L311.907 122.172L314.596 122.517L319.338 123.121L324.034 123.411L329.125 122.845L333.504 122.357Z" fill="black"/>
<path d="M333.504 122.793L330.152 182.484L311.942 178.66L308.335 154.732L311.907 122.611L314.596 122.954L319.338 123.558L324.034 123.848L329.125 123.282L333.504 122.793Z" fill="#4ABFB2"/>
<path d="M318.535 124.396L325.092 124.616L323.248 127.196C323.248 127.196 323.378 132.409 324.254 133.904C325.131 135.398 324.872 158.485 324.872 158.485L323.126 161.799L320.141 158.084L320.179 127.601L318.535 124.396Z" fill="#3F3D56"/>
<path opacity="0.1" d="M318.535 124.396L325.092 124.616L323.248 127.196C323.248 127.196 323.378 132.409 324.254 133.904C325.131 135.398 324.872 158.485 324.872 158.485L323.126 161.799L320.141 158.084L320.179 127.601L318.535 124.396Z" fill="black"/>
<path opacity="0.1" d="M328.804 117.622L322.687 124.396L326.182 128.038L331.975 122.392L328.804 117.622Z" fill="black"/>
<path d="M328.804 117.185L322.687 123.959L326.182 127.601L331.975 121.955L328.804 117.185Z" fill="#4ABFB2"/>
<path opacity="0.1" d="M320.103 124.068L313.908 117.877L313.325 121.117L316.167 128.219L320.103 124.068Z" fill="black"/>
<path d="M320.32 123.631L314.129 117.44L313.546 120.681L316.388 127.783L320.32 123.631Z" fill="#4ABFB2"/>
<path opacity="0.1" d="M341.168 194.872C338.195 196.289 335.011 197.21 331.74 197.599C325.731 198.364 321.8 190.717 321.8 190.717L319.506 193.703C318.776 196.873 307.669 197.673 303.154 196.472C302.217 196.24 301.336 195.824 300.563 195.246C300.626 193.664 300.64 192.355 300.64 192.355L308.796 189.296L319.272 185.948L328.085 190.173L340.98 192.648L341.168 194.872Z" fill="black"/>
<path opacity="0.1" d="M333.503 122.797L330.155 182.484L311.942 178.66L308.328 154.735L311.897 122.611L314.585 122.961C314.517 124.131 314.385 125.296 314.191 126.452C313.754 128.495 316.45 142.989 316.45 142.989C316.45 142.989 321.572 159.243 323.877 156.9C326.181 154.557 329.463 142.186 329.463 142.186C331.688 137.598 329.502 124.727 329.338 124.469C329.223 124.088 329.153 123.696 329.128 123.299L333.503 122.797Z" fill="black"/>
<path opacity="0.1" d="M341.371 168.985L341.525 174.834L339.842 176.359L338.707 162.201H341.221L341.371 168.985Z" fill="black"/>
<path opacity="0.1" d="M301.824 158.195C301.798 158.666 301.731 159.133 301.625 159.592C301.625 159.463 301.625 159.39 301.597 159.379C301.492 159.351 301.618 158.817 301.824 158.195Z" fill="black"/>
<path opacity="0.1" d="M305.05 162.2L303.901 176.349C303.901 176.349 302.179 174.788 299.952 172.756L300.217 170.249C300.217 170.249 301.156 164.089 301.498 161.052C301.654 161.457 301.855 161.842 302.099 162.2H305.05Z" fill="black"/>
<path d="M314.928 117.657C314.928 117.657 313.839 116.054 312.344 119.148C312.344 119.148 308.447 121.407 307.107 121.662C305.766 121.917 300.996 123.593 300.996 123.593C300.276 124.113 299.409 124.393 298.52 124.392C297.026 124.392 295.786 127.671 295.968 129.455C296.15 131.239 295.86 132.552 294.477 132.626C293.094 132.699 293.856 135.573 293.856 135.573L303.07 146.135C303.07 146.135 303.653 155.86 303.363 156.153C303.074 156.446 302.016 159.295 302.271 159.393C302.525 159.491 300.874 170.245 300.874 170.245L298.653 191.115C298.653 191.115 298.653 194.607 303.171 195.812C307.69 197.016 318.804 196.22 319.52 193.05L321.814 190.061C321.814 190.061 325.745 197.711 331.755 196.946C337.764 196.182 341.591 193.996 341.591 193.996L340.934 168.985L340.498 150.957L349.88 135.541C349.88 135.541 347.366 130.733 347.586 128.558C347.806 126.382 348.239 124.734 342.886 123.97C342.886 123.97 338.371 123.296 335.711 121.456C334.129 120.358 332.402 119.488 330.578 118.872C330.578 118.872 329.076 116.078 328.032 117.035C328.032 117.035 329.08 120.984 328.993 121.574C328.905 122.164 329.157 124.832 329.321 125.108C329.485 125.384 331.671 138.237 329.447 142.825C329.447 142.825 326.182 155.196 323.86 157.539C321.538 159.882 316.433 143.628 316.433 143.628C316.433 143.628 313.737 129.13 314.174 127.091C314.61 125.052 314.928 117.657 314.928 117.657Z" fill="#3F3D56"/>
<path d="M322.722 165.406C323.607 165.406 324.325 164.688 324.325 163.803C324.325 162.918 323.607 162.201 322.722 162.201C321.837 162.201 321.119 162.918 321.119 163.803C321.119 164.688 321.837 165.406 322.722 165.406Z" fill="#3F3D56"/>
<path d="M322.722 172.962C323.607 172.962 324.325 172.244 324.325 171.359C324.325 170.474 323.607 169.757 322.722 169.757C321.837 169.757 321.119 170.474 321.119 171.359C321.119 172.244 321.837 172.962 322.722 172.962Z" fill="#3F3D56"/>
<path opacity="0.1" d="M322.722 165.406C323.607 165.406 324.325 164.688 324.325 163.803C324.325 162.918 323.607 162.201 322.722 162.201C321.837 162.201 321.119 162.918 321.119 163.803C321.119 164.688 321.837 165.406 322.722 165.406Z" fill="black"/>
<path opacity="0.1" d="M322.722 172.962C323.607 172.962 324.325 172.244 324.325 171.359C324.325 170.474 323.607 169.757 322.722 169.757C321.837 169.757 321.119 170.474 321.119 171.359C321.119 172.244 321.837 172.962 322.722 172.962Z" fill="black"/>
<path opacity="0.1" d="M337.124 266.872C337.124 266.872 343.702 267.381 344.355 267.891C345.008 268.401 337.124 266.872 337.124 266.872Z" fill="black" stroke="#4ABFB2" stroke-width="0.349171" stroke-miterlimit="10"/>
<path opacity="0.1" d="M297.958 261.7C297.958 261.7 299.355 263.446 298.762 264.249C298.168 265.052 297.958 261.7 297.958 261.7Z" fill="black" stroke="#4ABFB2" stroke-width="0.349171" stroke-miterlimit="10"/>
<path opacity="0.1" d="M299.634 267.996C299.634 267.996 302.183 266.32 303.202 267.434C304.222 268.548 299.634 267.996 299.634 267.996Z" fill="black" stroke="#4ABFB2" stroke-width="0.349171" stroke-miterlimit="10"/>
<path opacity="0.1" d="M331.374 105.355C331.376 106.228 331.266 107.098 331.046 107.943C330.831 107.845 330.651 107.683 330.53 107.48C330.408 107.276 330.352 107.041 330.369 106.804C330.414 106.389 330.69 106.008 330.631 105.596C330.543 104.961 329.775 104.702 329.37 104.2C328.871 103.592 328.979 102.709 329.021 101.923C329.063 101.137 328.864 100.177 328.127 99.9084C327.907 99.8281 327.666 99.8211 327.453 99.7303C326.874 99.4859 326.695 98.7666 326.308 98.2707C325.533 97.2721 323.993 97.2931 322.816 97.7679C322.304 98.0135 321.78 98.2326 321.245 98.4244C320.977 98.5188 320.693 98.5567 320.41 98.5357C320.127 98.5146 319.851 98.4351 319.6 98.3022C319.37 98.1555 319.185 97.953 318.947 97.8063C318.158 97.3315 317.125 97.8063 316.44 98.4174C315.756 99.0284 315.208 99.849 314.345 100.223C313.958 100.397 313.479 100.502 313.298 100.879C313.208 101.084 313.17 101.309 313.186 101.532C313.186 102.89 313.347 104.27 313.064 105.6C312.882 106.455 312.282 107.426 311.412 107.321C311.304 107.305 311.197 107.278 311.094 107.241C310.833 105.842 310.866 104.405 311.191 103.02C311.516 101.635 312.127 100.333 312.984 99.197C313.841 98.0613 314.925 97.1168 316.168 96.4238C317.41 95.7308 318.784 95.3047 320.2 95.1725C321.617 95.0404 323.046 95.2051 324.395 95.6563C325.744 96.1075 326.985 96.8351 328.037 97.7927C329.089 98.7504 329.93 99.9169 330.506 101.218C331.082 102.519 331.38 103.926 331.381 105.348L331.374 105.355Z" fill="black"/>
<path d="M310.636 106.661C310.898 106.721 311.146 106.857 311.415 106.892C312.284 106.997 312.885 106.026 313.066 105.17C313.349 103.84 313.203 102.461 313.192 101.102C313.173 100.879 313.21 100.655 313.3 100.45C313.499 100.072 313.978 99.9677 314.348 99.7931C315.193 99.416 315.745 98.6129 316.443 97.9879C317.141 97.3629 318.157 96.902 318.946 97.3768C319.18 97.5165 319.369 97.726 319.599 97.8727C319.852 98.0037 320.128 98.0821 320.411 98.1031C320.694 98.1241 320.979 98.0873 321.248 97.9949C321.789 97.8343 322.295 97.5514 322.815 97.3384C323.982 96.8636 325.525 96.8461 326.307 97.8377C326.695 98.3371 326.873 99.0529 327.452 99.2973C327.665 99.3881 327.906 99.3985 328.126 99.4789C328.863 99.7547 329.052 100.708 329.02 101.494C328.989 102.279 328.884 103.163 329.369 103.77C329.774 104.266 330.542 104.524 330.63 105.167C330.686 105.579 330.413 105.963 330.368 106.375C330.357 106.528 330.378 106.682 330.427 106.827C330.477 106.972 330.554 107.106 330.656 107.221C330.758 107.336 330.881 107.43 331.019 107.497C331.157 107.564 331.308 107.603 331.461 107.611C332.369 107.611 332.931 106.595 333.779 106.27C334.128 106.134 334.551 106.113 334.827 105.837C334.929 105.705 335.002 105.551 335.039 105.388C335.077 105.225 335.078 105.055 335.043 104.891C334.872 103.554 333.8 102.391 333.915 101.05C334.024 99.7652 335.214 98.6443 334.963 97.3803C334.835 96.9143 334.595 96.4864 334.265 96.1338C333.89 95.6265 333.402 95.2139 332.84 94.9292C332.355 94.7196 331.792 94.6708 331.349 94.4159C330.029 93.6931 330.033 91.8076 329.254 90.5226C328.92 89.9916 328.446 89.5628 327.884 89.2831C327.323 89.0035 326.695 88.8839 326.07 88.9374C325.088 89.0351 324.198 89.5554 323.227 89.73C321.897 89.9674 320.549 89.531 319.289 89.0316C318.028 88.5323 316.754 87.9841 315.402 87.9841C314.051 87.9841 312.588 88.6825 312.176 89.9604C311.96 90.6588 312.068 91.406 311.9 92.1078C311.607 93.3544 310.504 94.2413 309.393 94.8593C308.628 95.2853 307.71 95.7741 307.619 96.6436C307.56 97.1953 307.864 97.6911 308.056 98.2253C308.382 99.1291 308.375 100.12 308.035 101.019C307.78 101.679 307.354 102.258 307.096 102.915C306.912 103.36 306.826 103.84 306.841 104.321C306.857 104.803 306.974 105.275 307.186 105.708C307.349 106.024 307.575 106.302 307.849 106.528C308.123 106.753 308.441 106.919 308.782 107.017C309.47 107.182 309.903 106.501 310.636 106.661Z" fill="#3F3D56"/>
<g opacity="0.1">
<path opacity="0.1" d="M313.067 104.409C312.885 105.265 312.281 106.235 311.412 106.131C311.143 106.096 310.898 105.959 310.633 105.9C309.903 105.739 309.47 106.424 308.782 106.249C308.441 106.151 308.123 105.985 307.848 105.76C307.573 105.534 307.347 105.255 307.183 104.94C307 104.584 306.89 104.196 306.858 103.798C306.789 104.416 306.902 105.041 307.183 105.596C307.347 105.912 307.573 106.191 307.848 106.416C308.123 106.641 308.441 106.808 308.782 106.906C309.481 107.066 309.903 106.382 310.633 106.557C310.888 106.646 311.148 106.721 311.412 106.784C312.281 106.892 312.885 105.921 313.067 105.066C313.21 104.31 313.266 103.54 313.234 102.772C313.231 103.322 313.175 103.87 313.067 104.409Z" fill="black"/>
<path opacity="0.1" d="M308.283 99.1506C308.327 98.5784 308.249 98.0034 308.052 97.4641C307.894 97.1055 307.76 96.7369 307.651 96.3607C307.636 96.4194 307.624 96.4788 307.616 96.5388C307.557 97.087 307.864 97.5863 308.052 98.1205C308.174 98.4522 308.252 98.7986 308.283 99.1506Z" fill="black"/>
<path opacity="0.1" d="M334.959 97.3105C334.795 98.3021 333.992 99.2344 333.912 100.278C333.893 100.457 333.893 100.637 333.912 100.816C334.087 99.5975 335.166 98.5186 334.959 97.3105Z" fill="black"/>
<path opacity="0.1" d="M335.019 104.678C334.99 104.824 334.921 104.959 334.82 105.069C334.562 105.345 334.122 105.366 333.773 105.502C332.924 105.827 332.376 106.853 331.454 106.843C331.218 106.829 330.992 106.745 330.805 106.6C330.618 106.456 330.479 106.258 330.407 106.033C330.385 106.108 330.369 106.185 330.358 106.263C330.348 106.416 330.368 106.569 330.418 106.714C330.468 106.859 330.546 106.993 330.647 107.107C330.749 107.222 330.872 107.315 331.01 107.382C331.148 107.449 331.298 107.487 331.451 107.496C332.362 107.496 332.921 106.48 333.769 106.158C334.118 106.022 334.544 106.001 334.817 105.725C334.919 105.593 334.992 105.44 335.029 105.276C335.067 105.113 335.068 104.943 335.033 104.779C335.03 104.737 335.023 104.709 335.019 104.678Z" fill="black"/>
<path opacity="0.1" d="M330.641 104.388C330.553 103.753 329.785 103.494 329.38 102.991C329.132 102.661 328.997 102.259 328.996 101.846C328.968 102.496 328.979 103.159 329.38 103.648C329.782 104.137 330.393 104.346 330.588 104.849C330.638 104.701 330.656 104.544 330.641 104.388Z" fill="black"/>
<path opacity="0.1" d="M329.017 100.732C329.045 99.9467 328.856 98.9865 328.119 98.7176C327.903 98.6373 327.662 98.6269 327.449 98.5396C326.869 98.2951 326.688 97.5759 326.304 97.08C325.525 96.0849 323.985 96.1024 322.812 96.5772C322.288 96.7902 321.789 97.073 321.244 97.2337C320.977 97.3281 320.692 97.366 320.409 97.3449C320.126 97.3239 319.85 97.2444 319.6 97.1115C319.369 96.9648 319.181 96.7623 318.947 96.6156C318.154 96.1408 317.121 96.6156 316.44 97.2267C315.759 97.8377 315.207 98.6548 314.345 99.0319C313.954 99.2065 313.479 99.3112 313.276 99.6883C313.187 99.8939 313.15 100.118 313.168 100.341C313.168 100.477 313.168 100.614 313.168 100.75C313.173 100.609 313.207 100.471 313.269 100.345C313.472 99.9677 313.947 99.8629 314.338 99.6883C315.183 99.3112 315.734 98.5081 316.433 97.8831C317.131 97.2581 318.147 96.7972 318.94 97.2721C319.174 97.4117 319.362 97.6212 319.593 97.7644C319.843 97.8982 320.119 97.9781 320.402 97.9992C320.685 98.0202 320.97 97.9819 321.237 97.8866C321.771 97.6966 322.294 97.4787 322.805 97.2337C323.975 96.7588 325.515 96.7378 326.297 97.733C326.681 98.2288 326.862 98.9481 327.442 99.1925C327.655 99.2833 327.896 99.2938 328.112 99.3741C328.709 99.5976 328.947 100.268 328.999 100.931L329.017 100.732Z" fill="black"/>
</g>
<g opacity="0.1">
<path opacity="0.1" d="M311.82 104.388C311.84 103.809 312.048 103.251 312.412 102.8C312.776 102.348 313.276 102.027 313.839 101.885C315.396 101.504 317.029 101.578 318.545 102.098C321.859 103.194 318.126 107.14 318.126 107.14C318.126 107.14 315.644 109.584 313.329 107.876C312.645 107.36 312.166 106.617 311.977 105.781C311.864 105.326 311.811 104.858 311.82 104.388Z" fill="black"/>
<path opacity="0.1" d="M330.036 104.388C330.016 103.808 329.808 103.25 329.443 102.799C329.079 102.347 328.577 102.027 328.015 101.885C326.459 101.505 324.827 101.579 323.311 102.098C319.998 103.194 323.73 107.14 323.73 107.14C323.73 107.14 326.209 109.584 328.528 107.876C329.212 107.36 329.69 106.617 329.879 105.781C329.993 105.326 330.045 104.858 330.036 104.388Z" fill="black"/>
<path opacity="0.1" d="M317.92 101.776V101.941H323.972V101.745L317.92 101.776Z" fill="black"/>
<path opacity="0.1" d="M319.851 103.526H320.043V102.971C320.043 102.971 320.658 102.492 321.677 102.971V103.466H322.027V103.142H321.855C321.855 103.142 321.925 102.468 320.787 102.576C320.787 102.576 319.872 102.489 319.893 103.068H319.684L319.851 103.526Z" fill="black"/>
</g>
<path d="M311.819 104.161C311.839 103.582 312.047 103.024 312.411 102.573C312.775 102.121 313.276 101.8 313.838 101.658C315.395 101.28 317.028 101.354 318.544 101.871C321.858 102.971 318.125 106.913 318.125 106.913C318.125 106.913 315.643 109.357 313.328 107.649C312.643 107.134 312.164 106.391 311.977 105.554C311.863 105.099 311.81 104.631 311.819 104.161Z" fill="#4ABFB2"/>
<path d="M330.036 104.161C330.016 103.581 329.808 103.023 329.443 102.572C329.079 102.12 328.577 101.8 328.015 101.658C326.459 101.28 324.827 101.353 323.311 101.871C319.998 102.971 323.73 106.913 323.73 106.913C323.73 106.913 326.209 109.357 328.528 107.649C329.213 107.134 329.692 106.391 329.879 105.554C329.993 105.099 330.046 104.631 330.036 104.161Z" fill="#4ABFB2"/>
<path d="M317.92 101.556V101.724H323.972V101.525L317.92 101.556Z" fill="#4ABFB2"/>
<path d="M319.851 103.306H320.043V102.751C320.043 102.751 320.658 102.276 321.677 102.751V103.25H322.027V102.922H321.855C321.855 102.922 321.925 102.251 320.787 102.356C320.787 102.356 319.872 102.272 319.893 102.848H319.684L319.851 103.306Z" fill="#4ABFB2"/>
<path d="M42.997 159.638H41.0137V204.297H42.997V159.638Z" fill="#535461"/>
<path d="M55.4625 204.16L55.3368 206.172L55.1622 209.01L55.0889 210.194L54.9143 213.036L54.8375 214.22L54.6629 217.059L52.6621 249.347C52.5768 250.736 51.9646 252.041 50.9505 252.995C49.9364 253.948 48.5967 254.479 47.2046 254.479H36.8063C35.4145 254.479 34.0752 253.948 33.0616 252.994C32.0481 252.04 31.4367 250.736 31.3522 249.347L29.341 217.059L29.1664 214.22L29.0931 213.036L28.922 210.187L28.8486 209.003L28.6741 206.165L28.5484 204.153C28.5245 203.767 28.58 203.381 28.7114 203.017C28.8427 202.653 29.0472 202.32 29.3122 202.038C29.5772 201.757 29.8971 201.532 30.2522 201.379C30.6072 201.226 30.9899 201.147 31.3766 201.147H52.6377C53.0249 201.147 53.4081 201.226 53.7634 201.38C54.1188 201.533 54.4388 201.759 54.7037 202.041C54.9685 202.324 55.1725 202.657 55.303 203.022C55.4335 203.387 55.4878 203.774 55.4625 204.16Z" fill="#3F3D56"/>
<path d="M55.3366 206.172L55.162 209.01H28.845L28.6704 206.172H55.3366Z" fill="#9D9CB5"/>
<path d="M55.0888 210.194L54.9143 213.036H29.0965L28.9185 210.194H55.0888Z" fill="#9D9CB5"/>
<path d="M54.8375 214.22L54.6629 217.059H29.348L29.1699 214.22H54.8375Z" fill="#9D9CB5"/>
<path d="M25.6438 176.377C37.1944 184.733 42.006 197.806 42.006 197.806C42.006 197.806 28.0845 197.327 16.5165 188.971C4.94842 180.616 0.154297 167.543 0.154297 167.543C0.154297 167.543 14.0897 168.021 25.6438 176.377Z" fill="#4ABFB2"/>
<path d="M0.170898 167.543C0.170898 167.543 14.6196 175.574 19.2531 182.208C23.8866 188.842 42.0051 197.809 42.0051 197.809" stroke="#535461" stroke-width="0.698342" stroke-miterlimit="10"/>
<path d="M33.0984 159.557C39.3835 164.097 42.0058 171.22 42.0058 171.22C42.0058 171.22 34.4288 170.961 28.1402 166.412C21.8516 161.862 19.2363 154.749 19.2363 154.749C19.2363 154.749 26.8133 154.99 33.0984 159.557Z" fill="#4ABFB2"/>
<path d="M19.2363 154.732C19.2363 154.732 27.0997 159.096 29.6207 162.71C32.1417 166.324 42.0058 171.202 42.0058 171.202" stroke="#535461" stroke-width="0.698342" stroke-miterlimit="10"/>
<path d="M51.1428 170.842C43.9185 178.779 42.3926 189.15 42.3926 189.15C42.3926 189.15 52.5744 186.653 59.7953 178.716C67.0161 170.78 68.5455 160.406 68.5455 160.406C68.5455 160.406 58.3637 162.902 51.1428 170.842Z" fill="#4ABFB2"/>
<path d="M68.5455 160.406C68.5455 160.406 59.1388 168.541 56.747 174.149C54.3552 179.757 42.3926 189.163 42.3926 189.163" stroke="#535461" stroke-width="0.698342" stroke-miterlimit="10"/>
<path opacity="0.1" d="M151.627 135.824H148.397V129.55C148.397 122.47 142.752 116.585 135.673 116.477C133.966 116.46 132.272 116.78 130.689 117.419C129.106 118.059 127.665 119.006 126.45 120.205C125.235 121.404 124.269 122.831 123.608 124.405C122.946 125.979 122.603 127.669 122.598 129.376V135.824H119.375C117.951 135.828 116.586 136.396 115.579 137.403C114.572 138.41 114.004 139.775 114 141.199V166.996C114.004 168.42 114.572 169.785 115.579 170.792C116.586 171.799 117.951 172.367 119.375 172.371H151.627C153.051 172.367 154.416 171.799 155.422 170.792C156.429 169.784 156.996 168.42 157 166.996V141.199C156.996 139.775 156.429 138.41 155.422 137.403C154.416 136.396 153.051 135.828 151.627 135.824ZM137.384 152.593V161.833C137.387 162.322 137.205 162.794 136.873 163.153C136.541 163.513 136.084 163.733 135.597 163.768C135.342 163.78 135.087 163.74 134.848 163.651C134.61 163.562 134.391 163.425 134.207 163.249C134.022 163.073 133.875 162.861 133.775 162.627C133.675 162.392 133.623 162.14 133.623 161.885V152.589C132.751 152.163 132.049 151.455 131.631 150.579C131.213 149.704 131.105 148.712 131.323 147.767C131.541 146.822 132.073 145.978 132.833 145.374C133.592 144.77 134.533 144.441 135.504 144.441C136.474 144.441 137.415 144.77 138.175 145.374C138.934 145.978 139.466 146.822 139.684 147.767C139.903 148.712 139.794 149.704 139.376 150.579C138.959 151.455 138.256 152.163 137.384 152.589V152.593ZM144.64 135.824H126.36V129.376C126.36 126.953 127.322 124.629 129.036 122.915C130.749 121.202 133.073 120.239 135.496 120.239C137.92 120.239 140.244 121.202 141.957 122.915C143.671 124.629 144.633 126.953 144.633 129.376L144.64 135.824Z" fill="black"/>
<path d="M151.627 135.347H148.397V129.073C148.397 121.993 142.752 116.108 135.673 116.001C133.966 115.983 132.272 116.303 130.689 116.943C129.106 117.582 127.665 118.529 126.45 119.728C125.235 120.927 124.269 122.354 123.608 123.928C122.946 125.502 122.603 127.192 122.598 128.899V135.347H119.375C117.951 135.351 116.586 135.919 115.579 136.926C114.572 137.933 114.004 139.298 114 140.722V166.519C114.004 167.943 114.572 169.308 115.579 170.315C116.586 171.322 117.951 171.89 119.375 171.894H151.627C153.051 171.89 154.416 171.322 155.422 170.315C156.429 169.308 156.996 167.943 157 166.519V140.722C156.996 139.298 156.429 137.934 155.422 136.926C154.416 135.919 153.051 135.351 151.627 135.347ZM137.384 152.117V161.356C137.387 161.845 137.205 162.317 136.873 162.677C136.541 163.036 136.084 163.256 135.597 163.291C135.342 163.303 135.087 163.263 134.848 163.174C134.61 163.085 134.391 162.948 134.207 162.772C134.022 162.596 133.875 162.385 133.775 162.15C133.675 161.916 133.623 161.663 133.623 161.408V152.112C132.751 151.686 132.049 150.978 131.631 150.103C131.213 149.227 131.105 148.235 131.323 147.29C131.541 146.345 132.073 145.501 132.833 144.897C133.592 144.293 134.533 143.965 135.504 143.965C136.474 143.965 137.415 144.293 138.175 144.897C138.934 145.501 139.466 146.345 139.684 147.29C139.903 148.235 139.794 149.227 139.376 150.103C138.959 150.978 138.256 151.686 137.384 152.112V152.117ZM144.64 135.347H126.36V128.899C126.36 126.476 127.322 124.152 129.036 122.438C130.749 120.725 133.073 119.762 135.496 119.762C137.92 119.762 140.244 120.725 141.957 122.438C143.671 124.152 144.633 126.476 144.633 128.899L144.64 135.347Z" fill="#4ABFB2"/>
<path d="M175.323 161.272V157.96L192.171 134.632H197.403V157.48H202.203V161.272H197.403V169H193.083V161.272H175.323ZM193.275 139.192L180.363 157.48H193.275V139.192ZM211.367 151.288C211.367 145.784 212.263 141.496 214.055 138.424C215.847 135.32 218.983 133.768 223.463 133.768C227.911 133.768 231.031 135.32 232.823 138.424C234.615 141.496 235.511 145.784 235.511 151.288C235.511 156.888 234.615 161.24 232.823 164.344C231.031 167.448 227.911 169 223.463 169C218.983 169 215.847 167.448 214.055 164.344C212.263 161.24 211.367 156.888 211.367 151.288ZM231.191 151.288C231.191 148.504 230.999 146.152 230.615 144.232C230.263 142.28 229.511 140.712 228.359 139.528C227.239 138.344 225.607 137.752 223.463 137.752C221.287 137.752 219.623 138.344 218.471 139.528C217.351 140.712 216.599 142.28 216.215 144.232C215.863 146.152 215.687 148.504 215.687 151.288C215.687 154.168 215.863 156.584 216.215 158.536C216.599 160.488 217.351 162.056 218.471 163.24C219.623 164.424 221.287 165.016 223.463 165.016C225.607 165.016 227.239 164.424 228.359 163.24C229.511 162.056 230.263 160.488 230.615 158.536C230.999 156.584 231.191 154.168 231.191 151.288ZM246.211 143.032C246.435 140.088 247.571 137.784 249.619 136.12C251.667 134.456 254.323 133.624 257.587 133.624C259.763 133.624 261.635 134.024 263.203 134.824C264.803 135.592 266.003 136.648 266.803 137.992C267.635 139.336 268.051 140.856 268.051 142.552C268.051 144.536 267.475 146.248 266.323 147.688C265.203 149.128 263.731 150.056 261.907 150.472V150.712C263.987 151.224 265.635 152.232 266.851 153.736C268.067 155.24 268.675 157.208 268.675 159.64C268.675 161.464 268.259 163.112 267.427 164.584C266.595 166.024 265.347 167.16 263.683 167.992C262.019 168.824 260.019 169.24 257.683 169.24C254.291 169.24 251.507 168.36 249.331 166.6C247.155 164.808 245.939 162.28 245.683 159.016H249.907C250.131 160.936 250.915 162.504 252.259 163.72C253.603 164.936 255.395 165.544 257.635 165.544C259.875 165.544 261.571 164.968 262.723 163.816C263.907 162.632 264.499 161.112 264.499 159.256C264.499 156.856 263.699 155.128 262.099 154.072C260.499 153.016 258.083 152.488 254.851 152.488H253.747V148.84H254.899C257.843 148.808 260.067 148.328 261.571 147.4C263.075 146.44 263.827 144.968 263.827 142.984C263.827 141.288 263.267 139.928 262.147 138.904C261.059 137.88 259.491 137.368 257.443 137.368C255.459 137.368 253.859 137.88 252.643 138.904C251.427 139.928 250.707 141.304 250.483 143.032H246.211Z" fill="#4ABFB2"/>
</g>
<defs>
<linearGradient id="paint0_linear" x1="206.464" y1="225.592" x2="206.464" y2="37.6232" gradientUnits="userSpaceOnUse">
<stop stop-color="#808080" stop-opacity="0.25"/>
<stop offset="0.54" stop-color="#808080" stop-opacity="0.12"/>
<stop offset="1" stop-color="#808080" stop-opacity="0.1"/>
</linearGradient>
<linearGradient id="paint1_linear" x1="64259.2" y1="168801" x2="64259.2" y2="57193.5" gradientUnits="userSpaceOnUse">
<stop stop-color="#808080" stop-opacity="0.25"/>
<stop offset="0.54" stop-color="#808080" stop-opacity="0.12"/>
<stop offset="1" stop-color="#808080" stop-opacity="0.1"/>
</linearGradient>
<clipPath id="clip0">
<rect width="400" height="286.289" fill="white"/>
</clipPath>
</defs>
</svg>
