<svg width="400" height="218" viewBox="0 0 400 218" fill="none" xmlns="http://www.w3.org/2000/svg">
<g clip-path="url(#clip0)">
<path d="M201.283 217.511C309.746 217.511 397.673 211.69 397.673 204.51C397.673 197.329 309.746 191.508 201.283 191.508C92.8194 191.508 4.89258 197.329 4.89258 204.51C4.89258 211.69 92.8194 217.511 201.283 217.511Z" fill="#F2F2F2"/>
<path d="M193.757 62.1783C161.76 62.1783 138.786 82.7069 138.786 130.607C138.786 184.894 161.76 199.264 193.757 199.264C225.754 199.264 250.097 183.525 250.097 130.607C250.097 74.0393 225.754 62.1783 193.757 62.1783ZM193.967 181.244C171.805 181.244 160.227 168.242 160.227 130.642C160.227 97.4654 172.279 79.9698 194.441 79.9698C216.604 79.9698 228.656 91.462 228.656 130.642C228.656 167.294 216.129 181.244 193.967 181.244Z" fill="#2F2E41"/>
<path d="M119.625 161.4H106.395V122.442C106.395 120.373 105.573 118.389 104.11 116.925C102.647 115.462 100.663 114.64 98.5934 114.64H95.4934C94.4688 114.64 93.4543 114.842 92.5077 115.234C91.5612 115.626 90.7011 116.201 89.9766 116.925C89.2521 117.65 88.6774 118.51 88.2854 119.457C87.8933 120.403 87.6915 121.418 87.6915 122.442V161.4H50.3754C49.6078 161.4 48.8531 161.201 48.1847 160.824C47.5163 160.446 46.9569 159.902 46.5607 159.245C46.1644 158.587 45.9448 157.839 45.9232 157.071C45.9016 156.304 46.0787 155.544 46.4374 154.865L85.9322 80.1139C86.4246 79.1819 86.7231 78.1599 86.8095 77.1094C86.896 76.0589 86.7688 75.0018 86.4354 74.0018C86.1021 73.0019 85.5696 72.0799 84.8701 71.2914C84.1705 70.5029 83.3185 69.8644 82.3654 69.4143L80.0339 68.3133C78.2236 67.4584 76.1538 67.3322 74.253 67.9608C72.3522 68.5893 70.7657 69.9245 69.8219 71.6901L21.6527 161.8C20.8325 163.334 20.4033 165.047 20.4033 166.787C20.4033 168.176 20.677 169.552 21.2086 170.836C21.7403 172.119 22.5196 173.285 23.5019 174.268C24.4843 175.25 25.6506 176.03 26.9341 176.561C28.2177 177.093 29.5933 177.366 30.9826 177.366H87.6915V202.001C87.6915 203.229 87.9334 204.445 88.4033 205.58C88.8733 206.714 89.5622 207.745 90.4306 208.614C91.299 209.482 92.3299 210.171 93.4645 210.641C94.5992 211.111 95.8153 211.353 97.0434 211.353H97.0434C98.2715 211.353 99.4876 211.111 100.622 210.641C101.757 210.171 102.788 209.482 103.656 208.614C104.525 207.745 105.213 206.714 105.683 205.58C106.153 204.445 106.395 203.229 106.395 202.001V177.367H119.625C121.742 177.367 123.773 176.525 125.27 175.028C126.767 173.531 127.608 171.5 127.608 169.383C127.608 167.266 126.767 165.235 125.27 163.738C123.773 162.241 121.742 161.4 119.625 161.4Z" fill="#4ABFB2"/>
<path d="M364.599 161.4H351.37V122.442C351.37 120.373 350.548 118.389 349.085 116.925C347.622 115.462 345.637 114.64 343.568 114.64H340.468C339.443 114.64 338.429 114.842 337.482 115.234C336.536 115.626 335.676 116.201 334.951 116.925C334.227 117.65 333.652 118.51 333.26 119.457C332.868 120.403 332.666 121.418 332.666 122.442V161.4H295.35C294.582 161.4 293.828 161.201 293.159 160.824C292.491 160.446 291.931 159.902 291.535 159.245C291.139 158.587 290.919 157.839 290.898 157.071C290.876 156.304 291.053 155.544 291.412 154.865L330.907 80.1139C331.399 79.182 331.698 78.1599 331.784 77.1094C331.871 76.0589 331.743 75.0018 331.41 74.0018C331.077 73.0019 330.544 72.0799 329.845 71.2914C329.145 70.5029 328.293 69.8644 327.34 69.4143L325.009 68.3133C323.198 67.4584 321.128 67.3322 319.228 67.9608C317.327 68.5893 315.74 69.9245 314.797 71.6901L266.627 161.8C265.807 163.334 265.378 165.047 265.378 166.787C265.378 169.593 266.493 172.284 268.477 174.268C270.461 176.252 273.151 177.366 275.957 177.366H332.666V202.001C332.666 204.481 333.651 206.86 335.405 208.614C337.159 210.367 339.538 211.353 342.018 211.353C344.498 211.353 346.877 210.367 348.631 208.614C350.385 206.86 351.37 204.481 351.37 202.001V177.367H364.599C366.717 177.367 368.747 176.525 370.244 175.028C371.742 173.531 372.583 171.5 372.583 169.383C372.583 167.266 371.742 165.235 370.244 163.738C368.747 162.241 366.717 161.4 364.599 161.4Z" fill="#4ABFB2"/>
<path d="M123.276 156.838H110.047V117.88C110.047 116.856 109.845 115.841 109.453 114.895C109.061 113.948 108.486 113.088 107.762 112.364C107.037 111.639 106.177 111.064 105.23 110.672C104.284 110.28 103.269 110.078 102.245 110.078H99.1448C97.0756 110.078 95.0911 110.9 93.628 112.364C92.1648 113.827 91.3428 115.811 91.3428 117.88V156.838H54.0268C53.2591 156.838 52.5045 156.64 51.8361 156.262C51.1677 155.884 50.6083 155.34 50.212 154.683C49.8158 154.025 49.5962 153.277 49.5746 152.509C49.553 151.742 49.7301 150.982 50.0887 150.303L89.5836 75.552C90.076 74.6201 90.3744 73.598 90.4609 72.5475C90.5474 71.497 90.4202 70.4399 90.0868 69.44C89.7535 68.44 89.221 67.518 88.5215 66.7295C87.8219 65.941 86.9699 65.3025 86.0168 64.8524L83.6853 63.7514C81.8749 62.8966 79.8052 62.7703 77.9044 63.3989C76.0036 64.0274 74.4171 65.3626 73.4733 67.1282L25.3041 157.238C24.4838 158.772 24.0547 160.485 24.0547 162.225V162.225C24.0547 165.031 25.1693 167.722 27.1533 169.706C29.1373 171.69 31.8282 172.805 34.634 172.805H91.3428V197.439C91.3428 198.667 91.5847 199.883 92.0547 201.018C92.5247 202.152 93.2135 203.183 94.082 204.052C94.9504 204.92 95.9813 205.609 97.1159 206.079C98.2505 206.549 99.4666 206.791 100.695 206.791H100.695C103.175 206.791 105.554 205.806 107.308 204.052C109.061 202.298 110.047 199.919 110.047 197.439V172.805H123.276C124.325 172.805 125.363 172.598 126.331 172.197C127.3 171.796 128.18 171.208 128.921 170.466C129.663 169.725 130.251 168.845 130.652 167.876C131.053 166.908 131.26 165.87 131.26 164.821V164.821C131.26 163.773 131.053 162.735 130.652 161.766C130.251 160.798 129.663 159.918 128.921 159.176C128.18 158.435 127.3 157.847 126.331 157.446C125.363 157.044 124.325 156.838 123.276 156.838V156.838Z" stroke="#3F3D56" stroke-miterlimit="10"/>
<path d="M371.443 156.838H358.214V117.88C358.214 115.811 357.392 113.827 355.929 112.364C354.465 110.9 352.481 110.078 350.412 110.078H347.312C346.287 110.078 345.273 110.28 344.326 110.672C343.38 111.064 342.519 111.639 341.795 112.364C341.071 113.088 340.496 113.948 340.104 114.895C339.712 115.841 339.51 116.856 339.51 117.88V156.838H302.194C301.426 156.838 300.672 156.64 300.003 156.262C299.335 155.884 298.775 155.34 298.379 154.683C297.983 154.025 297.763 153.277 297.742 152.509C297.72 151.742 297.897 150.982 298.256 150.303L337.751 75.552C338.243 74.6201 338.541 73.598 338.628 72.5475C338.714 71.497 338.587 70.4399 338.254 69.44C337.92 68.44 337.388 67.518 336.688 66.7295C335.989 65.941 335.137 65.3025 334.184 64.8524L331.852 63.7514C330.042 62.8966 327.972 62.7703 326.071 63.3989C324.171 64.0274 322.584 65.3626 321.64 67.1282L273.471 157.238C272.651 158.772 272.222 160.485 272.222 162.225C272.222 165.031 273.336 167.722 275.32 169.706C277.304 171.69 279.995 172.805 282.801 172.805H339.51V197.439C339.51 199.919 340.495 202.298 342.249 204.052C344.003 205.806 346.381 206.791 348.862 206.791V206.791C351.342 206.791 353.721 205.806 355.475 204.052C357.228 202.298 358.214 199.919 358.214 197.439V172.805H371.443C372.492 172.805 373.53 172.598 374.498 172.197C375.467 171.796 376.347 171.208 377.088 170.466C377.83 169.725 378.418 168.845 378.819 167.876C379.22 166.908 379.427 165.87 379.427 164.821V164.821C379.427 162.704 378.585 160.673 377.088 159.176C375.591 157.679 373.561 156.838 371.443 156.838V156.838Z" stroke="#3F3D56" stroke-miterlimit="10"/>
<path d="M201.056 58.0726C169.059 58.0726 146.085 78.6012 146.085 126.501C146.085 180.788 169.059 195.158 201.056 195.158C233.053 195.158 257.396 179.419 257.396 126.501C257.396 69.9335 233.053 58.0726 201.056 58.0726ZM201.266 177.138C179.104 177.138 167.526 164.136 167.526 126.536C167.526 93.3596 179.578 75.864 201.74 75.864C223.902 75.864 235.955 87.3562 235.955 126.536C235.955 163.189 223.428 177.138 201.266 177.138V177.138Z" stroke="#3F3D56" stroke-miterlimit="10"/>
<path d="M175.409 11.5979C178.061 11.5979 180.212 9.44744 180.212 6.79473C180.212 4.14202 178.061 1.99158 175.409 1.99158C172.756 1.99158 170.605 4.14202 170.605 6.79473C170.605 9.44744 172.756 11.5979 175.409 11.5979Z" fill="#2F2E41"/>
<path d="M187.122 34.9107C194.562 34.9107 200.594 27.0957 200.594 17.4554C200.594 7.81503 194.562 0 187.122 0C179.681 0 173.649 7.81503 173.649 17.4554C173.649 27.0957 179.681 34.9107 187.122 34.9107Z" fill="#2F2E41"/>
<path opacity="0.1" d="M187.122 29.6389C180.373 29.6389 174.783 23.2091 173.802 14.8195C173.7 15.6944 173.649 16.5745 173.649 17.4553C173.649 27.0957 179.681 34.9107 187.122 34.9107C194.562 34.9107 200.594 27.0957 200.594 17.4553C200.594 16.5745 200.543 15.6944 200.441 14.8195C199.46 23.2091 193.871 29.6389 187.122 29.6389Z" fill="black"/>
<path d="M214.537 68.5741C214.248 69.7631 213.001 70.7152 211.619 71.3805C208.714 72.7792 205.132 73.1966 201.656 73.3367C200.77 73.3905 199.88 73.3741 198.996 73.2875C197.283 73.1218 195.677 72.3831 194.435 71.1909C194.347 71.1332 194.274 71.0539 194.225 70.9606C194.175 70.8672 194.15 70.7628 194.151 70.657C194.153 70.5513 194.181 70.4477 194.234 70.3559C194.286 70.2641 194.361 70.1871 194.452 70.1321C196.302 68.0998 199.389 66.8536 202.5 65.9563C204.858 65.276 208.971 63.5137 211.543 63.7515C214.034 63.9819 214.903 67.0729 214.537 68.5741Z" fill="#3F3D56"/>
<path opacity="0.1" d="M214.537 68.5741C214.248 69.7631 213.001 70.7152 211.619 71.3805C208.714 72.7792 205.132 73.1966 201.656 73.3367C200.77 73.3905 199.88 73.3741 198.996 73.2875C197.283 73.1218 195.677 72.3831 194.435 71.1909C194.347 71.1332 194.274 71.0539 194.225 70.9606C194.175 70.8672 194.15 70.7628 194.151 70.657C194.153 70.5513 194.181 70.4477 194.234 70.3559C194.286 70.2641 194.361 70.1871 194.452 70.1321C196.302 68.0998 199.389 66.8536 202.5 65.9563C204.858 65.276 208.971 63.5137 211.543 63.7515C214.034 63.9819 214.903 67.0729 214.537 68.5741Z" fill="black"/>
<path d="M177.606 59.6882C176.719 61.4259 176.559 63.4446 177.16 65.3006C177.771 67.1426 178.915 68.7618 180.447 69.9532C184.205 72.9658 189.378 73.3803 194.194 73.3385C198.415 73.3018 202.63 73.0128 206.817 72.4733C208.22 72.349 209.599 72.0289 210.913 71.5223C212.485 70.8422 213.866 69.5947 214.426 67.9758C214.986 66.357 214.588 64.3747 213.259 63.2944C212.091 62.3451 210.481 62.2146 208.979 62.1243L200.383 61.6077C201.232 60.7483 202.363 60.2622 203.397 59.6374C204.769 58.8085 205.681 57.4168 206.678 56.1621C208.215 54.325 209.888 52.6055 211.681 51.018C211.961 52.6227 212.976 53.9405 214.171 55.0478C215.366 56.1551 216.743 57.0465 217.985 58.1007C220.993 60.6541 223.158 64.1197 226.322 66.4777C228.498 65.9059 230.532 64.8903 232.297 63.4947L231.067 61.2678C230.965 61.0387 230.805 60.8396 230.604 60.6897C230.256 60.4756 229.807 60.5859 229.403 60.5254C228.323 60.3634 227.852 59.1166 227.428 58.1101C226.264 55.347 224.037 53.2032 222.134 50.886C220.73 49.1755 219.485 47.3408 218.413 45.4046C217.774 44.2499 217.189 43.0475 216.322 42.0527C215.454 41.0579 214.239 40.2757 212.919 40.2729C211.753 40.2704 210.678 40.8625 209.675 41.458C206.621 43.2719 203.683 45.2736 200.877 47.4517C199.409 48.5915 197.95 49.7959 196.228 50.4948C195.502 50.7891 194.738 50.9902 194.042 51.3483C192.824 51.9754 191.899 53.0364 190.903 53.9783C187.353 57.3376 182.491 59.5142 177.606 59.6882Z" fill="#3F3D56"/>
<path d="M195.579 35.7776C195.539 36.8045 195.321 37.8166 194.934 38.7685C194.738 39.2433 194.446 39.6725 194.076 40.0295C193.707 40.3864 193.268 40.6634 192.786 40.8432C192.103 41.0263 191.387 41.0495 190.693 40.9112C190.088 40.848 189.505 40.6494 188.987 40.3301C188.181 39.776 187.779 38.7872 187.633 37.8196C187.487 36.8531 187.552 35.8655 187.458 34.892C187.367 34.1057 187.218 33.3272 187.011 32.563C186.948 32.3088 186.883 32.0558 186.82 31.8027C186.758 31.5497 186.697 31.2967 186.641 31.0436C186.589 30.8058 186.541 30.5668 186.5 30.3267C186.466 30.124 186.436 29.9201 186.413 29.7151C186.393 29.1073 186.292 28.505 186.112 27.9239C185.944 27.547 185.733 27.1906 185.484 26.8614C185.378 26.7091 185.275 26.5568 185.18 26.3986C184.905 25.9876 184.778 25.4959 184.818 25.0034C184.829 24.9272 184.848 24.8523 184.873 24.7796C184.882 24.7515 184.893 24.7234 184.905 24.6964C185.01 24.6678 185.107 24.6139 185.187 24.5394C185.266 24.4649 185.327 24.372 185.363 24.2688C185.403 24.0472 185.384 23.8188 185.308 23.6069C185.22 23.3108 185.1 23.0252 184.95 22.7552C184.852 22.5772 184.518 22.2562 184.516 22.0523C184.511 21.6423 185.312 21.3119 185.637 21.1503C186.627 20.6543 187.732 20.4303 188.837 20.5013C189.546 20.5493 190.315 20.7672 190.706 21.3611C191.057 21.8965 191.01 22.59 191.16 23.2121C191.176 23.3025 191.214 23.3875 191.272 23.4593C191.348 23.529 191.444 23.5732 191.547 23.5858C191.721 23.6203 191.898 23.6275 192.074 23.6069H192.075C192.122 23.6032 192.168 23.5966 192.214 23.587C192.487 23.5365 192.746 23.4248 192.97 23.2601C193.116 23.2215 193.262 23.1898 193.41 23.1652C193.416 23.1646 193.422 23.1635 193.427 23.1617C194.014 25.0139 194.09 26.9996 194.571 28.8857C194.808 29.8241 195.149 30.7507 195.197 31.716C195.201 31.7582 195.202 31.8015 195.203 31.8449C195.21 32.1553 195.186 32.4681 195.199 32.7774C195.203 32.9167 195.219 33.0554 195.245 33.1921C195.298 33.4121 195.363 33.6288 195.441 33.8411L195.445 33.8517C195.467 33.9196 195.488 33.9887 195.506 34.0579C195.518 34.1082 195.53 34.1574 195.54 34.2078L195.541 34.2113C195.627 34.729 195.64 35.2563 195.579 35.7776Z" fill="#FBBEBE"/>
<path d="M187.356 23.6644C191.174 23.6644 194.268 20.5698 194.268 16.7525C194.268 12.9352 191.174 9.84064 187.356 9.84064C183.539 9.84064 180.444 12.9352 180.444 16.7525C180.444 20.5698 183.539 23.6644 187.356 23.6644Z" fill="#FBBEBE"/>
<path d="M231.24 54.4116C231.039 52.5258 230.369 50.7205 229.29 49.1609C229.469 50.227 229.649 51.2926 229.829 52.3579C229.605 52.4227 229.367 52.4207 229.145 52.3522C228.922 52.2838 228.724 52.1518 228.576 51.9725C228.284 51.6091 228.062 51.1959 227.918 50.753C227.133 48.8036 226.106 46.9605 224.862 45.2668C220.462 44.9002 216.112 43.0761 212.242 40.9498C208.372 38.8247 204.75 36.2767 200.93 34.0614C200.268 33.6612 199.579 33.3088 198.866 33.0071C197.671 32.5279 196.33 32.2795 195.197 31.7161C195.121 31.6786 195.045 31.6387 194.97 31.5977C194.714 31.4585 194.472 31.2958 194.246 31.1116C194.124 31.0125 194.008 30.9061 193.899 30.7929C193.334 30.1353 192.886 29.3856 192.574 28.5764C191.966 27.2316 191.749 25.609 191.143 24.2641C191.421 24.0035 191.735 23.7823 192.074 23.6069H192.075C192.124 23.5812 192.173 23.5565 192.224 23.5331C192.464 23.42 192.714 23.3287 192.97 23.2602C193.115 23.2215 193.262 23.1899 193.409 23.1653C193.415 23.1647 193.421 23.1635 193.427 23.1618C194.112 23.0502 194.813 23.1057 195.471 23.3234C196.434 23.6491 197.246 24.2993 198.056 24.9143C199.371 25.8408 200.632 26.8413 201.834 27.911C202.501 28.5506 203.111 29.2535 203.829 29.8346C204.426 30.2952 205.055 30.7122 205.711 31.0823C209.597 33.3972 213.483 35.7116 217.37 38.0258C218.686 38.8095 220.002 39.5932 221.289 40.4227C223.243 41.6832 225.127 43.0492 227.009 44.414C228.119 45.2176 229.228 46.0216 230.336 46.8261C230.7 47.0581 231.019 47.3533 231.279 47.6977C231.509 48.0887 231.652 48.5246 231.698 48.9758C231.976 50.7985 231.819 52.6611 231.24 54.4116Z" fill="#FBBEBE"/>
<path d="M197.292 40.9756C196.826 43.0667 194.712 44.3308 193.608 46.1677C192.235 48.4474 192.795 51.0974 193.31 53.7086C192.368 54.5205 191.426 55.3323 190.483 56.1442C189.963 56.5905 189.443 57.0392 188.883 57.434C188.066 57.9811 187.213 58.4712 186.329 58.9007C185.495 59.3295 184.661 59.7587 183.827 60.1882C183.051 60.6242 182.23 60.9723 181.377 61.2262C179.733 61.6479 177.988 61.3527 176.362 60.8642C176.17 60.8139 175.986 60.7387 175.814 60.6404C175.712 60.5799 175.624 60.4999 175.554 60.4049C175.393 60.1175 175.335 59.7843 175.388 59.4595C175.554 56.7229 176.223 54.0437 176.889 51.3844C177.245 49.789 177.724 48.2235 178.322 46.7019C178.908 45.3981 179.581 44.1354 180.338 42.9226C181.173 41.3967 182.162 39.9603 183.29 38.6361C183.839 38.1264 184.301 37.5305 184.658 36.8718C185.074 35.9229 184.914 34.8346 184.998 33.8013C185.063 33.025 185.269 32.2671 185.606 31.5649V31.5638C185.787 31.1856 186.004 30.8261 186.255 30.4907C186.369 30.7554 186.483 31.0198 186.596 31.2838C186.671 31.4571 186.745 31.6302 186.819 31.8028C186.915 32.0253 187.01 32.2472 187.105 32.4682C187.378 33.1031 187.65 33.7377 187.922 34.3719C188.216 35.1706 188.636 35.9176 189.164 36.5848C189.406 36.9265 189.732 37.1997 190.11 37.3777C190.489 37.5557 190.908 37.6325 191.325 37.6005C191.742 37.5685 192.144 37.4289 192.491 37.1952C192.838 36.9615 193.119 36.6419 193.305 36.2673C193.699 35.5683 193.984 34.8134 194.151 34.0286C194.383 33.073 194.414 32.08 194.245 31.1116C193.963 29.2465 193.169 27.3417 192.593 25.609C192.358 25.0313 192.223 24.4183 192.191 23.7956C192.192 23.7256 192.199 23.6558 192.212 23.587C192.216 23.5695 192.219 23.5507 192.223 23.5331C192.463 23.4201 192.713 23.3287 192.969 23.2602C193.114 23.2215 193.261 23.1899 193.408 23.1653C193.916 25.9113 194.424 28.6573 194.933 31.4033C194.944 31.4677 194.957 31.5321 194.969 31.5977C195.042 31.9914 195.115 32.385 195.197 32.7774C195.271 33.1336 195.351 33.4885 195.44 33.8412L195.443 33.8517C195.474 33.9712 195.505 34.0895 195.538 34.2079L195.539 34.2114C195.63 34.5347 195.73 34.8557 195.844 35.172C196.533 37.078 197.734 38.9969 197.292 40.9756Z" fill="#4ABFB2"/>
<path d="M225.343 70.3626C225.322 70.7654 225.4 71.1674 225.571 71.5329C226.003 72.3234 227.041 72.5032 227.939 72.5771C233.186 73.0084 238.464 72.8475 243.675 72.0977C243.958 72.0783 244.232 71.9932 244.476 71.8491C245.217 71.3297 244.76 70.0639 243.951 69.6586C243.142 69.2534 242.182 69.3511 241.295 69.1756C240.413 68.9536 239.573 68.5894 238.808 68.0973C237.008 67.0632 235.235 65.985 233.487 64.8627C232.447 64.1946 231.219 63.4815 230.047 63.8777C226.873 64.9514 225.323 66.9387 225.343 70.3626Z" fill="#3F3D56"/>
<path d="M186.667 30.8971V30.8983C186.658 30.9475 186.65 30.9955 186.64 31.0436C186.627 31.1232 186.612 31.2041 186.596 31.2837C186.451 32.0276 186.273 32.768 186.068 33.5037C185.506 35.5363 184.752 37.536 184.005 39.5065C181.999 44.7899 179.993 50.0738 177.987 55.358C177.481 56.6889 176.976 58.0209 176.401 59.3247C176.209 59.7594 176.011 60.1975 175.814 60.6403C175.109 62.2254 174.432 63.862 174.207 65.5489C173.997 66.6592 173.973 67.7965 174.135 68.9147C174.36 70.0206 175.031 71.1007 176.082 71.5095C176.595 71.7099 177.33 71.9781 177.189 72.5112C177.113 72.804 176.78 72.947 176.482 72.9962C176.087 73.059 175.684 73.0343 175.3 72.9238C174.916 72.8132 174.561 72.6196 174.26 72.3565C173.699 71.8587 173.268 71.0843 172.522 71.0011C172.005 70.9449 171.53 71.2542 171.056 71.4709C169.126 72.353 166.877 71.7356 164.849 71.1089C165.008 70.2877 165.833 69.7464 166.652 69.5824C167.47 69.4172 168.317 69.5344 169.153 69.5121C169.42 69.5264 169.686 69.4581 169.913 69.3165C170.117 69.1294 170.26 68.8853 170.323 68.6159C170.861 67.0217 171.261 65.3841 171.519 63.7214C171.789 61.9841 171.901 60.2198 172.285 58.5035C172.584 57.1645 173.046 55.8677 173.442 54.5532C174.207 51.8469 174.836 49.1037 175.325 46.334C175.573 45.1833 175.75 44.0186 175.856 42.8464C175.923 41.8741 175.891 40.897 175.985 39.9282C176.142 38.6678 176.405 37.4228 176.771 36.2064C177.129 34.8791 177.488 33.5525 177.845 32.2268C178.376 30.2645 178.945 28.2261 180.29 26.7008C180.757 26.1638 181.33 25.7285 181.972 25.4218C182.614 25.1151 183.313 24.9436 184.024 24.9178C184.29 24.9175 184.556 24.9461 184.817 25.0033C184.86 25.0138 184.904 25.0244 184.947 25.0361C185.231 25.1103 185.503 25.2231 185.756 25.3712C186.171 25.1076 186.382 25.2001 186.657 25.6066C186.899 26.0368 187.012 26.5269 186.985 27.0195C187.009 28.3194 186.902 29.6184 186.667 30.8971Z" fill="#FBBEBE"/>
<path d="M187.122 32.4506L187.104 32.4682L187.01 32.5631L186.068 33.5038L185.606 31.5649L184.023 24.9178C184.29 24.9175 184.556 24.9462 184.817 25.0034C184.828 24.9272 184.846 24.8523 184.872 24.7796L184.947 25.0362L185.483 26.8614L186.499 30.3267L186.666 30.8972V30.8984L187.122 32.4506Z" fill="#4ABFB2"/>
<path d="M193.099 11.2446C193.099 11.8601 192.977 12.4694 192.74 13.0377C192.504 13.606 192.158 14.1221 191.722 14.5565C191.564 14.7147 191.395 14.861 191.215 14.9945C190.407 15.6039 189.422 15.9338 188.41 15.9342H182.79C181.548 15.9323 180.357 15.4376 179.48 14.5588C178.602 13.68 178.109 12.4888 178.109 11.2469C178.109 10.005 178.602 8.81381 179.48 7.93496C180.357 7.05612 181.548 6.56143 182.79 6.55951H188.41C189.652 6.56274 190.842 7.05724 191.721 7.93504C192.599 8.81283 193.095 10.0026 193.099 11.2446Z" fill="#2F2E41"/>
<path d="M198.369 11.5979C201.021 11.5979 203.172 9.44744 203.172 6.79473C203.172 4.14202 201.021 1.99158 198.369 1.99158C195.716 1.99158 193.565 4.14202 193.565 6.79473C193.565 9.44744 195.716 11.5979 198.369 11.5979Z" fill="#2F2E41"/>
<path opacity="0.1" d="M198.253 1.99158C198.194 1.99158 198.136 1.99392 198.077 1.99602C199.32 2.04119 200.496 2.56654 201.359 3.46154C202.222 4.35654 202.705 5.5514 202.705 6.79473C202.705 8.03807 202.222 9.23293 201.359 10.1279C200.496 11.0229 199.32 11.5483 198.077 11.5934C198.136 11.5955 198.194 11.5979 198.253 11.5979C199.527 11.5979 200.748 11.0918 201.649 10.1911C202.55 9.29031 203.056 8.06861 203.056 6.79473C203.056 5.52086 202.55 4.29916 201.649 3.39839C200.748 2.49762 199.527 1.99158 198.253 1.99158Z" fill="black"/>
<path opacity="0.1" d="M175.408 1.99158C175.467 1.99158 175.526 1.99392 175.584 1.99602C174.342 2.04119 173.165 2.56654 172.302 3.46154C171.439 4.35654 170.957 5.5514 170.957 6.79473C170.957 8.03807 171.439 9.23293 172.302 10.1279C173.165 11.0229 174.342 11.5483 175.584 11.5934C175.526 11.5955 175.467 11.5979 175.408 11.5979C174.135 11.5968 172.915 11.0902 172.015 10.1896C171.115 9.28894 170.609 8.06788 170.609 6.79473C170.609 5.52159 171.115 4.30053 172.015 3.39988C172.915 2.49924 174.135 1.9927 175.408 1.99158Z" fill="black"/>
<path opacity="0.1" d="M191.215 14.9945C190.406 15.6039 189.422 15.9338 188.409 15.9343H182.789C181.777 15.9338 180.792 15.6039 179.983 14.9945H191.215Z" fill="black"/>
<path d="M227.509 49.7978C227.509 49.7978 228.72 53.2869 229.828 52.3579L228.945 47.7972L227.509 49.7978Z" fill="#FBBEBE"/>
<path d="M374.859 156.2C375.986 156.61 377.194 156.752 378.386 156.616C379.579 156.48 380.723 156.068 381.729 155.414C382.735 154.76 383.576 153.881 384.184 152.847C384.793 151.813 385.153 150.651 385.236 149.454C385.319 148.257 385.123 147.057 384.663 145.949C384.203 144.84 383.493 143.854 382.586 143.067C381.68 142.28 380.604 141.715 379.442 141.415C378.28 141.115 377.064 141.089 375.891 141.339L376.084 145.327L374.198 141.91C372.346 142.78 370.915 144.349 370.22 146.274C369.973 146.948 369.823 147.654 369.774 148.37C369.655 150.05 370.087 151.724 371.005 153.137C371.922 154.55 373.275 155.625 374.859 156.2Z" fill="#57B894"/>
<path d="M384.196 202.456C383.53 199.064 386.416 196.057 389.267 194.103C392.118 192.148 395.449 190.228 396.422 186.911C397.82 182.144 393.656 177.779 390.415 174.014C388.01 171.22 385.945 168.151 384.263 164.871C383.589 163.556 382.969 162.181 382.791 160.714C382.536 158.601 383.215 156.498 383.899 154.483C386.177 147.768 388.613 141.11 391.206 134.509" stroke="#3F3D56" stroke-miterlimit="10"/>
<path d="M375.179 155.173C376.307 155.583 377.514 155.726 378.707 155.589C379.899 155.453 381.043 155.041 382.049 154.387C383.055 153.733 383.896 152.855 384.505 151.82C385.113 150.786 385.473 149.625 385.556 148.428C385.639 147.23 385.443 146.03 384.984 144.922C384.524 143.813 383.813 142.827 382.907 142.04C382.001 141.253 380.924 140.688 379.762 140.388C378.6 140.088 377.384 140.062 376.211 140.312L376.405 144.301L374.518 140.883C372.666 141.753 371.235 143.323 370.54 145.247C370.293 145.921 370.143 146.627 370.095 147.343C369.975 149.024 370.407 150.697 371.325 152.11C372.242 153.523 373.595 154.598 375.179 155.173V155.173Z" stroke="#3F3D56" stroke-miterlimit="10"/>
<path d="M383.249 133.131C383.691 131.91 384.434 130.82 385.409 129.961C386.384 129.103 387.559 128.503 388.826 128.218L389.464 132.009L390.647 128.027C392.289 128.052 393.881 128.597 395.193 129.585C396.505 130.574 397.469 131.953 397.946 133.525C398.423 135.096 398.388 136.779 397.846 138.33C397.304 139.88 396.284 141.218 394.932 142.151C393.58 143.084 391.966 143.563 390.324 143.519C388.683 143.475 387.097 142.91 385.797 141.907C384.497 140.903 383.55 139.512 383.092 137.935C382.634 136.357 382.689 134.675 383.249 133.131H383.249Z" fill="#57B894"/>
<path d="M383.674 131.762C384.116 130.541 384.859 129.451 385.834 128.592C386.808 127.734 387.983 127.134 389.251 126.849L389.889 130.64L391.072 126.658C392.714 126.683 394.306 127.228 395.618 128.216C396.93 129.204 397.894 130.584 398.371 132.156C398.847 133.727 398.812 135.41 398.271 136.961C397.729 138.511 396.708 139.849 395.356 140.782C394.005 141.715 392.391 142.194 390.749 142.15C389.107 142.106 387.522 141.541 386.222 140.538C384.922 139.534 383.974 138.143 383.516 136.566C383.058 134.988 383.113 133.306 383.674 131.762H383.674Z" stroke="#3F3D56" stroke-miterlimit="10"/>
<path d="M389.054 174.091C390.842 174.74 392.807 174.708 394.574 174.001C396.34 173.294 397.785 171.962 398.632 170.258C399.48 168.555 399.671 166.599 399.169 164.764C398.667 162.929 397.507 161.342 395.911 160.307L395.002 163.367L394.358 159.531C394.351 159.528 394.345 159.525 394.338 159.524C393.381 159.176 392.366 159.02 391.349 159.065C390.332 159.11 389.334 159.355 388.412 159.786C387.489 160.217 386.661 160.825 385.974 161.576C385.287 162.327 384.755 163.206 384.408 164.163C384.061 165.12 383.906 166.136 383.951 167.153C383.997 168.17 384.242 169.168 384.674 170.09C385.105 171.012 385.714 171.839 386.466 172.526C387.217 173.212 388.096 173.744 389.054 174.091H389.054Z" fill="#57B894"/>
<path d="M389.424 172.704C391.212 173.353 393.177 173.321 394.944 172.614C396.71 171.907 398.155 170.575 399.002 168.872C399.85 167.168 400.041 165.213 399.539 163.377C399.037 161.542 397.878 159.956 396.281 158.92L395.372 161.98L394.728 158.144C394.721 158.141 394.715 158.139 394.708 158.137C393.751 157.789 392.736 157.633 391.719 157.678C390.702 157.723 389.704 157.968 388.782 158.399C387.859 158.83 387.031 159.439 386.344 160.19C385.657 160.941 385.125 161.82 384.778 162.777C384.431 163.734 384.276 164.749 384.321 165.766C384.367 166.783 384.612 167.781 385.044 168.703C385.475 169.625 386.084 170.453 386.836 171.139C387.587 171.826 388.467 172.358 389.424 172.704H389.424Z" stroke="#3F3D56" stroke-miterlimit="10"/>
<path d="M380.987 186.959C381.295 188.709 382.195 190.299 383.536 191.465C384.877 192.63 386.578 193.298 388.354 193.358C390.13 193.418 391.872 192.865 393.289 191.793C394.705 190.721 395.71 189.194 396.135 187.469C396.559 185.743 396.378 183.925 395.621 182.317C394.863 180.71 393.576 179.412 391.976 178.641C390.375 177.87 388.558 177.673 386.829 178.082C385.1 178.492 383.565 179.484 382.48 180.891L385.933 186.087L381.216 183.329C380.85 184.503 380.771 185.748 380.987 186.959Z" fill="#57B894"/>
<path d="M381.308 185.932C381.615 187.682 382.515 189.273 383.856 190.438C385.197 191.603 386.899 192.272 388.674 192.331C390.45 192.391 392.192 191.839 393.609 190.766C395.026 189.694 396.03 188.167 396.455 186.442C396.88 184.717 396.698 182.898 395.941 181.291C395.184 179.683 393.897 178.385 392.296 177.614C390.695 176.843 388.878 176.646 387.149 177.056C385.421 177.465 383.885 178.457 382.801 179.864L386.253 185.06L381.536 182.302C381.17 183.476 381.092 184.721 381.308 185.932V185.932Z" stroke="#3F3D56" stroke-miterlimit="10"/>
<path d="M3.35421 175.075C4.09521 175.345 4.88864 175.438 5.67198 175.349C6.45532 175.259 7.20714 174.989 7.8682 174.559C8.52926 174.129 9.08148 173.552 9.48133 172.873C9.88118 172.193 10.1177 171.43 10.1724 170.643C10.227 169.857 10.0982 169.068 9.79605 168.34C9.49396 167.612 9.02683 166.964 8.43151 166.447C7.83618 165.93 7.12893 165.558 6.36549 165.361C5.60205 165.164 4.80329 165.147 4.03218 165.312L4.15961 167.932L2.91988 165.686C1.70317 166.258 0.763201 167.289 0.306549 168.554C0.144373 168.997 0.0457817 169.46 0.013717 169.931C-0.0645349 171.035 0.219238 172.134 0.822033 173.063C1.42483 173.991 2.31379 174.698 3.35421 175.075Z" fill="#57B894"/>
<path d="M9.48836 205.467C9.05074 203.238 10.947 201.262 12.8202 199.978C14.6933 198.694 16.8819 197.433 17.521 195.253C18.4395 192.121 15.7036 189.253 13.5741 186.78C11.9942 184.944 10.6375 182.928 9.53224 180.773C9.05174 179.926 8.72447 179.001 8.56549 178.041C8.39758 176.653 8.8436 175.271 9.29293 173.947C10.7898 169.536 12.3903 165.161 14.0942 160.824" stroke="#3F3D56" stroke-miterlimit="10"/>
<path d="M3.56418 174.401C4.30517 174.67 5.09861 174.764 5.88194 174.674C6.66528 174.585 7.4171 174.314 8.07816 173.885C8.73921 173.455 9.29143 172.877 9.69128 172.198C10.0911 171.518 10.3277 170.755 10.3823 169.969C10.4369 169.182 10.3081 168.394 10.006 167.665C9.70391 166.937 9.23679 166.289 8.64147 165.772C8.04614 165.255 7.33889 164.884 6.57545 164.687C5.81201 164.49 5.01326 164.473 4.24214 164.637L4.36957 167.257L3.12984 165.012C1.91313 165.583 0.973161 166.615 0.51651 167.879C0.354336 168.322 0.255746 168.786 0.22368 169.256C0.145422 170.36 0.429194 171.46 1.03199 172.388C1.63479 173.317 2.52375 174.023 3.56418 174.401V174.401Z" stroke="#3F3D56" stroke-miterlimit="10"/>
<path d="M8.86582 159.919C9.15661 159.117 9.64468 158.4 10.285 157.836C10.9254 157.272 11.6975 156.878 12.5301 156.691L12.9492 159.182L13.7264 156.565C14.8054 156.581 15.8514 156.94 16.7133 157.589C17.5753 158.238 18.2087 159.145 18.522 160.177C18.8353 161.21 18.8123 162.316 18.4563 163.334C18.1004 164.353 17.4299 165.232 16.5416 165.845C15.6534 166.458 14.5934 166.773 13.5147 166.744C12.4359 166.715 11.3943 166.344 10.5401 165.684C9.68593 165.025 9.06344 164.111 8.7625 163.075C8.46155 162.038 8.49773 160.933 8.86582 159.919Z" fill="#57B894"/>
<path d="M9.14609 159.019C9.43689 158.217 9.92495 157.501 10.5653 156.937C11.2057 156.372 11.9777 155.978 12.8103 155.791L13.2295 158.282L14.0066 155.666C15.0856 155.682 16.1316 156.04 16.9936 156.69C17.8556 157.339 18.489 158.245 18.8022 159.278C19.1155 160.31 19.0925 161.416 18.7366 162.435C18.3806 163.453 17.7101 164.333 16.8219 164.946C15.9337 165.558 14.8737 165.873 13.7949 165.844C12.7162 165.815 11.6746 165.444 10.8204 164.785C9.96621 164.125 9.34371 163.212 9.04277 162.175C8.74183 161.139 8.77801 160.034 9.14609 159.019V159.019Z" stroke="#3F3D56" stroke-miterlimit="10"/>
<path d="M12.6806 186.83C13.8558 187.256 15.1467 187.235 16.3073 186.771C17.4679 186.306 18.4171 185.431 18.9739 184.312C19.5307 183.193 19.6562 181.908 19.3265 180.702C18.9968 179.496 18.2349 178.454 17.1861 177.774L16.589 179.784L16.1655 177.264C16.1613 177.262 16.157 177.26 16.1526 177.259C15.524 177.03 14.8565 176.928 14.1884 176.957C13.5202 176.987 12.8643 177.148 12.2583 177.431C11.6524 177.714 11.1081 178.114 10.6567 178.607C10.2052 179.101 9.85549 179.678 9.62741 180.307C9.39932 180.936 9.29738 181.603 9.3274 182.272C9.35741 182.94 9.51881 183.595 9.80236 184.201C10.0859 184.807 10.486 185.351 10.9799 185.802C11.4738 186.253 12.0517 186.602 12.6806 186.83Z" fill="#57B894"/>
<path d="M12.921 185.919C14.0962 186.345 15.3871 186.324 16.5477 185.86C17.7083 185.395 18.6575 184.52 19.2143 183.401C19.7711 182.282 19.8967 180.997 19.5669 179.791C19.2372 178.585 18.4754 177.543 17.4265 176.863L16.8294 178.873L16.406 176.353C16.4018 176.351 16.3974 176.349 16.393 176.348C15.7646 176.12 15.0974 176.018 14.4295 176.048C13.7617 176.078 13.1063 176.239 12.5007 176.522C11.2777 177.094 10.332 178.128 9.87155 179.397C9.41114 180.667 9.47377 182.067 10.0457 183.29C10.6176 184.513 11.6519 185.458 12.921 185.919V185.919Z" stroke="#3F3D56" stroke-miterlimit="10"/>
<path d="M7.37899 195.284C7.58104 196.434 8.17228 197.479 9.05354 198.245C9.93479 199.01 11.0525 199.45 12.2192 199.489C13.3858 199.528 14.5305 199.165 15.4613 198.461C16.3921 197.756 17.0523 196.753 17.3312 195.619C17.6101 194.486 17.4909 193.291 16.9933 192.235C16.4958 191.179 15.6503 190.326 14.5986 189.82C13.547 189.313 12.3531 189.183 11.2172 189.453C10.0813 189.722 9.07253 190.373 8.36001 191.298L10.6282 194.712L7.529 192.9C7.2887 193.671 7.23725 194.489 7.37899 195.284Z" fill="#57B894"/>
<path d="M7.58895 194.61C7.79101 195.759 8.38224 196.805 9.2635 197.57C10.1448 198.336 11.2624 198.775 12.4291 198.814C13.5958 198.854 14.7405 198.491 15.6713 197.786C16.602 197.082 17.2622 196.078 17.5412 194.945C17.8201 193.811 17.7008 192.616 17.2033 191.56C16.7058 190.504 15.8603 189.652 14.8086 189.145C13.7569 188.638 12.563 188.509 11.4272 188.778C10.2913 189.047 9.28249 189.699 8.56997 190.623L10.8382 194.037L7.73896 192.225C7.49866 192.997 7.44721 193.814 7.58895 194.61V194.61Z" stroke="#3F3D56" stroke-miterlimit="10"/>
<path d="M179.059 126.999C182.554 126.999 185.388 123.331 185.388 118.808C185.388 114.284 182.554 110.617 179.059 110.617C175.563 110.617 172.729 114.284 172.729 118.808C172.729 123.331 175.563 126.999 179.059 126.999Z" fill="#2F2E41"/>
<path d="M213.496 127.185C216.992 127.185 219.825 123.518 219.825 118.994C219.825 114.47 216.992 110.803 213.496 110.803C210.001 110.803 207.167 114.47 207.167 118.994C207.167 123.518 210.001 127.185 213.496 127.185Z" fill="#2F2E41"/>
<path d="M208.656 143.194C208.656 146.894 203.488 149.895 197.115 149.895C190.741 149.895 185.573 146.894 185.573 143.194C185.573 139.988 189.449 137.308 194.628 136.652C195.452 136.544 196.283 136.49 197.115 136.492C198.508 136.488 199.898 136.638 201.258 136.939C205.585 137.903 208.656 140.342 208.656 143.194Z" fill="#2F2E41"/>
<path d="M180.548 125.137C184.043 125.137 186.877 121.47 186.877 116.946C186.877 112.423 184.043 108.756 180.548 108.756C177.052 108.756 174.219 112.423 174.219 116.946C174.219 121.47 177.052 125.137 180.548 125.137Z" stroke="#3F3D56" stroke-miterlimit="10"/>
<path d="M214.985 125.323C218.481 125.323 221.315 121.656 221.315 117.133C221.315 112.609 218.481 108.942 214.985 108.942C211.49 108.942 208.656 112.609 208.656 117.133C208.656 121.656 211.49 125.323 214.985 125.323Z" stroke="#3F3D56" stroke-miterlimit="10"/>
<path d="M198.604 148.034C204.978 148.034 210.145 145.033 210.145 141.332C210.145 137.631 204.978 134.631 198.604 134.631C192.23 134.631 187.062 137.631 187.062 141.332C187.062 145.033 192.23 148.034 198.604 148.034Z" stroke="#3F3D56" stroke-miterlimit="10"/>
<path d="M201.395 137.498C201.398 137.966 201.222 138.417 200.903 138.76C200.753 138.925 200.57 139.056 200.366 139.146C200.162 139.236 199.942 139.284 199.719 139.285H195.996C195.538 139.269 195.104 139.072 194.79 138.737C194.476 138.402 194.307 137.956 194.321 137.498C194.319 137.135 194.425 136.779 194.626 136.477C195.45 136.361 196.281 136.304 197.113 136.306C198.509 136.302 199.899 136.461 201.257 136.783C201.349 137.01 201.396 137.253 201.395 137.498Z" fill="white"/>
<path d="M180.548 116.574C181.576 116.574 182.41 115.741 182.41 114.713C182.41 113.684 181.576 112.851 180.548 112.851C179.52 112.851 178.687 113.684 178.687 114.713C178.687 115.741 179.52 116.574 180.548 116.574Z" fill="white"/>
<path d="M215.172 116.574C216.2 116.574 217.034 115.741 217.034 114.713C217.034 113.684 216.2 112.851 215.172 112.851C214.144 112.851 213.311 113.684 213.311 114.713C213.311 115.741 214.144 116.574 215.172 116.574Z" fill="white"/>
<path opacity="0.3" d="M217.033 134.072C218.061 134.072 218.895 133.239 218.895 132.211C218.895 131.183 218.061 130.349 217.033 130.349C216.005 130.349 215.172 131.183 215.172 132.211C215.172 133.239 216.005 134.072 217.033 134.072Z" fill="#4ABFB2"/>
<path opacity="0.3" d="M171.612 134.072C172.641 134.072 173.474 133.239 173.474 132.211C173.474 131.183 172.641 130.349 171.612 130.349C170.584 130.349 169.751 131.183 169.751 132.211C169.751 133.239 170.584 134.072 171.612 134.072Z" fill="#4ABFB2"/>
</g>
<defs>
<clipPath id="clip0">
<rect width="400" height="217.511" fill="white"/>
</clipPath>
</defs>
</svg>
