<svg width="400" height="262" viewBox="0 0 400 262" fill="none" xmlns="http://www.w3.org/2000/svg">
<g clip-path="url(#clip0)">
<path d="M122.791 244.9C125.497 239.022 128.202 233.056 129.376 226.687C130.551 220.318 130.058 213.406 126.694 207.882C123.33 202.358 116.707 198.612 110.386 199.861C105.194 200.886 101.026 204.998 98.5849 209.718C96.144 214.438 95.1647 219.762 94.2154 224.996C93.9086 219.05 93.5838 213.008 91.6195 207.392C89.6552 201.775 85.7873 196.54 80.2749 194.367C74.7625 192.193 67.5915 193.903 64.6861 199.091C60.593 206.4 66.0204 216.652 61.3138 223.577C60.5064 216.631 53.2821 211.142 46.4159 212.259C39.5498 213.376 34.4153 220.876 35.8278 227.724C36.6682 231.799 39.4331 235.265 42.7388 237.769C46.0444 240.274 49.8891 243.176 53.6923 244.817L122.791 244.9Z" fill="#F2F2F2"/>
<path d="M39.4317 217.167C44.8857 219.084 50.3899 221.023 55.3692 224.02C59.8318 226.706 63.8057 230.323 66.3155 234.954C67.6906 237.439 68.507 240.197 68.7072 243.033C68.7435 243.626 69.6664 243.63 69.6299 243.033C69.3073 237.751 66.7474 232.917 63.2027 229.094C59.3163 224.903 54.28 222.041 49.0803 219.82C45.9973 218.503 42.8377 217.383 39.677 216.273C39.1153 216.075 38.8738 216.971 39.4317 217.167H39.4317Z" fill="white"/>
<path d="M70.8913 195.288C74.2422 200.901 76.9255 206.891 78.8861 213.135C80.8507 219.376 82.0881 225.825 82.5737 232.353C82.8424 236.008 82.8718 239.676 82.6615 243.334C82.6273 243.931 83.5501 243.929 83.5842 243.334C83.9564 236.738 83.5595 230.122 82.4014 223.619C81.2451 217.117 79.3448 210.771 76.7382 204.708C75.2751 201.303 73.5879 197.999 71.688 194.819C71.6241 194.718 71.5233 194.645 71.407 194.616C71.2908 194.588 71.168 194.606 71.0646 194.666C70.9613 194.727 70.8855 194.826 70.8531 194.942C70.8208 195.058 70.8344 195.182 70.8913 195.288Z" fill="white"/>
<path d="M116.051 200.617C111.311 211.326 107.976 222.609 106.129 234.182C105.61 237.433 105.208 240.7 104.924 243.982C104.872 244.577 105.795 244.574 105.847 243.982C106.851 232.435 109.333 221.066 113.231 210.157C114.326 207.09 115.532 204.066 116.848 201.086C117.087 200.545 116.292 200.072 116.051 200.617Z" fill="white"/>
<path d="M279.695 257.538L279.621 251.778L252.616 252.129L252.69 257.889L279.695 257.538Z" fill="#E6E6E6"/>
<path d="M289.291 258.823L285.434 258.812L283.05 254.535L285.627 250.272L289.211 250.283C288.313 249.135 287.081 248.298 285.687 247.89C284.293 247.481 282.806 247.522 281.436 248.006C280.066 248.49 278.881 249.393 278.048 250.589C277.214 251.784 276.773 253.212 276.786 254.672C276.8 256.132 277.268 257.551 278.124 258.73C278.981 259.909 280.182 260.79 281.561 261.247C282.94 261.705 284.427 261.718 285.813 261.283C287.199 260.848 288.415 259.988 289.291 258.823V258.823Z" fill="#E6E6E6"/>
<path d="M243.02 258.823L246.876 258.812L249.26 254.535L246.683 250.272L243.1 250.283C243.997 249.135 245.23 248.298 246.624 247.89C248.018 247.481 249.504 247.522 250.874 248.006C252.244 248.49 253.429 249.393 254.263 250.589C255.097 251.784 255.538 253.212 255.524 254.672C255.51 256.132 255.042 257.551 254.186 258.73C253.33 259.909 252.128 260.79 250.749 261.247C249.37 261.705 247.884 261.718 246.497 261.283C245.111 260.848 243.895 259.988 243.02 258.823V258.823Z" fill="#E6E6E6"/>
<path d="M399.42 245.4H0.57971C0.425961 245.4 0.278509 245.339 0.169793 245.229C0.061076 245.12 0 244.972 0 244.817C0 244.663 0.061076 244.514 0.169793 244.405C0.278509 244.296 0.425961 244.234 0.57971 244.234H399.42C399.574 244.234 399.721 244.296 399.83 244.405C399.939 244.514 400 244.663 400 244.817C400 244.972 399.939 245.12 399.83 245.229C399.721 245.339 399.574 245.4 399.42 245.4Z" fill="#3F3D56"/>
<path d="M313.326 134.641C323.891 134.641 332.456 126.029 332.456 115.404C332.456 104.78 323.891 96.1672 313.326 96.1672C302.76 96.1672 294.195 104.78 294.195 115.404C294.195 126.029 302.76 134.641 313.326 134.641Z" fill="#2F2E41"/>
<path d="M321.077 223.398L322.551 230.389L350.07 228.002L347.895 217.683L321.077 223.398Z" fill="#FFB8B8"/>
<path d="M318.937 245.249L314.306 223.276L322.749 221.477L325.59 234.96C326.065 237.212 325.63 239.561 324.382 241.49C323.135 243.42 321.176 244.772 318.937 245.249L318.937 245.249Z" fill="#2F2E41"/>
<path d="M303.837 223.025L300.74 229.458L274.593 220.505L279.164 211.012L303.837 223.025Z" fill="#FFB8B8"/>
<path d="M296.7 233.162L302.674 220.757L310.441 224.539L300.707 244.755C299.687 244.258 298.774 243.564 298.021 242.713C297.267 241.862 296.688 240.869 296.316 239.793C295.944 238.716 295.786 237.577 295.852 236.439C295.918 235.301 296.206 234.188 296.7 233.162Z" fill="#2F2E41"/>
<path d="M252.324 210.321C253.219 210.489 254.14 210.457 255.021 210.228C255.903 209.999 256.724 209.578 257.426 208.996C258.129 208.414 258.695 207.683 259.087 206.857C259.478 206.03 259.685 205.127 259.692 204.212L302.807 164.239L292.1 155.9L253.063 197.838C251.533 197.929 250.089 198.58 249.005 199.67C247.92 200.759 247.271 202.211 247.18 203.75C247.089 205.288 247.562 206.807 248.51 208.018C249.458 209.229 250.815 210.049 252.324 210.321H252.324Z" fill="#FFB8B8"/>
<path d="M310.925 135.51C318.788 135.51 325.163 129.1 325.163 121.192C325.163 113.285 318.788 106.875 310.925 106.875C303.061 106.875 296.687 113.285 296.687 121.192C296.687 129.1 303.061 135.51 310.925 135.51Z" fill="#FFB8B8"/>
<path d="M323.702 205.354C313.715 205.355 301.686 203.239 294.265 194.583L294.098 194.388L294.27 194.197C294.326 194.135 299.785 187.861 294.334 176.673L286.84 178.992L279.379 169.088L283.512 156.62L300.427 142.918C302.85 140.966 305.801 139.79 308.896 139.544C314.499 138.999 319.956 137.436 325.003 134.931C327.313 133.803 329.857 133.243 332.424 133.3L332.756 133.309C333.537 133.331 334.305 133.512 335.014 133.842C335.723 134.171 336.358 134.642 336.88 135.226C337.403 135.81 337.802 136.494 338.054 137.237C338.306 137.981 338.405 138.768 338.345 139.551C337.198 154.492 335.173 190.583 341.123 203.011L341.276 203.332L340.933 203.419C335.278 204.699 329.499 205.348 323.702 205.354Z" fill="#4ABFB2"/>
<path d="M296.224 194.393C296.224 194.393 258.543 190.895 254.485 201.971C250.427 213.047 255.064 218.293 262.021 220.625C268.977 222.957 285.789 225.872 285.789 225.872L293.325 216.545L313.035 217.71C313.035 217.71 334.998 230.52 341.07 244.219C342.373 247.184 344.45 249.738 347.082 251.61C349.713 253.482 352.8 254.602 356.013 254.851C360.882 255.192 365.209 253.343 365.209 245.692C365.209 228.203 340.861 203.137 340.861 203.137L296.224 194.393Z" fill="#2F2E41"/>
<path d="M267.528 211.589C267.528 211.589 277.383 208.675 293.036 216.253L267.528 211.589Z" fill="#2F2E41"/>
<path d="M296.72 112.062C302.28 115.475 308.549 117.552 315.038 118.131L313.107 115.805C314.513 116.327 315.993 116.623 317.49 116.68C318.24 116.702 318.985 116.546 319.664 116.227C320.344 115.907 320.94 115.431 321.403 114.838C321.782 114.222 322.007 113.524 322.059 112.801C322.111 112.079 321.989 111.355 321.702 110.691C321.114 109.366 320.198 108.214 319.042 107.345C316.992 105.715 314.574 104.62 312.001 104.158C309.429 103.696 306.783 103.881 304.299 104.696C302.595 105.208 301.069 106.192 299.896 107.536C299.319 108.213 298.919 109.023 298.73 109.894C298.542 110.766 298.571 111.67 298.816 112.527" fill="#2F2E41"/>
<path d="M313.223 100.618C315.753 94.7109 319.539 89.4336 324.317 85.1573C327.384 82.4159 330.967 80.0606 335.01 79.3496C339.053 78.6387 343.609 79.8567 346.089 83.1453C348.116 85.8344 348.496 89.4368 348.272 92.804C348.049 96.1712 347.3 99.5058 347.372 102.88C347.445 106.322 348.372 109.692 350.069 112.683C351.766 115.674 354.178 118.191 357.088 120.007C359.998 121.822 363.312 122.878 366.731 123.079C370.149 123.279 373.563 122.618 376.663 121.155C373.172 123.096 370.452 126.167 367.211 128.505C363.97 130.843 359.696 132.446 356.016 130.901C352.121 129.267 350.335 124.827 348.94 120.822L342.718 102.961C341.661 99.925 340.551 96.7987 338.392 94.4239C336.234 92.049 332.732 90.6016 329.761 91.7955C327.509 92.7004 326.043 94.8604 324.758 96.9278C323.472 98.9951 322.116 101.195 319.944 102.279C317.772 103.363 314.554 102.695 313.844 100.364" fill="#2F2E41"/>
<path d="M312.826 187.236L308.828 191.362L328.171 210.316L332.169 206.19L312.826 187.236Z" fill="#E6E6E6"/>
<path d="M328.412 206.53C327.621 207.346 327.089 208.379 326.882 209.499C326.676 210.62 326.804 211.776 327.251 212.823C327.698 213.87 328.444 214.76 329.394 215.381C330.344 216.002 331.456 216.325 332.589 216.31C333.722 216.296 334.825 215.943 335.759 215.298C336.693 214.653 337.416 213.744 337.836 212.686C338.256 211.627 338.354 210.468 338.119 209.353C337.884 208.239 337.325 207.219 336.513 206.424C335.425 205.358 333.96 204.77 332.441 204.79C330.922 204.809 329.472 205.435 328.412 206.53ZM334.273 212.273C333.935 212.623 333.5 212.864 333.025 212.965C332.55 213.067 332.056 213.024 331.605 212.843C331.154 212.662 330.766 212.351 330.491 211.948C330.216 211.546 330.066 211.07 330.06 210.582C330.054 210.094 330.192 209.615 330.456 209.205C330.721 208.796 331.1 208.474 331.546 208.281C331.992 208.089 332.485 208.033 332.963 208.123C333.44 208.212 333.881 208.441 334.229 208.782C334.695 209.239 334.962 209.863 334.97 210.518C334.978 211.173 334.728 211.804 334.273 212.273Z" fill="#E6E6E6"/>
<path d="M306.944 179.504L309.663 182.254L308.342 186.974L303.522 188.156L300.996 185.6C300.823 187.05 301.106 188.518 301.805 189.798C302.503 191.078 303.583 192.106 304.892 192.738C306.201 193.37 307.674 193.574 309.104 193.322C310.534 193.069 311.85 192.373 312.867 191.331C313.884 190.289 314.551 188.953 314.775 187.51C314.999 186.067 314.768 184.59 314.115 183.286C313.462 181.982 312.419 180.916 311.133 180.238C309.847 179.56 308.383 179.303 306.944 179.504Z" fill="#E6E6E6"/>
<path d="M318.109 205.404C317.863 205.404 317.618 205.391 317.373 205.363C315.942 205.196 314.609 204.548 313.591 203.524C312.572 202.499 311.928 201.159 311.762 199.72C311.66 198.822 311.748 197.913 312.02 197.052C312.292 196.19 312.742 195.397 313.34 194.722C313.938 194.048 314.672 193.509 315.492 193.139C316.312 192.77 317.2 192.579 318.099 192.579C318.383 192.58 318.667 192.602 318.949 192.643L338.414 171.805L336.382 164.994L346.588 160.393L349.448 167.424C350.407 169.805 350.576 172.434 349.931 174.92C349.286 177.406 347.861 179.616 345.867 181.223L324.441 198.362C324.463 198.571 324.475 198.781 324.475 198.991C324.475 199.893 324.285 200.784 323.919 201.608C323.554 202.431 323.019 203.167 322.351 203.769C321.189 204.826 319.676 205.409 318.109 205.404Z" fill="#FFB8B8"/>
<path d="M333.326 136.099C334.001 135.797 334.73 135.636 335.468 135.624C336.207 135.613 336.94 135.752 337.624 136.033C338.307 136.313 338.928 136.73 339.447 137.258C339.967 137.786 340.375 138.414 340.647 139.104L350.717 164.663L335.065 175.156L333.326 136.099Z" fill="#4ABFB2"/>
<path d="M259.992 142.067V14.7264C259.986 10.8224 258.442 7.07991 255.696 4.31937C252.951 1.55883 249.229 0.00552382 245.347 0H46.3499C42.4675 0.00552536 38.7458 1.55883 36.0005 4.31937C33.2553 7.07991 31.7106 10.8224 31.7051 14.7264V142.067C31.7106 145.971 33.2553 149.713 36.0005 152.474C38.7458 155.234 42.4675 156.788 46.3499 156.793H245.347C249.229 156.788 252.951 155.234 255.696 152.474C258.442 149.713 259.986 145.971 259.992 142.067ZM46.3499 155.061C42.9241 155.056 39.6398 153.686 37.2173 151.25C34.7949 148.814 33.4322 145.512 33.428 142.067V14.7264C33.4322 11.2815 34.7949 7.97889 37.2173 5.54297C39.6398 3.10705 42.9241 1.7367 46.3499 1.73251H245.347C248.773 1.7367 252.057 3.10705 254.48 5.54297C256.902 7.97889 258.265 11.2815 258.269 14.7264V142.067C258.265 145.512 256.902 148.814 254.48 151.25C252.057 153.686 248.773 155.056 245.347 155.061H46.3499Z" fill="#3F3D56"/>
<path d="M258.27 22.9115H33.4288C33.2004 22.9115 32.9812 22.8202 32.8197 22.6578C32.6581 22.4953 32.5674 22.275 32.5674 22.0453C32.5674 21.8155 32.6581 21.5952 32.8197 21.4327C32.9812 21.2703 33.2004 21.179 33.4288 21.179H258.27C258.498 21.179 258.717 21.2703 258.879 21.4327C259.04 21.5952 259.131 21.8155 259.131 22.0453C259.131 22.275 259.04 22.4953 258.879 22.6578C258.717 22.8202 258.498 22.9115 258.27 22.9115Z" fill="#3F3D56"/>
<path d="M48.0729 16.4589C50.4518 16.4589 52.3802 14.5197 52.3802 12.1276C52.3802 9.73552 50.4518 7.79633 48.0729 7.79633C45.6941 7.79633 43.7656 9.73552 43.7656 12.1276C43.7656 14.5197 45.6941 16.4589 48.0729 16.4589Z" fill="#4ABFB2"/>
<path d="M62.7184 16.4589C65.0973 16.4589 67.0257 14.5197 67.0257 12.1276C67.0257 9.73552 65.0973 7.79633 62.7184 7.79633C60.3396 7.79633 58.4111 9.73552 58.4111 12.1276C58.4111 14.5197 60.3396 16.4589 62.7184 16.4589Z" fill="#4ABFB2"/>
<path d="M77.362 16.4589C79.7408 16.4589 81.6693 14.5197 81.6693 12.1276C81.6693 9.73552 79.7408 7.79633 77.362 7.79633C74.9831 7.79633 73.0547 9.73552 73.0547 12.1276C73.0547 14.5197 74.9831 16.4589 77.362 16.4589Z" fill="#4ABFB2"/>
<path d="M121.093 55.088H104.245V66.032C104.981 65.008 106.069 64.176 107.509 63.536C108.949 62.864 110.501 62.528 112.165 62.528C114.821 62.528 116.981 63.088 118.645 64.208C120.309 65.296 121.493 66.72 122.197 68.48C122.933 70.208 123.301 72.048 123.301 74C123.301 76.304 122.869 78.368 122.005 80.192C121.141 82.016 119.813 83.456 118.021 84.512C116.261 85.568 114.069 86.096 111.445 86.096C108.085 86.096 105.365 85.232 103.285 83.504C101.205 81.776 99.9411 79.472 99.4931 76.592H103.765C104.181 78.416 105.061 79.84 106.405 80.864C107.749 81.888 109.445 82.4 111.493 82.4C114.021 82.4 115.925 81.648 117.205 80.144C118.485 78.608 119.125 76.592 119.125 74.096C119.125 71.6 118.485 69.68 117.205 68.336C115.925 66.96 114.037 66.272 111.541 66.272C109.845 66.272 108.357 66.688 107.077 67.52C105.829 68.32 104.917 69.424 104.341 70.832H100.213V51.248H121.093V55.088ZM133.906 68.288C133.906 62.784 134.802 58.496 136.594 55.424C138.386 52.32 141.522 50.768 146.002 50.768C150.45 50.768 153.57 52.32 155.362 55.424C157.154 58.496 158.05 62.784 158.05 68.288C158.05 73.888 157.154 78.24 155.362 81.344C153.57 84.448 150.45 86 146.002 86C141.522 86 138.386 84.448 136.594 81.344C134.802 78.24 133.906 73.888 133.906 68.288ZM153.73 68.288C153.73 65.504 153.538 63.152 153.154 61.232C152.802 59.28 152.05 57.712 150.898 56.528C149.778 55.344 148.146 54.752 146.002 54.752C143.826 54.752 142.162 55.344 141.01 56.528C139.89 57.712 139.138 59.28 138.754 61.232C138.402 63.152 138.226 65.504 138.226 68.288C138.226 71.168 138.402 73.584 138.754 75.536C139.138 77.488 139.89 79.056 141.01 80.24C142.162 81.424 143.826 82.016 146.002 82.016C148.146 82.016 149.778 81.424 150.898 80.24C152.05 79.056 152.802 77.488 153.154 75.536C153.538 73.584 153.73 71.168 153.73 68.288ZM168.846 68.288C168.846 62.784 169.742 58.496 171.534 55.424C173.326 52.32 176.462 50.768 180.942 50.768C185.39 50.768 188.51 52.32 190.302 55.424C192.094 58.496 192.99 62.784 192.99 68.288C192.99 73.888 192.094 78.24 190.302 81.344C188.51 84.448 185.39 86 180.942 86C176.462 86 173.326 84.448 171.534 81.344C169.742 78.24 168.846 73.888 168.846 68.288ZM188.67 68.288C188.67 65.504 188.478 63.152 188.094 61.232C187.742 59.28 186.99 57.712 185.838 56.528C184.718 55.344 183.086 54.752 180.942 54.752C178.766 54.752 177.102 55.344 175.95 56.528C174.83 57.712 174.078 59.28 173.694 61.232C173.342 63.152 173.166 65.504 173.166 68.288C173.166 71.168 173.342 73.584 173.694 75.536C174.078 77.488 174.83 79.056 175.95 80.24C177.102 81.424 178.766 82.016 180.942 82.016C183.086 82.016 184.718 81.424 185.838 80.24C186.99 79.056 187.742 77.488 188.094 75.536C188.478 73.584 188.67 71.168 188.67 68.288Z" fill="#4ABFB2"/>
<path d="M75 124H63C61.1435 124 59.363 123.262 58.0503 121.95C56.7375 120.637 56 118.857 56 117C56 115.143 56.7375 113.363 58.0503 112.05C59.363 110.738 61.1435 110 63 110H75C76.8565 110 78.637 110.738 79.9497 112.05C81.2625 113.363 82 115.143 82 117C82 118.857 81.2625 120.637 79.9497 121.95C78.637 123.262 76.8565 124 75 124Z" fill="#CCCCCC"/>
<path d="M158 124.5H102C100.143 124.5 98.363 123.762 97.0502 122.45C95.7375 121.137 95 119.357 95 117.5C95 115.643 95.7375 113.863 97.0502 112.55C98.363 111.238 100.143 110.5 102 110.5H158C159.857 110.5 161.637 111.238 162.95 112.55C164.263 113.863 165 115.643 165 117.5C165 119.357 164.263 121.137 162.95 122.45C161.637 123.762 159.857 124.5 158 124.5Z" fill="#CCCCCC"/>
<path d="M229 124.5H186C184.143 124.5 182.363 123.762 181.05 122.45C179.737 121.137 179 119.357 179 117.5C179 115.643 179.737 113.863 181.05 112.55C182.363 111.238 184.143 110.5 186 110.5H229C230.857 110.5 232.637 111.238 233.95 112.55C235.263 113.863 236 115.643 236 117.5C236 119.357 235.263 121.137 233.95 122.45C232.637 123.762 230.857 124.5 229 124.5Z" fill="#CCCCCC"/>
</g>
<defs>
<clipPath id="clip0">
<rect width="400" height="261.6" fill="white"/>
</clipPath>
</defs>
</svg>
