<svg width="26" height="26" viewBox="0 0 26 26" fill="none" xmlns="http://www.w3.org/2000/svg">
<path d="M6.5 0H15.1011C15.5321 9.20358e-05 15.9453 0.171357 16.25 0.476125L22.2739 6.5C22.5786 6.80468 22.7499 7.21793 22.75 7.64887V22.75C22.75 23.612 22.4076 24.4386 21.7981 25.0481C21.1886 25.6576 20.362 26 19.5 26H6.5C5.63805 26 4.8114 25.6576 4.2019 25.0481C3.59241 24.4386 3.25 23.612 3.25 22.75V3.25C3.25 2.38805 3.59241 1.5614 4.2019 0.951903C4.8114 0.34241 5.63805 0 6.5 0V0ZM15.4375 2.4375V5.6875C15.4375 6.11848 15.6087 6.5318 15.9135 6.83655C16.2182 7.14129 16.6315 7.3125 17.0625 7.3125H20.3125L15.4375 2.4375Z" fill="white"/>
<path d="M18.6546 14.546L17.4358 11.7022C17.4046 11.6291 17.3525 11.5669 17.2861 11.5231C17.2198 11.4793 17.142 11.456 17.0625 11.4561H15.8437V10.6436C15.8437 10.5358 15.8009 10.4325 15.7247 10.3563C15.6486 10.2801 15.5452 10.2373 15.4375 10.2373H8.93748V11.0498H15.0312V16.1507C14.8461 16.2582 14.6841 16.4012 14.5546 16.5717C14.425 16.7421 14.3305 16.9364 14.2764 17.1436H11.7235C11.6247 16.7606 11.3895 16.4269 11.0622 16.2049C10.7348 15.9829 10.3378 15.8879 9.94539 15.9378C9.55303 15.9876 9.19231 16.1788 8.93085 16.4756C8.66939 16.7724 8.52515 17.1543 8.52515 17.5498C8.52515 17.9453 8.66939 18.3273 8.93085 18.624C9.19231 18.9208 9.55303 19.112 9.94539 19.1619C10.3378 19.2117 10.7348 19.1167 11.0622 18.8947C11.3895 18.6728 11.6247 18.339 11.7235 17.9561H14.2764C14.3648 18.3047 14.5669 18.614 14.8508 18.8348C15.1346 19.0557 15.484 19.1757 15.8437 19.1757C16.2034 19.1757 16.5528 19.0557 16.8367 18.8348C17.1206 18.614 17.3227 18.3047 17.411 17.9561H18.2812C18.389 17.9561 18.4923 17.9133 18.5685 17.8371C18.6447 17.7609 18.6875 17.6575 18.6875 17.5498V14.7061C18.6875 14.651 18.6763 14.5966 18.6546 14.546ZM10.1562 18.3623C9.99554 18.3623 9.83845 18.3147 9.70483 18.2254C9.57122 18.1361 9.46708 18.0092 9.40558 17.8607C9.34408 17.7123 9.32799 17.5489 9.35935 17.3913C9.3907 17.2337 9.46808 17.0889 9.58171 16.9753C9.69534 16.8617 9.84011 16.7843 9.99772 16.7529C10.1553 16.7216 10.3187 16.7377 10.4672 16.7992C10.6156 16.8606 10.7425 16.9648 10.8318 17.0984C10.9211 17.232 10.9687 17.3891 10.9687 17.5498C10.9685 17.7652 10.8828 17.9718 10.7305 18.1241C10.5782 18.2764 10.3717 18.3621 10.1562 18.3623ZM15.8437 12.2686H16.7944L17.6654 14.2998H15.8437V12.2686ZM15.8437 18.3623C15.683 18.3623 15.5259 18.3147 15.3923 18.2254C15.2587 18.1361 15.1546 18.0092 15.0931 17.8607C15.0316 17.7123 15.0155 17.5489 15.0468 17.3913C15.0782 17.2337 15.1556 17.0889 15.2692 16.9753C15.3828 16.8617 15.5276 16.7843 15.6852 16.7529C15.8428 16.7216 16.0062 16.7377 16.1547 16.7992C16.3031 16.8606 16.43 16.9648 16.5193 17.0984C16.6086 17.232 16.6562 17.3891 16.6562 17.5498C16.656 17.7652 16.5703 17.9718 16.418 18.1241C16.2657 18.2764 16.0592 18.3621 15.8437 18.3623ZM17.875 17.1436H17.411C17.3216 16.7956 17.1191 16.4871 16.8355 16.2666C16.5518 16.046 16.203 15.9258 15.8437 15.9248V15.1123H17.875V17.1436Z" fill="#768F9C"/>
<path d="M10.1431 14.1962V13.3032V12.4463H11V15.053H8.39327V15.5534L7 14.6246L8.39327 13.6957V14.1962H10.1431Z" fill="#768F9C"/>
</svg>
