<svg width="399" height="338" viewBox="0 0 399 338" fill="none" xmlns="http://www.w3.org/2000/svg">
<path opacity="0.1" d="M201.991 298.458C303.162 298.458 385.177 292.103 385.177 284.264C385.177 276.425 303.162 270.07 201.991 270.07C100.821 270.07 18.8057 276.425 18.8057 284.264C18.8057 292.103 100.821 298.458 201.991 298.458Z" fill="#4ABFB2"/>
<g opacity="0.1">
<path opacity="0.1" d="M322.429 202.46C321.334 199.143 316.894 197.616 312.515 199.053C311.884 199.258 311.274 199.522 310.692 199.84C310.412 199.763 310.123 199.694 309.83 199.642C310.069 198.688 310.161 197.703 310.102 196.722C311.612 195.713 312.838 194.334 313.66 192.717C314.483 191.1 314.875 189.299 314.8 187.487C316.306 186.475 317.528 185.095 318.347 183.479C319.167 181.862 319.557 180.062 319.481 178.252C320.999 177.254 322.223 175.87 323.028 174.243C325.14 170.071 324.265 165.382 321.071 163.769C317.877 162.156 313.571 164.234 311.459 168.406C310.622 170.017 310.231 171.821 310.326 173.632C308.819 174.644 307.598 176.024 306.778 177.641C305.959 179.257 305.568 181.057 305.645 182.867C304.138 183.879 302.917 185.259 302.097 186.875C301.278 188.492 300.888 190.292 300.964 192.102C299.454 193.112 298.229 194.492 297.406 196.11C296.584 197.727 296.191 199.529 296.266 201.341C294.748 202.34 293.523 203.723 292.718 205.35C292.321 206.134 292.02 206.963 291.822 207.819C291.292 207.047 290.647 206.361 289.908 205.784C289.823 205.128 289.679 204.48 289.477 203.849C288.037 199.474 284.175 196.808 280.856 197.9C277.538 198.993 276.003 203.419 277.443 207.793C278.032 209.669 279.166 211.328 280.701 212.559C280.786 213.216 280.93 213.864 281.132 214.495C281.969 217.032 283.619 218.994 285.507 219.979C285.34 220.527 285.22 221.088 285.15 221.656C283.369 223.365 282.224 225.626 281.9 228.069C280.118 229.779 278.972 232.042 278.65 234.487C277.768 235.332 277.038 236.323 276.495 237.416C274.378 241.588 275.253 246.281 278.447 247.89C281.641 249.499 285.947 247.43 288.063 243.253C288.621 242.164 288.986 240.987 289.141 239.773C290.921 238.065 292.067 235.804 292.391 233.36C294.172 231.651 295.318 229.388 295.641 226.943C297.409 225.23 298.541 222.969 298.852 220.529C300.64 218.82 301.79 216.553 302.11 214.103C302.659 213.584 303.149 213.007 303.572 212.383C305.333 212.743 307.158 212.629 308.86 212.051C309.491 211.846 310.102 211.583 310.683 211.264C312.59 211.766 314.602 211.694 316.468 211.058C320.834 209.634 323.519 205.78 322.429 202.46Z" fill="#3F3D56"/>
<g opacity="0.1">
<path opacity="0.1" d="M314.7 189.384C314.248 189.828 313.751 190.224 313.218 190.567C313.285 191.794 313.123 193.024 312.739 194.193C313.078 193.725 313.381 193.231 313.644 192.717C314.179 191.672 314.536 190.546 314.7 189.384Z" fill="black"/>
<path opacity="0.1" d="M319.381 180.149C318.929 180.593 318.432 180.989 317.898 181.332C317.966 182.56 317.804 183.789 317.42 184.958C317.76 184.489 318.063 183.994 318.325 183.478C318.858 182.434 319.214 181.309 319.381 180.149Z" fill="black"/>
<path opacity="0.1" d="M308.764 176.712C308.725 176.079 308.749 175.443 308.838 174.815C308.001 175.638 307.305 176.593 306.777 177.641C306.517 178.158 306.298 178.694 306.122 179.246C306.835 178.243 307.732 177.383 308.764 176.712Z" fill="black"/>
<path opacity="0.1" d="M279.054 232.599C279.43 232.075 279.856 231.588 280.325 231.145C280.399 230.561 280.524 229.986 280.7 229.424C280.325 229.927 279.995 230.461 279.713 231.02C279.453 231.529 279.232 232.056 279.054 232.599Z" fill="black"/>
<path opacity="0.1" d="M282.304 226.19C282.68 225.666 283.106 225.179 283.575 224.736C283.646 224.168 283.765 223.606 283.933 223.059C283.575 223.546 283.258 224.063 282.985 224.603C282.718 225.114 282.491 225.645 282.304 226.19Z" fill="black"/>
<path opacity="0.1" d="M310.015 198.619C309.565 199.062 309.069 199.457 308.536 199.797C308.595 200.779 308.504 201.764 308.265 202.718C308.555 202.768 308.843 202.834 309.127 202.916C309.709 202.597 310.319 202.334 310.95 202.128C315.338 200.692 319.773 202.219 320.864 205.535C321.134 206.369 321.182 207.258 321.001 208.116C322.445 206.421 323.045 204.357 322.424 202.464C321.329 199.148 316.889 197.621 312.51 199.057C311.879 199.263 311.269 199.526 310.687 199.844C310.407 199.767 310.118 199.698 309.825 199.647C309.907 199.303 309.967 198.963 310.015 198.619Z" fill="black"/>
<path opacity="0.1" d="M277.451 235.82C277.076 236.323 276.746 236.857 276.464 237.416C276.202 237.935 275.98 238.473 275.8 239.025C276.185 238.499 276.617 238.009 277.093 237.562C277.159 236.972 277.279 236.389 277.451 235.82Z" fill="black"/>
<path opacity="0.1" d="M304.062 185.947C304.023 185.314 304.047 184.678 304.135 184.05C303.298 184.873 302.602 185.828 302.075 186.876C301.815 187.393 301.596 187.929 301.42 188.48C302.133 187.478 303.03 186.618 304.062 185.947Z" fill="black"/>
<path opacity="0.1" d="M297.299 223.609C297.214 224.249 297.07 224.88 296.868 225.493C297.205 225.023 297.506 224.529 297.769 224.013C298.052 223.461 298.287 222.885 298.472 222.293C298.119 222.764 297.726 223.204 297.299 223.609Z" fill="black"/>
<path opacity="0.1" d="M290.799 236.436C290.714 237.075 290.57 237.706 290.368 238.319C290.708 237.851 291.011 237.356 291.273 236.84C291.554 236.286 291.789 235.711 291.976 235.119C291.623 235.591 291.229 236.032 290.799 236.436Z" fill="black"/>
<path opacity="0.1" d="M294.05 230.018C293.966 230.658 293.821 231.289 293.619 231.902C293.963 231.441 294.271 230.955 294.542 230.448C294.824 229.895 295.059 229.32 295.244 228.728C294.883 229.19 294.484 229.622 294.05 230.018Z" fill="black"/>
<path opacity="0.1" d="M300.55 217.196C300.466 217.835 300.321 218.464 300.119 219.076C300.457 218.608 300.758 218.115 301.02 217.6C301.306 217.038 301.542 216.452 301.727 215.85C301.376 216.333 300.982 216.783 300.55 217.196Z" fill="black"/>
<path opacity="0.1" d="M279.269 200.976C282.596 199.887 286.458 202.55 287.889 206.924C288.091 207.557 288.235 208.206 288.32 208.864C289.059 209.44 289.704 210.127 290.234 210.899C290.432 210.042 290.733 209.211 291.13 208.426C291.281 208.133 291.445 207.853 291.613 207.565C291.124 206.89 290.544 206.285 289.889 205.767C289.804 205.11 289.66 204.463 289.458 203.832C288.018 199.457 284.156 196.791 280.838 197.883C278.941 198.502 277.631 200.21 277.122 202.369C277.705 201.728 278.445 201.248 279.269 200.976Z" fill="black"/>
<path opacity="0.1" d="M294.701 204.417C294.663 203.785 294.689 203.151 294.778 202.524C293.939 203.346 293.241 204.301 292.714 205.35C292.453 205.865 292.234 206.4 292.059 206.95C292.774 205.949 293.67 205.09 294.701 204.417Z" fill="black"/>
<path opacity="0.1" d="M299.381 195.178C299.343 194.546 299.369 193.912 299.459 193.285C298.618 194.104 297.921 195.058 297.394 196.107C297.134 196.623 296.915 197.16 296.739 197.711C297.453 196.708 298.349 195.849 299.381 195.178Z" fill="black"/>
<path opacity="0.1" d="M287.55 242.849C287.465 243.49 287.321 244.122 287.119 244.737C287.828 243.758 288.371 242.67 288.727 241.515C288.374 241.993 287.981 242.44 287.55 242.849Z" fill="black"/>
</g>
<path opacity="0.1" d="M328.817 159.782C330.336 158.785 331.561 157.401 332.364 155.773C334.481 151.601 333.606 146.908 330.412 145.295C327.218 143.682 322.912 145.76 320.796 149.937C319.957 151.551 319.567 153.36 319.666 155.175C318.16 156.187 316.938 157.567 316.119 159.184C315.299 160.801 314.909 162.6 314.985 164.41C313.465 165.406 312.24 166.791 311.438 168.419C311.178 168.93 310.961 169.461 310.787 170.006C311.912 168.38 313.544 167.171 315.429 166.565C315.644 167.228 315.988 167.841 316.442 168.37C316.896 168.899 317.45 169.333 318.073 169.647C318.696 169.96 319.375 170.147 320.071 170.197C320.767 170.247 321.466 170.159 322.127 169.938C322.764 171.808 322.764 173.835 322.127 175.706C322.464 175.242 322.764 174.753 323.024 174.243C323.86 172.633 324.25 170.828 324.153 169.017C325.661 168.007 326.884 166.628 327.704 165.011C328.524 163.393 328.913 161.593 328.834 159.782H328.817Z" fill="#3F3D56"/>
<path opacity="0.1" d="M367.57 91.0535C368.658 90.5461 369.71 89.964 370.718 89.3113L359.044 80.7917L372.766 87.8505C375.541 85.6478 377.838 82.9022 379.514 79.7818C381.191 76.6615 382.212 73.2322 382.515 69.7039L359.196 69.9419L382.565 66.0392C382.324 62.5074 381.362 59.0623 379.739 55.9154C378.116 52.7685 375.866 49.9863 373.127 47.7397C370.388 45.4931 367.219 43.8295 363.813 42.8512C360.407 41.8729 356.837 41.6005 353.322 42.0506C349.807 42.5008 346.421 43.6641 343.372 45.469C340.324 47.274 337.677 49.6825 335.594 52.5466C333.511 55.4107 332.036 58.6699 331.261 62.124C330.485 65.5782 330.424 69.1543 331.082 72.6327C329.387 73.4201 327.782 74.3875 326.294 75.5183L338.481 92.4457L323.85 77.6284C320.762 80.6572 318.479 84.4073 317.207 88.5394C315.935 92.6715 315.715 97.0551 316.567 101.294C312.147 103.354 308.396 106.616 305.744 110.705C303.092 114.794 301.644 119.546 301.568 124.418C301.491 129.289 302.788 134.084 305.31 138.255C307.832 142.425 311.478 145.803 315.83 148.002C320.183 150.201 325.067 151.132 329.925 150.689C334.782 150.246 339.417 148.448 343.299 145.498C347.182 142.549 350.156 138.568 351.881 134.01C353.605 129.453 354.012 124.503 353.054 119.725C358.343 117.266 362.65 113.101 365.283 107.901C367.916 102.7 368.721 96.7664 367.57 91.0535Z" fill="#4ABFB2"/>
<path opacity="0.1" d="M322.126 92.6992C318.973 98.8978 318.009 105.977 319.389 112.791C314.113 115.248 309.637 119.137 306.471 124.013C303.305 128.89 301.577 134.556 301.485 140.366C301.394 146.176 302.942 151.894 305.952 156.867C308.963 161.84 313.315 165.868 318.511 168.49C323.706 171.112 329.537 172.223 335.335 171.695C341.133 171.167 346.666 169.022 351.301 165.505C355.935 161.988 359.485 157.24 361.544 151.805C363.603 146.371 364.088 140.467 362.945 134.77C369.035 131.949 323.687 89.598 322.126 92.6992Z" fill="black"/>
<path opacity="0.1" d="M357.101 47.8582C359.646 47.8582 361.708 45.7996 361.708 43.2601C361.708 40.7207 359.646 38.662 357.101 38.662C354.556 38.662 352.493 40.7207 352.493 43.2601C352.493 45.7996 354.556 47.8582 357.101 47.8582Z" fill="#4ABFB2"/>
<path opacity="0.1" d="M384.015 50.8089C386.56 50.8089 388.623 48.7503 388.623 46.2108C388.623 43.6714 386.56 41.6127 384.015 41.6127C381.47 41.6127 379.407 43.6714 379.407 46.2108C379.407 48.7503 381.47 50.8089 384.015 50.8089Z" fill="#4ABFB2"/>
<path opacity="0.1" d="M394.393 92.1271C396.938 92.1271 399 90.0685 399 87.5291C399 84.9896 396.938 82.931 394.393 82.931C391.848 82.931 389.785 84.9896 389.785 87.5291C389.785 90.0685 391.848 92.1271 394.393 92.1271Z" fill="#4ABFB2"/>
<path opacity="0.1" d="M380.383 112.76C382.928 112.76 384.991 110.702 384.991 108.162C384.991 105.623 382.928 103.564 380.383 103.564C377.838 103.564 375.775 105.623 375.775 108.162C375.775 110.702 377.838 112.76 380.383 112.76Z" fill="#4ABFB2"/>
<path opacity="0.1" d="M361.246 155.614C363.791 155.614 365.854 153.556 365.854 151.016C365.854 148.477 363.791 146.418 361.246 146.418C358.702 146.418 356.639 148.477 356.639 151.016C356.639 153.556 358.702 155.614 361.246 155.614Z" fill="#4ABFB2"/>
<path opacity="0.1" d="M361.246 155.614C363.791 155.614 365.854 153.556 365.854 151.016C365.854 148.477 363.791 146.418 361.246 146.418C358.702 146.418 356.639 148.477 356.639 151.016C356.639 153.556 358.702 155.614 361.246 155.614Z" fill="black"/>
<path opacity="0.1" d="M318.698 107.078C321.242 107.078 323.305 105.02 323.305 102.48C323.305 99.9409 321.242 97.8823 318.698 97.8823C316.153 97.8823 314.09 99.9409 314.09 102.48C314.09 105.02 316.153 107.078 318.698 107.078Z" fill="#4ABFB2"/>
<path opacity="0.1" d="M318.698 107.078C321.242 107.078 323.305 105.02 323.305 102.48C323.305 99.9409 321.242 97.8823 318.698 97.8823C316.153 97.8823 314.09 99.9409 314.09 102.48C314.09 105.02 316.153 107.078 318.698 107.078Z" fill="black"/>
<path opacity="0.1" d="M313.783 178.11C310.718 176.566 309.792 172.191 311.581 168.157C311.486 168.32 311.395 168.488 311.309 168.664C309.193 172.837 310.068 177.525 313.261 179.138C316.455 180.751 320.761 178.673 322.873 174.501C322.964 174.329 323.041 174.153 323.119 173.981C320.925 177.813 316.843 179.658 313.783 178.11Z" fill="black"/>
<path opacity="0.1" d="M309.23 187.091C306.17 185.547 305.239 181.173 307.032 177.134C306.937 177.301 306.842 177.469 306.756 177.641C304.64 181.813 305.515 186.506 308.709 188.115C311.903 189.723 316.209 187.655 318.325 183.478C318.411 183.306 318.493 183.134 318.571 182.958C316.372 186.79 312.295 188.635 309.23 187.091Z" fill="black"/>
<path opacity="0.1" d="M304.679 196.068C301.619 194.524 300.688 190.149 302.481 186.115C302.386 186.278 302.291 186.446 302.205 186.622C300.089 190.795 300.968 195.483 304.162 197.096C307.356 198.709 311.657 196.631 313.774 192.459C313.86 192.287 313.942 192.111 314.019 191.939C311.826 195.771 307.744 197.616 304.679 196.068Z" fill="black"/>
<path opacity="0.1" d="M300.145 205.071C297.081 203.526 296.154 199.152 297.943 195.117C297.848 195.281 297.758 195.449 297.667 195.621C295.555 199.793 296.43 204.486 299.624 206.099C302.818 207.712 307.124 205.634 309.236 201.457C309.326 201.285 309.404 201.113 309.481 200.937C307.275 204.748 303.193 206.593 300.145 205.071Z" fill="black"/>
<path opacity="0.1" d="M295.58 214.026C292.515 212.482 291.589 208.107 293.377 204.073C293.283 204.236 293.192 204.404 293.106 204.58C290.989 208.752 291.864 213.441 295.058 215.054C298.252 216.667 302.558 214.589 304.675 210.417C304.761 210.245 304.843 210.069 304.92 209.897C302.731 213.729 298.64 215.574 295.58 214.026Z" fill="black"/>
<path opacity="0.1" d="M291.029 223.007C287.969 221.463 287.038 217.088 288.831 213.054C288.736 213.217 288.641 213.385 288.555 213.557C286.439 217.729 287.313 222.422 290.512 224.035C293.71 225.648 297.99 223.566 300.145 219.394C300.231 219.222 300.313 219.05 300.391 218.873C298.171 222.706 294.111 224.551 291.029 223.007Z" fill="black"/>
<path opacity="0.1" d="M286.478 231.984C283.418 230.44 282.487 226.065 284.28 222.031C284.185 222.198 284.094 222.362 284.004 222.538C281.892 226.71 282.767 231.399 285.961 233.012C289.155 234.625 293.461 232.547 295.573 228.375C295.663 228.203 295.741 228.027 295.818 227.854C293.624 231.687 289.543 233.532 286.478 231.984Z" fill="black"/>
<path opacity="0.1" d="M281.93 240.965C278.865 239.421 277.938 235.046 279.727 231.012C279.632 231.175 279.542 231.343 279.455 231.515C277.339 235.687 278.214 240.38 281.408 241.993C284.602 243.606 288.908 241.528 291.024 237.352C291.11 237.18 291.188 237.008 291.266 236.831C289.072 240.664 284.99 242.492 281.93 240.965Z" fill="black"/>
<path opacity="0.1" d="M278.938 246.866C275.878 245.318 274.947 240.948 276.74 236.909C276.645 237.076 276.55 237.244 276.464 237.416C274.348 241.588 275.223 246.281 278.417 247.89C281.611 249.499 285.917 247.43 288.033 243.253C288.119 243.081 288.201 242.909 288.279 242.733C286.08 246.565 281.999 248.41 278.938 246.866Z" fill="black"/>
<path opacity="0.1" d="M361.173 206.903C361.648 205.544 361.938 204.128 362.035 202.692C362.352 202.691 362.665 202.625 362.955 202.498C363.245 202.371 363.505 202.186 363.72 201.954C363.935 201.722 364.1 201.449 364.204 201.15C364.308 200.852 364.349 200.535 364.325 200.22C364.301 199.905 364.212 199.599 364.064 199.319C363.916 199.04 363.711 198.795 363.464 198.598C363.216 198.401 362.93 198.258 362.625 198.176C362.319 198.094 361.999 198.077 361.686 198.124C361.174 195.796 360.148 193.611 358.684 191.728C357.22 189.845 355.354 188.311 353.221 187.237C353.496 186.693 353.544 186.062 353.353 185.483C353.162 184.904 352.749 184.424 352.204 184.149C351.658 183.874 351.026 183.827 350.446 184.017C349.865 184.207 349.384 184.62 349.109 185.164C349.009 185.357 348.939 185.565 348.902 185.779C346.373 185.309 343.768 185.448 341.304 186.185C338.84 186.922 336.587 188.235 334.734 190.016C333.335 189.79 331.912 189.748 330.502 189.891L328.635 198.369L328.523 190.197C326.381 190.665 324.357 191.565 322.575 192.84C320.793 194.116 319.291 195.741 318.16 197.615C317.028 199.49 316.292 201.575 315.996 203.744C315.699 205.912 315.849 208.118 316.436 210.227C317.023 212.335 318.035 214.302 319.409 216.007C320.784 217.713 322.492 219.12 324.43 220.144C326.369 221.168 328.496 221.787 330.682 221.962C332.867 222.138 335.066 221.867 337.144 221.166C337.366 221.566 337.704 221.89 338.114 222.095C338.536 222.309 339.013 222.388 339.482 222.321C339.951 222.254 340.387 222.044 340.732 221.721C341.077 221.397 341.314 220.975 341.41 220.513C341.506 220.05 341.456 219.569 341.269 219.136C342.004 218.632 342.696 218.068 343.338 217.45C346.702 217.996 350.154 217.464 353.198 215.932C356.242 214.4 358.721 211.945 360.281 208.92L351.596 207.462L361.173 206.903Z" fill="#4ABFB2"/>
<g opacity="0.1">
<path opacity="0.1" d="M347.757 211.019C344.55 206.795 342.584 201.793 340.321 196.993C339.413 195.022 338.396 193.104 337.274 191.246L335.576 189.272C335.291 189.513 335.007 189.762 334.714 190.025C333.314 189.799 331.891 189.757 330.481 189.9L328.615 198.378L328.503 190.205C326.361 190.674 324.337 191.573 322.555 192.849C320.773 194.125 319.27 195.749 318.139 197.624C317.008 199.499 316.271 201.584 315.975 203.752C315.679 205.921 315.829 208.127 316.416 210.235C317.002 212.344 318.014 214.311 319.389 216.016C320.763 217.721 322.472 219.129 324.41 220.153C326.348 221.176 328.475 221.795 330.661 221.971C332.847 222.147 335.046 221.876 337.123 221.175C337.345 221.575 337.683 221.898 338.093 222.104C338.515 222.318 338.993 222.396 339.462 222.33C339.93 222.263 340.367 222.053 340.712 221.729C341.057 221.406 341.293 220.984 341.389 220.521C341.485 220.059 341.436 219.578 341.248 219.144C341.983 218.64 342.675 218.076 343.317 217.458C346.612 217.99 349.99 217.492 352.989 216.03C350.987 214.65 349.221 212.958 347.757 211.019Z" fill="black"/>
</g>
<path opacity="0.1" d="M290.968 192.868C291.146 192.517 291.231 192.127 291.214 191.734C291.197 191.342 291.08 190.96 290.873 190.625C290.667 190.291 290.377 190.015 290.033 189.824C289.689 189.633 289.302 189.533 288.908 189.534C288.255 186.077 286.483 182.93 283.865 180.575C284.287 178.932 284.447 177.234 284.339 175.542L275.869 174.101L284.093 173.585C283.946 172.814 283.743 172.055 283.486 171.314C283.806 171.094 284.066 170.799 284.244 170.454C284.452 170.043 284.531 169.579 284.471 169.122C284.412 168.666 284.217 168.238 283.911 167.893C283.605 167.548 283.203 167.303 282.756 167.189C282.309 167.075 281.838 167.098 281.404 167.254C279.226 164.182 276.038 161.969 272.395 161C268.752 160.03 264.884 160.364 261.462 161.945C258.041 163.526 255.282 166.253 253.666 169.652C252.05 173.052 251.678 176.909 252.616 180.553C252.117 180.763 251.71 181.145 251.469 181.628C251.258 182.045 251.178 182.516 251.242 182.979C251.306 183.441 251.509 183.873 251.825 184.218C252.141 184.562 252.555 184.802 253.011 184.906C253.467 185.01 253.944 184.972 254.379 184.798C255.205 186.184 256.235 187.438 257.435 188.519C256.561 191.916 256.825 195.505 258.185 198.739L269.542 195.797L259.413 201.113C261.204 203.953 263.84 206.164 266.951 207.435C270.063 208.707 273.495 208.976 276.768 208.206C280.04 207.435 282.99 205.663 285.204 203.137C287.418 200.612 288.785 197.459 289.115 194.119C289.505 194.086 289.88 193.953 290.205 193.734C290.529 193.515 290.792 193.217 290.968 192.868Z" fill="#4ABFB2"/>
<path opacity="0.1" d="M290.968 192.868C291.145 192.517 291.23 192.127 291.213 191.734C291.197 191.342 291.08 190.96 290.873 190.625C290.666 190.291 290.377 190.015 290.033 189.824C289.689 189.633 289.301 189.533 288.907 189.534C288.254 186.077 286.483 182.93 283.864 180.575C283.933 180.304 283.994 180.037 284.046 179.766C283.745 179.983 283.466 180.23 283.214 180.502C281.683 182.175 280.899 184.424 279.386 186.115C277.602 188.11 274.929 189.151 272.261 189.431C269.593 189.711 266.908 189.302 264.274 188.79C262.093 188.36 259.882 187.861 257.671 188.072C257.456 188.072 257.24 188.119 257.042 188.154C257.171 188.278 257.3 188.403 257.434 188.523C256.561 191.921 256.824 195.509 258.184 198.743L269.542 195.797L259.412 201.113C261.203 203.953 263.839 206.164 266.951 207.435C270.062 208.707 273.495 208.976 276.767 208.206C280.04 207.435 282.989 205.663 285.203 203.137C287.417 200.612 288.784 197.459 289.114 194.119C289.505 194.086 289.88 193.953 290.204 193.734C290.529 193.515 290.791 193.217 290.968 192.868Z" fill="black"/>
</g>
<g opacity="0.1">
<path opacity="0.1" d="M38.5723 219.899C39.124 218.226 41.361 217.456 43.5679 218.179C43.8853 218.283 44.1926 218.415 44.4859 218.575C44.6282 218.536 44.7747 218.501 44.917 218.476C44.7959 217.995 44.7494 217.499 44.779 217.005C44.0215 216.493 43.4073 215.797 42.9947 214.983C42.5821 214.169 42.3847 213.262 42.4213 212.351C41.6572 211.849 41.0411 211.152 40.6369 210.333C40.2157 209.522 40.0178 208.613 40.0636 207.701C39.3 207.197 38.6842 206.499 38.2792 205.679C37.2189 203.58 37.6499 201.219 39.2662 200.402C40.8826 199.584 43.0463 200.638 44.111 202.737C44.5314 203.55 44.7278 204.46 44.6799 205.374C45.4395 205.882 46.0553 206.577 46.4682 207.391C46.8811 208.205 47.0772 209.112 47.0376 210.024C47.7969 210.533 48.4125 211.229 48.8253 212.043C49.2381 212.858 49.4344 213.765 49.3953 214.678C50.1549 215.186 50.7707 215.88 51.1836 216.695C51.5965 217.509 51.7926 218.416 51.753 219.327C52.5183 219.831 53.1356 220.529 53.5418 221.349C53.7356 221.746 53.8803 222.165 53.9728 222.596C54.2383 222.206 54.5625 221.86 54.934 221.568C54.9783 221.237 55.0533 220.91 55.1581 220.592C55.8866 218.39 57.8305 217.048 59.5072 217.581C61.1839 218.114 61.9511 220.364 61.2313 222.566C60.9338 223.512 60.3623 224.348 59.5891 224.971C59.5443 225.301 59.4693 225.626 59.3649 225.943C59.0111 227.11 58.2231 228.098 57.1624 228.704C57.2455 228.986 57.3061 229.273 57.3434 229.564C57.7884 229.991 58.1572 230.49 58.4339 231.04C58.7159 231.589 58.8997 232.183 58.977 232.795C59.4237 233.22 59.794 233.719 60.0718 234.27C60.3533 234.819 60.537 235.413 60.6149 236.025C61.0626 236.451 61.433 236.952 61.7097 237.505C62.7743 239.604 62.3347 241.969 60.727 242.778C59.1192 243.587 56.9469 242.546 55.8822 240.442C55.6015 239.893 55.4178 239.299 55.3392 238.687C54.4411 237.828 53.8634 236.688 53.7013 235.457C52.8032 234.597 52.2255 233.458 52.0634 232.227C51.617 231.801 51.2468 231.302 50.9686 230.751C50.6898 230.201 50.5062 229.608 50.4255 228.997C49.9805 228.57 49.6117 228.071 49.335 227.521C49.053 226.972 48.8692 226.378 48.7919 225.766C48.5144 225.508 48.2671 225.22 48.0548 224.906C47.168 225.087 46.249 225.031 45.3911 224.743C45.0725 224.637 44.7638 224.503 44.4687 224.343C43.5101 224.597 42.4974 224.561 41.5593 224.239C39.374 223.512 38.0249 221.573 38.5723 219.899Z" fill="#3F3D56"/>
<g opacity="0.1">
<path opacity="0.1" d="M42.4648 213.305C42.6934 213.53 42.9447 213.731 43.2148 213.903C43.1783 214.521 43.2602 215.14 43.4562 215.727C43.283 215.492 43.1302 215.244 42.9993 214.983C42.7297 214.457 42.5491 213.89 42.4648 213.305Z" fill="black"/>
<path opacity="0.1" d="M40.1064 208.66C40.3361 208.882 40.5874 209.081 40.8564 209.254C40.8202 209.873 40.9021 210.493 41.0978 211.082C40.5757 210.367 40.2355 209.536 40.1064 208.66Z" fill="black"/>
<path opacity="0.1" d="M45.4632 206.927C45.4837 206.608 45.4721 206.288 45.4287 205.972C45.8501 206.387 46.2009 206.868 46.4675 207.396C46.5976 207.656 46.7071 207.927 46.7951 208.204C46.4359 207.698 45.984 207.265 45.4632 206.927Z" fill="black"/>
<path opacity="0.1" d="M60.4213 235.083C60.2329 234.819 60.0192 234.574 59.7834 234.352C59.7441 234.06 59.6806 233.773 59.5938 233.491C59.7808 233.744 59.9466 234.012 60.0894 234.291C60.2202 234.546 60.3312 234.811 60.4213 235.083Z" fill="black"/>
<path opacity="0.1" d="M58.7701 231.853C58.5817 231.589 58.368 231.344 58.1322 231.121C58.097 230.83 58.0364 230.542 57.9512 230.261C58.3063 230.741 58.58 231.276 58.7615 231.844L58.7701 231.853Z" fill="black"/>
<path opacity="0.1" d="M44.8262 217.968C45.0525 218.191 45.3026 218.389 45.5719 218.557C45.5397 219.052 45.5862 219.548 45.7098 220.028C45.5646 220.054 45.4207 220.087 45.2788 220.127C44.9836 219.969 44.6749 219.836 44.3564 219.732C42.1496 219.009 39.9125 219.779 39.3651 221.452C39.228 221.868 39.2027 222.313 39.2919 222.743C38.9373 222.37 38.685 221.913 38.5597 221.415C38.4343 220.917 38.4401 220.395 38.5764 219.899C39.1281 218.226 41.3651 217.456 43.572 218.179C43.8894 218.283 44.1967 218.415 44.49 218.575C44.6323 218.536 44.7788 218.501 44.9211 218.476C44.8796 218.308 44.848 218.139 44.8262 217.968Z" fill="black"/>
<path opacity="0.1" d="M61.2305 236.705C61.4185 236.958 61.5843 237.227 61.7262 237.509C61.8578 237.769 61.9687 238.04 62.0581 238.317C61.8696 238.052 61.656 237.806 61.4201 237.582C61.3817 237.285 61.3183 236.991 61.2305 236.705Z" fill="black"/>
<path opacity="0.1" d="M47.8216 211.585C47.8422 211.266 47.8306 210.946 47.7871 210.63C48.2095 211.044 48.5605 211.525 48.8259 212.054C48.956 212.313 49.0655 212.582 49.1535 212.858C48.7942 212.354 48.3422 211.922 47.8216 211.585Z" fill="black"/>
<path opacity="0.1" d="M51.231 230.554C51.2713 230.875 51.342 231.192 51.4422 231.5C51.083 231.008 50.8091 230.46 50.6318 229.878C50.8109 230.121 51.0114 230.347 51.231 230.554Z" fill="black"/>
<path opacity="0.1" d="M54.502 237.014C54.5455 237.335 54.6176 237.652 54.7176 237.961C54.5444 237.726 54.3915 237.477 54.2607 237.216C54.1189 236.94 54.0007 236.652 53.9072 236.356C54.0877 236.591 54.2866 236.811 54.502 237.014Z" fill="black"/>
<path opacity="0.1" d="M52.8687 233.784C52.909 234.105 52.9797 234.422 53.0799 234.73C52.9082 234.495 52.7554 234.246 52.623 233.986C52.4807 233.71 52.3624 233.422 52.2695 233.126C52.4494 233.362 52.6499 233.583 52.8687 233.784Z" fill="black"/>
<path opacity="0.1" d="M49.5942 227.319C49.634 227.642 49.7048 227.96 49.8054 228.27C49.6419 228.034 49.4978 227.785 49.3744 227.526C49.2298 227.25 49.1101 226.962 49.0166 226.665C49.1888 226.9 49.3821 227.119 49.5942 227.319Z" fill="black"/>
<path opacity="0.1" d="M60.3133 219.151C58.6366 218.6 56.6927 219.942 55.9685 222.162C55.8637 222.48 55.7887 222.807 55.7444 223.138C55.3716 223.428 55.0459 223.773 54.7789 224.162C54.6789 223.73 54.5269 223.311 54.3263 222.915C54.2531 222.768 54.1712 222.626 54.085 222.484C54.3296 222.145 54.6197 221.842 54.947 221.581C54.9913 221.249 55.0663 220.923 55.1711 220.605C55.8996 218.403 57.8435 217.06 59.5202 217.594C60.001 217.778 60.4259 218.083 60.7537 218.48C61.0814 218.876 61.3009 219.35 61.3908 219.856C61.0979 219.533 60.7269 219.29 60.3133 219.151Z" fill="black"/>
<path opacity="0.1" d="M52.5384 220.884C52.5589 220.566 52.5473 220.246 52.5039 219.93C52.9263 220.344 53.2773 220.825 53.5427 221.353C53.6728 221.614 53.7823 221.884 53.8703 222.162C53.5122 221.655 53.0601 221.221 52.5384 220.884Z" fill="black"/>
<path opacity="0.1" d="M50.18 216.23C50.2004 215.912 50.1889 215.592 50.1455 215.276C50.5659 215.692 50.9166 216.172 51.1843 216.699C51.3144 216.96 51.4239 217.23 51.5119 217.508C51.1527 217.002 50.7008 216.569 50.18 216.23Z" fill="black"/>
<path opacity="0.1" d="M56.1397 240.244C56.1811 240.567 56.2533 240.886 56.3552 241.195C56.183 240.958 56.0302 240.708 55.8984 240.447C55.7566 240.17 55.6384 239.882 55.5449 239.586C55.7254 239.821 55.9243 240.041 56.1397 240.244Z" fill="black"/>
</g>
<path opacity="0.1" d="M35.3527 198.397C34.5885 197.895 33.9725 197.199 33.5683 196.38C32.5036 194.277 32.9433 191.915 34.551 191.102C36.1587 190.289 38.3311 191.334 39.3957 193.438C39.8168 194.249 40.0133 195.158 39.9647 196.07C40.724 196.58 41.3396 197.275 41.7524 198.09C42.1652 198.905 42.3615 199.812 42.3224 200.724C43.0871 201.227 43.7043 201.923 44.1112 202.742C44.2405 203 44.35 203.267 44.4387 203.542C43.8678 202.728 43.0458 202.124 42.0983 201.821C41.9927 202.157 41.8211 202.469 41.5935 202.738C41.3659 203.007 41.0868 203.228 40.7726 203.388C40.4584 203.548 40.1153 203.644 39.7635 203.671C39.4116 203.697 39.058 203.653 38.7233 203.542C38.4038 204.483 38.4038 205.503 38.7233 206.445C38.5614 206.211 38.4173 205.965 38.2923 205.709C37.8711 204.898 37.6733 203.99 37.719 203.077C36.9606 202.567 36.3457 201.871 35.933 201.056C35.5203 200.242 35.3235 199.335 35.3613 198.423L35.3527 198.397Z" fill="#3F3D56"/>
<path opacity="0.1" d="M9.43949 168.572C8.78567 168.267 8.15347 167.918 7.54729 167.527L14.5644 162.408L6.31456 166.645C4.64655 165.321 3.26672 163.672 2.25953 161.798C1.25233 159.924 0.638952 157.864 0.456929 155.746L14.4825 155.892L0.426758 153.543C0.547783 151.403 1.10908 149.311 2.07567 147.398C3.04226 145.484 4.39345 143.789 6.04503 142.419C7.69662 141.049 9.61322 140.033 11.6754 139.435C13.7376 138.836 15.9013 138.668 18.0315 138.94C20.1618 139.212 22.213 139.92 24.0574 141.018C25.9018 142.116 27.4999 143.581 28.752 145.322C30.0042 147.063 30.8836 149.043 31.3355 151.138C31.7874 153.234 31.8021 155.399 31.3787 157.5C32.3968 157.971 33.362 158.547 34.2579 159.221L26.9305 169.389L35.7277 160.494C37.5841 162.314 38.9566 164.567 39.7212 167.049C40.4859 169.531 40.6184 172.164 40.1069 174.71C42.7681 175.947 45.0268 177.906 46.6246 180.364C48.2224 182.822 49.0949 185.678 49.1423 188.608C49.1897 191.537 48.4101 194.42 46.8927 196.928C45.3752 199.436 43.1811 201.467 40.5613 202.789C37.9415 204.111 35.0018 204.671 32.0782 204.404C29.1547 204.137 26.3654 203.055 24.0293 201.281C21.6932 199.507 19.9046 197.112 18.8681 194.371C17.8315 191.63 17.5888 188.654 18.1678 185.781C14.9915 184.304 12.4045 181.805 10.8217 178.685C9.23896 175.565 8.75219 172.005 9.43949 168.576V168.572Z" fill="#4ABFB2"/>
<path opacity="0.1" d="M38.7274 164.606C40.3171 167.728 40.8031 171.295 40.1067 174.727C42.7679 175.964 45.0266 177.923 46.6244 180.381C48.2222 182.839 49.0947 185.696 49.1421 188.625C49.1895 191.554 48.4099 194.437 46.8924 196.945C45.375 199.453 43.1809 201.484 40.5611 202.806C37.9413 204.129 35.0015 204.688 32.078 204.421C29.1545 204.155 26.3652 203.072 24.0291 201.298C21.693 199.524 19.9044 197.129 18.8678 194.388C17.8313 191.647 17.5886 188.671 18.1675 185.799C15.0943 184.375 37.9386 163.045 38.7274 164.606Z" fill="black"/>
<path opacity="0.1" d="M21.1074 142.016C22.3905 142.016 23.4306 140.978 23.4306 139.697C23.4306 138.417 22.3905 137.379 21.1074 137.379C19.8243 137.379 18.7842 138.417 18.7842 139.697C18.7842 140.978 19.8243 142.016 21.1074 142.016Z" fill="#4ABFB2"/>
<path opacity="0.1" d="M7.54784 143.504C8.83092 143.504 9.87106 142.466 9.87106 141.186C9.87106 139.905 8.83092 138.867 7.54784 138.867C6.26475 138.867 5.22461 139.905 5.22461 141.186C5.22461 142.466 6.26475 143.504 7.54784 143.504Z" fill="#4ABFB2"/>
<path opacity="0.1" d="M2.32323 164.318C3.60631 164.318 4.64645 163.28 4.64645 162C4.64645 160.719 3.60631 159.681 2.32323 159.681C1.04014 159.681 0 160.719 0 162C0 163.28 1.04014 164.318 2.32323 164.318Z" fill="#4ABFB2"/>
<path opacity="0.1" d="M9.37889 174.714C10.662 174.714 11.7021 173.676 11.7021 172.396C11.7021 171.115 10.662 170.077 9.37889 170.077C8.09581 170.077 7.05566 171.115 7.05566 172.396C7.05566 173.676 8.09581 174.714 9.37889 174.714Z" fill="#4ABFB2"/>
<path opacity="0.1" d="M19.0166 196.302C20.2997 196.302 21.3398 195.264 21.3398 193.984C21.3398 192.704 20.2997 191.666 19.0166 191.666C17.7335 191.666 16.6934 192.704 16.6934 193.984C16.6934 195.264 17.7335 196.302 19.0166 196.302Z" fill="#4ABFB2"/>
<path opacity="0.1" d="M19.0166 196.302C20.2997 196.302 21.3398 195.264 21.3398 193.984C21.3398 192.704 20.2997 191.666 19.0166 191.666C17.7335 191.666 16.6934 192.704 16.6934 193.984C16.6934 195.264 17.7335 196.302 19.0166 196.302Z" fill="black"/>
<path opacity="0.1" d="M40.4512 171.85C41.7342 171.85 42.7744 170.812 42.7744 169.531C42.7744 168.251 41.7342 167.213 40.4512 167.213C39.1681 167.213 38.1279 168.251 38.1279 169.531C38.1279 170.812 39.1681 171.85 40.4512 171.85Z" fill="#4ABFB2"/>
<path opacity="0.1" d="M40.4512 171.85C41.7342 171.85 42.7744 170.812 42.7744 169.531C42.7744 168.251 41.7342 167.213 40.4512 167.213C39.1681 167.213 38.1279 168.251 38.1279 169.531C38.1279 170.812 39.1681 171.85 40.4512 171.85Z" fill="black"/>
<path opacity="0.1" d="M42.9304 207.632C44.4735 206.854 44.939 204.651 44.0382 202.617C44.0856 202.703 44.133 202.784 44.1761 202.871C45.2407 204.974 44.8011 207.335 43.189 208.148C41.577 208.961 39.4133 207.916 38.3486 205.813C38.3055 205.727 38.2624 205.641 38.2236 205.55C39.3314 207.481 41.3874 208.411 42.9304 207.632Z" fill="black"/>
<path opacity="0.1" d="M45.2191 212.157C46.7622 211.378 47.232 209.172 46.3311 207.142C46.3785 207.223 46.426 207.309 46.4691 207.396C47.5337 209.499 47.094 211.86 45.482 212.673C43.87 213.486 41.7062 212.441 40.6416 210.338C40.5942 210.252 40.5554 210.161 40.5166 210.075C41.6243 212.015 43.6846 212.936 45.2191 212.157Z" fill="black"/>
<path opacity="0.1" d="M47.5121 216.678C49.0551 215.899 49.5249 213.697 48.6198 211.662C48.6715 211.748 48.7146 211.83 48.762 211.921C49.8267 214.02 49.3827 216.385 47.775 217.194C46.1673 218.002 43.9992 216.962 42.9346 214.858C42.8872 214.772 42.8484 214.686 42.8096 214.596C43.913 216.527 45.969 217.456 47.5121 216.678Z" fill="black"/>
<path opacity="0.1" d="M49.804 221.203C51.3471 220.424 51.8169 218.222 50.9118 216.187C50.9592 216.269 51.0066 216.355 51.0497 216.441C52.1187 218.544 51.6747 220.906 50.067 221.719C48.4592 222.532 46.2869 221.487 45.2223 219.383C45.1792 219.297 45.1404 219.207 45.1016 219.121C46.205 221.048 48.261 221.981 49.804 221.203Z" fill="black"/>
<path opacity="0.1" d="M52.0974 225.723C53.6405 224.945 54.106 222.742 53.2051 220.712C53.2526 220.794 53.3 220.88 53.3431 220.966C54.4077 223.069 53.9681 225.431 52.3603 226.244C50.7526 227.057 48.5803 226.007 47.5156 223.908C47.4725 223.818 47.4337 223.732 47.3906 223.646C48.4984 225.573 50.5543 226.502 52.0974 225.723Z" fill="black"/>
<path opacity="0.1" d="M54.3904 230.248C55.9335 229.47 56.399 227.267 55.4981 225.233C55.5455 225.319 55.593 225.401 55.6361 225.487C56.7007 227.59 56.261 229.952 54.6533 230.764C53.0456 231.577 50.8732 230.532 49.8086 228.429C49.7655 228.343 49.7224 228.257 49.6836 228.166C50.7913 230.081 52.8473 231.027 54.3904 230.248Z" fill="black"/>
<path opacity="0.1" d="M56.6833 234.773C58.2221 233.995 58.6919 231.788 57.7911 229.758C57.8385 229.84 57.8859 229.926 57.929 230.012C58.9936 232.115 58.554 234.476 56.942 235.289C55.3299 236.102 53.1662 235.053 52.1016 232.954C52.0585 232.863 52.0154 232.777 51.9766 232.691C53.0843 234.618 55.1403 235.552 56.6833 234.773Z" fill="black"/>
<path opacity="0.1" d="M58.973 239.294C60.5161 238.515 60.9859 236.313 60.0807 234.279C60.1324 234.365 60.1755 234.446 60.223 234.537C61.2876 236.636 60.8436 239.001 59.2359 239.81C57.6282 240.619 55.4601 239.578 54.3955 237.474C54.3481 237.388 54.3093 237.302 54.2705 237.212C55.3782 239.143 57.4299 240.072 58.973 239.294Z" fill="black"/>
<path opacity="0.1" d="M60.4959 242.266C62.0389 241.488 62.5044 239.285 61.6036 237.251C61.651 237.337 61.6984 237.418 61.7415 237.509C62.8062 239.608 62.3665 241.974 60.7588 242.782C59.1511 243.591 56.9787 242.55 55.9141 240.447C55.871 240.361 55.8279 240.275 55.7891 240.184C56.8839 242.124 58.9399 243.045 60.4959 242.266Z" fill="black"/>
<path opacity="0.1" d="M19.0551 222.136C18.8158 221.452 18.6707 220.739 18.6241 220.015C18.4647 220.015 18.3072 219.982 18.1613 219.917C18.0154 219.853 17.8843 219.76 17.7762 219.643C17.6681 219.526 17.5853 219.388 17.533 219.238C17.4807 219.088 17.46 218.929 17.4721 218.77C17.4843 218.611 17.5291 218.457 17.6038 218.317C17.6784 218.176 17.7813 218.052 17.906 217.953C18.0307 217.854 18.1745 217.782 18.3285 217.741C18.4824 217.7 18.6432 217.691 18.8008 217.714C19.0595 216.542 19.5761 215.442 20.3134 214.493C21.0507 213.545 21.9901 212.772 23.0637 212.23C22.9248 211.956 22.9008 211.638 22.997 211.346C23.0932 211.054 23.3017 210.812 23.5766 210.673C23.8515 210.534 24.1704 210.51 24.463 210.606C24.7556 210.702 24.998 210.911 25.1369 211.185C25.1874 211.282 25.2223 211.387 25.2404 211.495C26.5158 211.261 27.8286 211.334 29.07 211.708C30.3113 212.082 31.4454 212.746 32.3781 213.645C33.0906 213.529 33.8154 213.509 34.5333 213.585L35.4729 217.852L35.4944 213.736C36.5631 213.982 37.5708 214.442 38.4566 215.088C39.3423 215.733 40.088 216.551 40.6485 217.492C41.209 218.433 41.5728 219.477 41.7179 220.562C41.863 221.647 41.7865 222.75 41.493 223.805C41.1994 224.86 40.6949 225.844 40.0098 226.699C39.3247 227.554 38.4733 228.262 37.5068 228.779C36.5403 229.297 35.4788 229.614 34.3863 229.711C33.2937 229.808 32.1927 229.684 31.1497 229.345C31.0363 229.545 30.8671 229.708 30.6626 229.814C30.4496 229.921 30.2087 229.96 29.9725 229.927C29.7363 229.893 29.5162 229.787 29.3422 229.624C29.1681 229.461 29.0484 229.249 28.9994 229.016C28.9503 228.783 28.9742 228.54 29.0679 228.321C28.6983 228.064 28.3508 227.776 28.0291 227.461C26.3337 227.735 24.5948 227.467 23.0617 226.694C21.5287 225.921 20.28 224.684 19.4948 223.16L23.8697 222.424L19.0551 222.136Z" fill="#4ABFB2"/>
<g opacity="0.1">
<path opacity="0.1" d="M25.8127 224.209C27.4291 222.059 28.4204 219.564 29.5584 217.147C30.014 216.152 30.5264 215.184 31.0928 214.247L31.9549 213.254C32.1014 213.379 32.2436 213.503 32.3859 213.632C33.0983 213.516 33.8232 213.496 34.541 213.572L35.4806 217.839L35.4936 213.736C36.5623 213.982 37.5699 214.442 38.4557 215.088C39.3415 215.733 40.0871 216.551 40.6476 217.492C41.2081 218.433 41.5719 219.477 41.717 220.562C41.8622 221.647 41.7856 222.75 41.4921 223.805C41.1985 224.86 40.694 225.844 40.0089 226.699C39.3239 227.554 38.4724 228.262 37.5059 228.779C36.5394 229.297 35.4779 229.614 34.3854 229.711C33.2928 229.808 32.1919 229.684 31.1488 229.345C31.0354 229.545 30.8662 229.708 30.6618 229.814C30.4487 229.921 30.2078 229.96 29.9716 229.927C29.7354 229.893 29.5153 229.787 29.3413 229.624C29.1672 229.461 29.0475 229.249 28.9985 229.016C28.9494 228.783 28.9733 228.54 29.067 228.321C28.6974 228.064 28.3499 227.776 28.0282 227.461C26.3679 227.727 24.6659 227.476 23.1533 226.743C24.1706 226.047 25.0687 225.191 25.8127 224.209Z" fill="black"/>
</g>
<path opacity="0.1" d="M54.4221 215.065C54.3531 214.929 54.3117 214.781 54.3002 214.63C54.2887 214.478 54.3073 214.326 54.3549 214.182C54.4026 214.038 54.4784 213.904 54.5779 213.789C54.6775 213.674 54.7988 213.58 54.935 213.512C55.0977 213.429 55.2781 213.386 55.4608 213.387C55.7896 211.645 56.6814 210.059 57.9996 208.871C57.7864 208.044 57.7064 207.189 57.7625 206.337L62.0254 205.623L57.8832 205.361C57.9582 204.972 58.062 204.59 58.1935 204.217C58.0308 204.109 57.8986 203.961 57.8099 203.787C57.7063 203.579 57.6671 203.346 57.6973 203.116C57.7276 202.887 57.826 202.672 57.9798 202.498C58.1336 202.325 58.3359 202.201 58.5606 202.143C58.7854 202.086 59.0223 202.096 59.2409 202.174C60.0022 201.093 61.0194 200.217 62.2021 199.623C63.595 198.918 65.1623 198.628 66.716 198.789C68.2697 198.95 69.7438 199.555 70.9617 200.531C72.1796 201.507 73.0896 202.813 73.5824 204.292C74.0753 205.772 74.1302 207.361 73.7406 208.871C73.9432 208.957 74.1169 209.1 74.2412 209.282C74.3655 209.463 74.4354 209.676 74.4427 209.896C74.4499 210.116 74.3942 210.334 74.2821 210.523C74.1699 210.712 74.006 210.866 73.8096 210.966C73.6623 211.04 73.5008 211.082 73.3358 211.09C73.1708 211.097 73.0061 211.07 72.8527 211.009C72.4367 211.704 71.918 212.334 71.3139 212.875C71.7557 214.591 71.624 216.403 70.9389 218.037L65.2365 216.54L70.3355 219.22C69.57 220.439 68.4933 221.433 67.2159 222.1C65.9385 222.767 64.5064 223.083 63.0662 223.015C61.6261 222.948 60.2299 222.5 59.0207 221.716C57.8115 220.933 56.8328 219.843 56.185 218.557C55.7339 217.663 55.4506 216.693 55.3488 215.697C55.1531 215.679 54.9651 215.612 54.8029 215.501C54.6407 215.391 54.5096 215.24 54.4221 215.065Z" fill="#4ABFB2"/>
<path opacity="0.1" d="M54.4221 215.065C54.3531 214.929 54.3117 214.782 54.3002 214.63C54.2887 214.478 54.3073 214.326 54.3549 214.182C54.4026 214.038 54.4784 213.904 54.5779 213.789C54.6775 213.674 54.7988 213.58 54.935 213.512C55.0977 213.429 55.2781 213.386 55.4608 213.387C55.7896 211.645 56.6814 210.059 57.9996 208.871C57.9651 208.738 57.9349 208.6 57.9091 208.467C58.0637 208.577 58.2079 208.7 58.3401 208.836C59.1116 209.697 59.5082 210.811 60.2668 211.662C61.2173 212.641 62.4952 213.236 63.8572 213.336C65.2063 213.428 66.5617 213.32 67.8787 213.013C68.9648 212.734 70.0852 212.611 71.2062 212.647L71.5251 212.69L71.3269 212.875C71.7686 214.591 71.637 216.403 70.9519 218.037L65.2365 216.54L70.3355 219.22C69.57 220.439 68.4933 221.433 67.2159 222.1C65.9385 222.767 64.5063 223.083 63.0662 223.015C61.6261 222.948 60.2299 222.5 59.0207 221.716C57.8115 220.933 56.8328 219.843 56.185 218.557C55.7339 217.663 55.4506 216.693 55.3488 215.697C55.1531 215.679 54.9651 215.612 54.8029 215.501C54.6407 215.391 54.5096 215.24 54.4221 215.065Z" fill="black"/>
</g>
<path opacity="0.1" d="M149.286 22.328C147.582 22.0052 145.82 22.1969 144.225 22.8786C143.269 23.3039 142.234 23.5237 141.187 23.5237C140.14 23.5237 139.104 23.3039 138.148 22.8786C137.018 22.3841 135.793 22.1407 134.559 22.1652C133.325 22.1897 132.111 22.4816 131.002 23.0205C130.368 23.3546 129.662 23.5302 128.946 23.5324C126.049 23.5324 123.64 20.6204 123.14 16.7793C123.717 16.3569 124.209 15.8284 124.588 15.2223C126.286 12.491 128.898 10.736 131.868 10.736C134.838 10.736 137.424 12.4565 139.122 15.1707C139.629 15.9857 140.338 16.6568 141.181 17.1193C142.023 17.5819 142.971 17.8203 143.932 17.8117H144.01C146.294 17.7987 148.29 19.644 149.286 22.328Z" fill="#4ABFB2"/>
<path opacity="0.1" d="M158.086 10.2844L153.405 13.248L156.245 8.08643C155.44 7.44591 154.443 7.09173 153.414 7.07993H153.34C153.015 7.08389 152.691 7.05942 152.37 7.00681L150.78 8.01331L151.461 6.77884C150.34 6.38961 149.37 5.66015 148.685 4.69271L145.836 6.46915L147.629 3.21307C145.97 1.22157 143.728 0 141.267 0C138.315 0 135.664 1.75493 133.983 4.48625C133.48 5.30208 132.77 5.97056 131.924 6.42383C131.078 6.8771 130.128 7.09901 129.168 7.06703H129.026C125.768 7.06703 123.121 10.7532 123.121 15.3083C123.121 19.8634 125.768 23.5453 129.026 23.5453C129.743 23.5431 130.448 23.3675 131.082 23.0334C132.192 22.494 133.406 22.2023 134.64 22.1785C135.874 22.1548 137.099 22.3995 138.229 22.8958C139.185 23.3198 140.22 23.5389 141.267 23.5389C142.314 23.5389 143.349 23.3198 144.306 22.8958C145.427 22.4101 146.64 22.1709 147.862 22.1947C149.084 22.2184 150.286 22.5045 151.388 23.0334C152.017 23.3585 152.714 23.5296 153.422 23.5324C156.685 23.5324 159.327 19.8462 159.327 15.2954C159.339 13.5479 158.912 11.8253 158.086 10.2844Z" fill="#4ABFB2"/>
<path opacity="0.1" d="M51.8741 81.9181C49.4402 81.4586 46.9243 81.731 44.6458 82.701C43.2785 83.3058 41.7988 83.6166 40.3031 83.6128C38.8074 83.6091 37.3293 83.2911 35.965 82.6795C34.3506 81.9731 32.6017 81.6254 30.8394 81.6603C29.077 81.6952 27.3433 82.1119 25.7583 82.8816C24.8518 83.3582 23.8433 83.609 22.8187 83.6128C18.6809 83.6128 15.237 79.4535 14.5215 73.965C15.3483 73.3638 16.0509 72.6087 16.5904 71.7413C19.0171 67.84 22.7756 65.3323 26.9953 65.3323C31.2151 65.3323 34.9262 67.8099 37.34 71.6681C38.0654 72.8375 39.0818 73.7995 40.2903 74.4606C41.4989 75.1216 42.8583 75.4592 44.2364 75.4404H44.3441C47.6113 75.4361 50.4647 78.0728 51.8741 81.9181Z" fill="#4ABFB2"/>
<path opacity="0.1" d="M64.4602 64.6915L57.7707 68.924L61.831 61.5558C60.6802 60.6392 59.2559 60.1321 57.7836 60.1149H57.6759C57.2111 60.1217 56.7466 60.0871 56.288 60.0117L54.0294 61.4698L55.0035 59.7063C53.3962 59.1458 52.008 58.0918 51.0381 56.6954L46.9778 59.2762L49.5338 54.5877C47.1589 51.7446 43.9606 50.0026 40.4435 50.0026C36.2237 50.0026 32.4652 52.5059 30.0385 56.4072C29.3198 57.5779 28.3028 58.5374 27.0913 59.188C25.8798 59.8386 24.5171 60.1569 23.1421 60.1106H22.9137C18.2543 60.1106 14.4785 65.3797 14.4785 71.8833C14.4785 78.3868 18.2543 83.6559 22.9137 83.6559C23.9389 83.6532 24.948 83.4007 25.8533 82.9204C27.4386 82.1513 29.1724 81.7353 30.9348 81.7012C32.6972 81.667 34.4459 82.0155 36.0599 82.7225C37.4243 83.3342 38.9024 83.6522 40.3981 83.6559C41.8938 83.6596 43.3734 83.3489 44.7408 82.744C46.3429 82.0501 48.0759 81.7082 49.8221 81.7416C51.5684 81.775 53.2869 82.1829 54.8613 82.9376C55.758 83.4059 56.7543 83.6522 57.7664 83.6559C62.4258 83.6559 66.2015 78.3825 66.2015 71.8833C66.234 69.3783 65.6353 66.9053 64.4602 64.6915Z" fill="#4ABFB2"/>
<path opacity="0.1" d="M322.394 39.1031C324.098 38.7805 325.859 38.9722 327.454 39.6536C328.409 40.0791 329.444 40.299 330.49 40.299C331.537 40.299 332.571 40.0791 333.527 39.6536C334.657 39.1592 335.882 38.9158 337.116 38.9403C338.35 38.9648 339.564 39.2566 340.673 39.7956C341.307 40.1291 342.013 40.3047 342.729 40.3074C345.626 40.3074 348.04 37.3954 348.54 33.5544C347.961 33.1331 347.469 32.6044 347.091 31.9973C345.402 29.2574 342.76 27.4896 339.798 27.4896C336.837 27.4896 334.247 29.2101 332.549 31.9242C332.042 32.7429 331.332 33.4174 330.488 33.8823C329.644 34.3472 328.694 34.5869 327.73 34.5781H327.656C325.363 34.5738 323.363 36.419 322.394 39.1031Z" fill="#4ABFB2"/>
<path opacity="0.1" d="M313.567 27.0595L318.248 30.0144L315.403 24.8529C316.209 24.213 317.205 23.8588 318.235 23.8464H318.313C318.637 23.8501 318.962 23.8256 319.282 23.7733L320.869 24.7798L320.188 23.5453C321.316 23.1626 322.296 22.4359 322.989 21.4678L325.83 23.2657L324.032 20.0096C325.696 18.0181 327.911 16.7966 330.399 16.7966C333.351 16.7966 336.002 18.5515 337.683 21.2828C338.185 22.099 338.896 22.7677 339.741 23.221C340.587 23.6743 341.538 23.896 342.497 23.8636H342.653C345.915 23.8636 348.558 27.5498 348.558 32.1049C348.558 36.6599 345.915 40.3419 342.653 40.3419C341.936 40.3387 341.231 40.1631 340.597 39.83C339.487 39.2906 338.273 38.9989 337.039 38.9751C335.804 38.9513 334.58 39.1961 333.45 39.6924C332.494 40.1163 331.46 40.3353 330.414 40.3353C329.367 40.3353 328.333 40.1163 327.377 39.6924C326.255 39.2065 325.042 38.9674 323.819 38.9911C322.596 39.0149 321.393 39.301 320.291 39.83C319.662 40.1556 318.965 40.3266 318.257 40.329C314.998 40.329 312.351 36.6427 312.351 32.092C312.328 30.3394 312.746 28.6091 313.567 27.0595Z" fill="#4ABFB2"/>
<path opacity="0.1" d="M265.351 334.159C292.727 334.159 314.919 330.307 314.919 325.556C314.919 320.805 292.727 316.954 265.351 316.954C237.975 316.954 215.783 320.805 215.783 325.556C215.783 330.307 237.975 334.159 265.351 334.159Z" fill="#4ABFB2"/>
<path d="M239.408 284.694L162.604 283.709L162.832 281.743L166.543 249.316H233.994L238.955 281.743L239.335 284.204L239.408 284.694Z" fill="#D0D2D5"/>
<path opacity="0.1" d="M239.335 284.204H201.008L162.604 283.709L162.832 281.743H238.955L239.335 284.204Z" fill="black"/>
<path d="M251.72 282.238H149.804V284.694H251.72V282.238Z" fill="#D0D2D5"/>
<path d="M348.953 54.5533C348.959 52.8585 348.29 51.2307 347.094 50.0274C345.898 48.8241 344.272 48.1438 342.574 48.1358H57.9593C57.1176 48.1397 56.285 48.3091 55.5089 48.6342C54.7327 48.9593 54.0284 49.4337 53.436 50.0304C52.8437 50.6271 52.3749 51.3345 52.0565 52.112C51.738 52.8895 51.5762 53.722 51.5801 54.5619V226.721H348.953V54.5533Z" fill="#3F3D56"/>
<path d="M51.5801 225.001V245.165C51.5801 246.854 52.2522 248.473 53.4485 249.667C54.6448 250.86 56.2674 251.531 57.9592 251.531H342.574C344.266 251.531 345.888 250.86 347.085 249.667C348.281 248.473 348.953 246.854 348.953 245.165V225.001H51.5801Z" fill="#D0D2D5"/>
<path d="M338.123 58.932H63.8916V213.697H338.123V58.932Z" fill="white"/>
<path d="M201.746 243.879C202.752 243.88 203.746 243.653 204.652 243.214C205.558 242.775 206.352 242.136 206.974 241.346C207.163 241.105 207.336 240.852 207.491 240.589L203.84 239.973L207.784 239.999C208.162 239.179 208.368 238.289 208.39 237.386C208.411 236.483 208.248 235.585 207.909 234.747L202.62 237.483L207.5 233.904C207.041 233.118 206.426 232.435 205.692 231.896C204.958 231.357 204.121 230.975 203.232 230.773C202.344 230.571 201.423 230.553 200.528 230.721C199.632 230.889 198.781 231.239 198.026 231.749C197.272 232.259 196.631 232.919 196.143 233.686C195.654 234.454 195.33 235.314 195.189 236.212C195.047 237.111 195.093 238.029 195.322 238.909C195.552 239.789 195.96 240.612 196.522 241.328C197.141 242.121 197.934 242.763 198.839 243.205C199.744 243.647 200.738 243.877 201.746 243.879Z" fill="#4ABFB2"/>
<path opacity="0.1" d="M208.392 251.527L239.033 282.238L234.331 251.527H208.392Z" fill="black"/>
<path opacity="0.1" d="M338.203 58.9492H63.6748V67.9905H338.203V58.9492Z" fill="#444053"/>
<path opacity="0.3" d="M241.456 60.5235H159.242C159.104 60.5235 158.992 60.6352 158.992 60.773V65.7754C158.992 65.9132 159.104 66.0249 159.242 66.0249H241.456C241.594 66.0249 241.706 65.9132 241.706 65.7754V60.773C241.706 60.6352 241.594 60.5235 241.456 60.5235Z" fill="#4ABFB2"/>
<path d="M239.25 63.8441H239.047L238.974 63.7796C239.225 63.4788 239.362 63.0999 239.362 62.7086C239.359 62.3874 239.262 62.0741 239.081 61.8084C238.9 61.5426 238.644 61.3362 238.346 61.2153C238.048 61.0943 237.721 61.0642 237.405 61.1287C237.09 61.1933 236.801 61.3496 236.575 61.5779C236.348 61.8062 236.195 62.0963 236.133 62.4116C236.072 62.727 236.106 63.0533 236.23 63.3496C236.354 63.6459 236.564 63.8987 236.832 64.0763C237.1 64.2539 237.415 64.3482 237.737 64.3474C238.13 64.346 238.509 64.2075 238.81 63.9559L238.884 64.0205V64.2226L240.146 65.4829L240.521 65.1044L239.25 63.8441ZM237.737 63.8441C237.512 63.845 237.291 63.7791 237.104 63.6548C236.916 63.5306 236.769 63.3535 236.683 63.1461C236.596 62.9387 236.573 62.7102 236.616 62.4897C236.66 62.2691 236.768 62.0664 236.927 61.9071C237.086 61.7479 237.288 61.6393 237.509 61.5952C237.73 61.551 237.959 61.5732 238.167 61.6591C238.375 61.7449 238.553 61.8904 238.679 62.0772C238.804 62.2641 238.871 62.4838 238.871 62.7086C238.872 62.8576 238.843 63.0055 238.787 63.1435C238.73 63.2815 238.647 63.4069 238.541 63.5125C238.436 63.6181 238.311 63.7018 238.173 63.7588C238.034 63.8157 237.886 63.8447 237.737 63.8441Z" fill="#3F3D56"/>
<path opacity="0.8" d="M68.6116 65.1259C69.5281 65.1259 70.271 64.3845 70.271 63.4699C70.271 62.5553 69.5281 61.8139 68.6116 61.8139C67.6951 61.8139 66.9521 62.5553 66.9521 63.4699C66.9521 64.3845 67.6951 65.1259 68.6116 65.1259Z" fill="#FA5959"/>
<path opacity="0.8" d="M73.1751 65.1259C74.0916 65.1259 74.8345 64.3845 74.8345 63.4699C74.8345 62.5553 74.0916 61.8139 73.1751 61.8139C72.2586 61.8139 71.5156 62.5553 71.5156 63.4699C71.5156 64.3845 72.2586 65.1259 73.1751 65.1259Z" fill="#FED253"/>
<path d="M196.98 137.703V128.977H187.795C187.231 126.246 186.144 123.65 184.595 121.329L191.109 114.829L184.927 108.66L178.413 115.161C176.088 113.614 173.486 112.53 170.749 111.967V102.801H162.005V111.967C159.269 112.53 156.667 113.614 154.342 115.161L147.828 108.66L141.646 114.829L148.16 121.329C146.61 123.65 145.523 126.246 144.96 128.977H135.774V137.703H144.96C145.523 140.434 146.61 143.031 148.16 145.351L141.646 151.851L147.828 158.02L154.342 151.52C156.667 153.066 159.269 154.151 162.005 154.713V163.879H170.749V154.713C173.486 154.151 176.088 153.066 178.413 151.52L184.927 158.02L191.109 151.851L184.595 145.351C186.144 143.031 187.231 140.434 187.795 137.703H196.98ZM166.377 146.428C163.783 146.428 161.247 145.661 159.091 144.223C156.934 142.784 155.253 140.74 154.26 138.349C153.267 135.957 153.008 133.326 153.514 130.787C154.02 128.248 155.269 125.916 157.103 124.085C158.937 122.255 161.274 121.008 163.818 120.503C166.363 119.998 169 120.258 171.396 121.248C173.793 122.239 175.841 123.916 177.282 126.069C178.723 128.221 179.493 130.751 179.493 133.34C179.489 136.81 178.106 140.137 175.647 142.591C173.189 145.045 169.855 146.425 166.377 146.428Z" fill="#3F3D56"/>
<path opacity="0.8" d="M77.7454 65.1259C78.6619 65.1259 79.4048 64.3845 79.4048 63.4699C79.4048 62.5553 78.6619 61.8139 77.7454 61.8139C76.8289 61.8139 76.0859 62.5553 76.0859 63.4699C76.0859 64.3845 76.8289 65.1259 77.7454 65.1259Z" fill="#8CCF4D"/>
<path d="M293.528 320.541C293.277 320.145 292.961 319.794 292.592 319.504C290.709 317.728 289.834 315.121 289.368 312.566C288.903 310.011 288.769 307.405 288.023 304.906C287.618 303.624 287.11 302.377 286.506 301.177C286.075 300.256 285.532 298.454 284.743 297.809C284.589 297.675 284.401 297.585 284.2 297.546C283.828 296.756 283.297 296.05 282.64 295.473C281.407 294.359 279.903 293.473 279.08 292.032C278.853 291.532 278.574 291.058 278.248 290.617C277.692 290.006 276.812 289.757 276.299 289.111C275.631 288.277 275.782 287.081 275.868 286.019C275.955 284.956 275.868 283.683 274.946 283.124C274.394 282.784 273.683 282.819 273.11 282.518C272.248 282.087 271.907 281.004 271.925 280.036C271.942 279.068 272.244 278.126 272.321 277.158C272.563 274.078 270.528 271.016 271.313 268.031C271.61 266.9 272.291 265.919 272.795 264.865C272.971 264.514 273.115 264.149 273.226 263.773C274.571 264.305 275.984 264.645 277.424 264.783C275.049 259.467 275.653 253.29 274.545 247.578L274.687 247.385C275.806 245.912 276.441 244.13 276.506 242.283C276.506 240.158 275.511 238.171 275.062 236.089C274.679 234.322 274.696 232.472 274.2 230.734C273.856 229.654 273.4 228.614 272.838 227.629C272.301 226.634 271.736 225.654 271.144 224.691C270.593 222.867 270.04 221.043 269.485 219.22C268.709 216.66 267.912 214.058 266.403 211.847C265.851 211.039 265.683 209.396 264.834 208.905C264.145 208.549 263.363 208.413 262.593 208.514C261.395 207.843 260.343 206.875 260.192 205.55C260.177 205.261 260.206 204.971 260.278 204.69H260.425C262.321 204.518 263.283 202.849 264.27 201.387C265.864 199.021 265.257 195.821 264.27 193.128C264.025 192.278 263.582 191.498 262.977 190.853C261.593 189.562 259.403 189.846 257.619 189.223C257.02 189.016 256.459 188.702 255.847 188.556C254.662 188.281 253.421 188.668 252.335 189.214C251.248 189.76 250.235 190.466 249.098 190.896C247.96 191.326 246.554 191.666 246.274 192.831C246.196 193.224 246.229 193.631 246.369 194.006C246.631 194.753 247.091 195.416 247.701 195.924C247.216 196.921 246.954 198.011 246.933 199.118C246.911 200.226 247.131 201.325 247.576 202.34C248.022 203.355 248.682 204.261 249.513 204.997C250.343 205.732 251.324 206.279 252.386 206.6C252.714 207.124 253.02 207.658 253.3 208.204C253.8 209.168 254.222 210.303 254.05 211.335C253.738 211.666 253.45 212.018 253.188 212.389C251.951 214.11 251.248 216.127 250.602 218.14C249.733 220.71 249.038 223.336 248.52 225.999C247.468 228.231 246.184 230.364 245.421 232.709C244.055 232.71 242.695 232.528 241.378 232.167L237.74 231.345C236.473 231.057 235.154 230.747 234.162 229.913C233.637 229.483 233.227 228.911 232.693 228.485C232.158 228.059 231.085 227.56 230.499 227.913C230.392 227.978 230.292 228.054 230.201 228.141C229.667 227.061 229.158 225.99 228.538 224.945C227.645 223.482 226.318 222.145 224.637 221.865C223.61 221.7 222.559 221.944 221.71 222.545C220.727 223.241 220.111 224.695 220.848 225.676C221.032 225.894 221.233 226.098 221.447 226.287C221.946 226.86 222.392 227.478 222.779 228.132C224.169 230.078 226.247 231.425 228.594 231.9L228.443 232.33C228.137 233.225 227.486 234.304 227.65 235.233L243.83 240.761C244.868 241.181 245.97 241.424 247.089 241.479C247.525 241.475 247.96 241.418 248.382 241.307V242.133V242.167C248.425 247.841 247.52 253.475 247.352 259.144C247.322 260.181 247.352 261.295 248.007 262.104C248.74 262.99 250.041 263.166 251.175 262.964C251.448 262.918 251.715 262.858 251.977 262.783C252.36 264.21 252.637 265.664 252.804 267.132L253.873 274.814C254.011 275.6 254.067 276.399 254.041 277.197C253.916 278.999 252.964 280.612 252.274 282.277C251.585 283.941 251.175 285.933 252.08 287.49C252.365 287.972 252.757 288.38 253.011 288.879C253.334 289.652 253.482 290.486 253.442 291.322C253.508 293.639 253.572 295.959 253.632 298.282C253.444 298.251 253.251 298.289 253.089 298.389C252.192 299.086 252.291 302.402 252.227 303.43C252.158 305.151 252.227 306.906 252.132 308.644C252.02 310.986 251.642 313.307 251.007 315.564C250.852 316.298 250.512 316.98 250.02 317.547C249.516 317.985 248.914 318.296 248.266 318.455C246.118 319.126 243.873 319.431 241.624 319.358C240.714 319.328 239.766 319.242 238.921 319.586C238.076 319.93 237.395 320.877 237.701 321.737C237.964 322.459 238.762 322.803 239.481 323.074C241.126 323.652 242.713 324.381 244.223 325.251C244.804 325.646 245.416 325.993 246.054 326.288C246.666 326.507 247.299 326.662 247.942 326.752L255.584 328.068C257.149 328.335 259.033 328.498 260.028 327.208C260.567 326.511 260.645 325.565 260.619 324.679C260.576 322.958 260.231 321.208 260.455 319.487C260.625 318.47 260.894 317.472 261.257 316.506C262.018 314.25 262.783 311.994 263.55 309.74C264.317 307.478 265.093 305.194 265.39 302.82C265.498 301.959 265.489 300.979 264.83 300.441C264.663 300.305 264.469 300.205 264.261 300.149C264.235 298.075 263.964 295.998 264.08 293.925C264.11 293.408 264.162 292.892 264.205 292.372C264.604 292.751 264.961 293.172 265.27 293.628C266.007 294.781 266.278 296.303 267.403 297.069C268.36 297.723 269.778 297.688 270.45 298.635C270.666 298.998 270.829 299.391 270.933 299.8C271.323 300.814 271.909 301.742 272.657 302.531C272.914 303.476 273.271 304.39 273.722 305.259C274.357 306.598 274.989 307.932 275.618 309.263C276.265 310.699 276.985 312.102 277.774 313.465C278.376 314.324 278.861 315.258 279.218 316.244C279.825 318.369 278.834 320.7 277.265 322.266C275.696 323.831 273.627 324.73 271.588 325.569C271.374 325.642 271.177 325.759 271.011 325.913C270.834 326.122 270.741 326.389 270.748 326.662C270.748 327.655 271.567 328.507 272.506 328.812C273.467 329.07 274.474 329.107 275.45 328.92C280.959 328.253 286.45 326.911 291.321 324.24C292.049 323.896 292.695 323.398 293.213 322.782C293.463 322.472 293.625 322.099 293.68 321.705C293.735 321.31 293.683 320.908 293.528 320.541Z" fill="url(#paint0_linear)"/>
<path d="M270.248 224.084C271.168 225.492 272.03 226.935 272.834 228.412C273.398 229.388 273.856 230.422 274.201 231.496C274.701 233.216 274.688 235.053 275.063 236.808C275.494 238.872 276.502 240.842 276.502 242.959C276.437 244.792 275.801 246.56 274.683 248.017C273.569 249.461 272.294 250.775 270.882 251.931C267.627 243.517 265.809 234.617 265.503 225.603C265.459 224.355 265.451 223.069 265.908 221.904C266.188 221.172 267.533 219.168 268.399 219.955C268.714 220.243 268.796 221.542 268.99 221.977C269.353 222.711 269.774 223.416 270.248 224.084Z" fill="#2F2E41"/>
<path opacity="0.1" d="M270.248 224.084C271.168 225.492 272.03 226.935 272.834 228.412C273.398 229.388 273.856 230.422 274.201 231.496C274.701 233.216 274.688 235.053 275.063 236.808C275.494 238.872 276.502 240.842 276.502 242.959C276.437 244.792 275.801 246.56 274.683 248.017C273.569 249.461 272.294 250.775 270.882 251.931C267.627 243.517 265.809 234.617 265.503 225.603C265.459 224.355 265.451 223.069 265.908 221.904C266.188 221.172 267.533 219.168 268.399 219.955C268.714 220.243 268.796 221.542 268.99 221.977C269.353 222.711 269.774 223.416 270.248 224.084Z" fill="black"/>
<path d="M156.613 165.402C153.204 168.8 152.794 170.297 150.747 170.972C148.699 171.647 141.333 175.454 143.648 179.674L149.872 183.777L150.053 183.898L151.005 186.754L141.592 203.477C141.592 203.477 126.075 196.397 124.553 206.871C123.032 217.344 123.997 220.205 123.588 225.796C123.178 231.388 123.721 233.005 122.355 233.005C120.989 233.005 120.45 229.332 120.45 229.332C120.45 229.332 120.364 229.164 120.213 228.85C118.183 224.639 104.403 193.726 126.476 172.478C126.476 172.478 136.7 171.807 139.161 160.107C140.859 152.021 146.799 152.717 150.747 154.365C152.03 154.867 153.226 155.568 154.29 156.442C155.247 157.347 156.099 158.357 156.829 159.453C157.953 161.225 158.566 163.449 156.613 165.402Z" fill="#D0D2D5"/>
<path opacity="0.1" d="M150.051 183.898L151.004 186.754L141.59 203.477C141.59 203.477 126.074 196.397 124.552 206.871C123.031 217.344 123.996 220.205 123.587 225.796C123.177 231.388 123.72 233.005 122.354 233.005C120.987 233.005 120.449 229.332 120.449 229.332C120.449 229.332 120.362 229.164 120.212 228.85C119.526 223.62 116.052 193.025 128.647 194.651C128.647 194.651 138.866 199.417 140.5 197.515C141.793 196.01 147.534 187.351 149.87 183.799L150.051 183.898Z" fill="black"/>
<path opacity="0.1" d="M156.828 159.427L150.604 166.486C150.604 166.486 143.375 176.138 141.875 175.729C141.426 175.632 140.969 175.578 140.509 175.57C140.009 175.532 139.529 175.353 139.127 175.054C138.724 174.755 138.415 174.348 138.234 173.881C138.054 173.414 138.01 172.905 138.107 172.414C138.205 171.923 138.44 171.469 138.785 171.105C141.25 168.525 145.793 163.626 146.091 162.537C146.388 161.449 149.28 156.679 150.729 154.343C152.012 154.845 153.208 155.547 154.272 156.421C155.235 157.323 156.092 158.332 156.828 159.427Z" fill="black"/>
<path d="M332.929 260.977C331.873 263.084 326.464 270.99 324.097 274.444L322.99 276.07C322.99 276.07 322.559 278.926 315.494 275.386C308.43 271.846 142.446 201.954 142.446 201.954L141.321 198.582L149.511 186.345L331.434 256.486C331.434 256.486 334.296 258.254 332.929 260.977Z" fill="#454B69"/>
<path opacity="0.1" d="M324.098 274.444L322.99 276.07C322.99 276.07 322.559 278.926 315.494 275.386C308.43 271.846 142.446 201.954 142.446 201.954L141.321 198.582L324.098 274.444Z" fill="black"/>
<path d="M223.979 228.79C222.293 228.515 220.423 228.648 219.112 229.741C218.32 230.41 217.82 231.36 217.716 232.39C217.604 233.582 218.298 234.997 219.496 235.087C219.784 235.09 220.073 235.072 220.358 235.031C221.115 235.028 221.871 235.091 222.617 235.221C224.085 235.358 225.564 235.143 226.931 234.592C228.299 234.041 229.514 233.171 230.474 232.055C231.504 230.764 230.147 230.205 228.931 229.947C227.267 229.594 225.642 229.057 223.979 228.79Z" fill="#FBBEBE"/>
<path d="M252.805 267.635L253.874 275.214C254.01 275.996 254.065 276.79 254.038 277.584C253.913 279.369 252.96 280.969 252.275 282.621C251.589 284.273 251.171 286.251 252.081 287.782C252.361 288.26 252.753 288.668 253.007 289.163C253.331 289.928 253.478 290.756 253.439 291.585L253.732 302.338C257.059 302.565 260.398 302.546 263.723 302.282C263.853 302.288 263.981 302.249 264.085 302.17C264.173 302.059 264.217 301.92 264.21 301.779C264.356 299.263 263.917 296.742 264.059 294.226C264.111 293.305 264.24 292.389 264.257 291.464C264.309 287.718 262.456 284.049 263.016 280.345C263.192 279.411 263.422 278.487 263.706 277.58C265.477 271.128 265.102 264.349 264.71 257.686C264.717 257.579 264.686 257.473 264.624 257.385C264.56 257.322 264.479 257.278 264.391 257.26C262.505 256.696 260.511 256.593 258.577 256.959C256.643 257.326 254.826 258.152 253.279 259.368C252.809 259.747 251.624 260.112 251.314 260.564C250.883 261.192 251.447 261.82 251.697 262.486C252.251 264.158 252.622 265.884 252.805 267.635Z" fill="#3F3D56"/>
<path opacity="0.1" d="M252.805 267.635L253.874 275.214C254.01 275.996 254.065 276.79 254.038 277.584C253.913 279.369 252.96 280.969 252.275 282.621C251.589 284.273 251.171 286.251 252.081 287.782C252.361 288.26 252.753 288.668 253.007 289.163C253.331 289.928 253.478 290.756 253.439 291.585L253.732 302.338C257.059 302.565 260.398 302.546 263.723 302.282C263.853 302.288 263.981 302.249 264.085 302.17C264.173 302.059 264.217 301.92 264.21 301.779C264.356 299.263 263.917 296.742 264.059 294.226C264.111 293.305 264.24 292.389 264.257 291.464C264.309 287.718 262.456 284.049 263.016 280.345C263.192 279.411 263.422 278.487 263.706 277.58C265.477 271.128 265.102 264.349 264.71 257.686C264.717 257.579 264.686 257.473 264.624 257.385C264.56 257.322 264.479 257.278 264.391 257.26C262.505 256.696 260.511 256.593 258.577 256.959C256.643 257.326 254.826 258.152 253.279 259.368C252.809 259.747 251.624 260.112 251.314 260.564C250.883 261.192 251.447 261.82 251.697 262.486C252.251 264.158 252.622 265.884 252.805 267.635Z" fill="black"/>
<path d="M272.791 265.351C272.287 266.396 271.61 267.368 271.308 268.491C270.524 271.455 272.554 274.513 272.313 277.55C272.235 278.509 271.938 279.442 271.916 280.401C271.894 281.361 272.248 282.427 273.101 282.87C273.675 283.163 274.394 283.133 274.933 283.468C275.843 284.023 275.946 285.283 275.856 286.341C275.765 287.4 275.614 288.582 276.287 289.408C276.799 290.049 277.679 290.299 278.23 290.905C278.559 291.34 278.838 291.811 279.062 292.307C279.886 293.744 281.39 294.621 282.623 295.748C283.855 296.875 284.898 298.527 284.347 300.088C283.942 301.233 282.804 301.938 281.709 302.476C279.711 303.461 277.603 304.205 275.429 304.691C275.195 304.761 274.949 304.774 274.709 304.729C274.466 304.641 274.25 304.493 274.08 304.299C272.808 303.056 271.494 301.753 270.907 300.08C270.803 299.674 270.641 299.286 270.425 298.927C269.752 297.985 268.334 298.019 267.377 297.37C266.257 296.609 265.985 295.099 265.252 293.959C264.52 292.819 263.446 292.14 262.666 291.137C261.347 289.469 261.024 287.24 260.08 285.335C259.679 284.526 259.166 283.769 258.847 282.926C258.525 281.916 258.327 280.87 258.257 279.812C257.649 274.788 256.102 269.73 257.076 264.758C257.291 263.665 257.623 262.607 257.761 261.48C257.998 259.531 257.623 257.536 257.912 255.592C257.919 255.347 257.981 255.108 258.094 254.891C258.207 254.675 258.367 254.486 258.563 254.34C258.796 254.235 259.049 254.184 259.304 254.189C261.859 254.053 264.421 254.111 266.968 254.361C268.261 254.486 269.709 254.748 270.485 255.802C271.144 256.706 271.11 257.914 271.321 259.011C271.584 260.362 272.269 261.097 272.989 262.155C273.709 263.213 273.321 264.259 272.791 265.351Z" fill="#3F3D56"/>
<path d="M262.849 300.303C263.53 300.303 264.284 300.26 264.81 300.691C265.465 301.228 265.474 302.213 265.37 303.052C265.069 305.409 264.297 307.676 263.525 309.934L261.232 316.648C260.869 317.606 260.601 318.598 260.431 319.608C260.207 321.328 260.551 323.049 260.594 324.769C260.594 325.629 260.538 326.584 260 327.277C259.026 328.529 257.125 328.382 255.56 328.137L247.927 326.847C247.283 326.761 246.65 326.607 246.039 326.386C245.402 326.093 244.789 325.749 244.207 325.358C242.696 324.497 241.109 323.777 239.466 323.208C238.75 322.941 237.948 322.601 237.69 321.883C237.384 321.023 238.065 320.076 238.91 319.732C239.754 319.388 240.698 319.474 241.612 319.5C243.859 319.572 246.102 319.269 248.25 318.605C248.897 318.447 249.497 318.138 250 317.702C250.511 317.129 250.859 316.429 251.008 315.676C251.659 313.435 252.047 311.125 252.164 308.794C252.254 307.074 252.194 305.353 252.263 303.633C252.306 302.613 252.207 299.331 253.103 298.63C253.789 298.106 256.608 299.555 257.534 299.766C259.277 300.164 261.062 300.345 262.849 300.303Z" fill="#2F2E41"/>
<path d="M287.993 305.086C288.739 307.551 288.855 310.158 289.338 312.691C289.82 315.225 290.674 317.81 292.557 319.573C292.924 319.864 293.24 320.212 293.493 320.605C293.652 320.974 293.706 321.379 293.649 321.776C293.592 322.173 293.426 322.546 293.17 322.855C292.649 323.467 292.004 323.961 291.277 324.305C286.411 326.954 280.933 328.292 275.411 328.954C274.436 329.137 273.431 329.1 272.472 328.847C271.532 328.528 270.7 327.685 270.717 326.696C270.708 326.425 270.8 326.16 270.976 325.952C271.144 325.799 271.342 325.683 271.558 325.612C273.592 324.778 275.657 323.87 277.23 322.33C278.803 320.79 279.79 318.459 279.183 316.369C278.823 315.39 278.334 314.462 277.73 313.612C276.942 312.259 276.223 310.868 275.575 309.444L273.679 305.474C273.123 304.312 272.562 303.116 272.467 301.835C274.85 301.941 277.229 301.561 279.459 300.716C280.499 300.293 281.469 299.713 282.334 298.996C283.066 298.385 283.734 297.245 284.721 298.041C285.515 298.677 286.015 300.471 286.48 301.379C287.085 302.571 287.591 303.811 287.993 305.086Z" fill="#2F2E41"/>
<path d="M260.201 206.505C260.391 208.157 261.995 209.245 263.525 209.899L253.84 212.983C254.465 211.787 253.96 210.325 253.34 209.112C252.834 208.151 252.258 207.23 251.615 206.355C251.521 206.221 251.413 206.054 251.482 205.899C251.543 205.798 251.64 205.722 251.753 205.688C253.745 204.802 255.796 203.886 257.973 203.563C258.602 203.473 259.792 203.223 260.262 203.86C260.732 204.496 260.111 205.744 260.201 206.505Z" fill="#FBBEBE"/>
<path opacity="0.1" d="M260.201 206.505C260.391 208.157 261.995 209.245 263.525 209.899L253.84 212.983C254.465 211.787 253.96 210.325 253.34 209.112C252.834 208.151 252.258 207.23 251.615 206.355C251.521 206.221 251.413 206.054 251.482 205.899C251.543 205.798 251.64 205.722 251.753 205.688C253.745 204.802 255.796 203.886 257.973 203.563C258.602 203.473 259.792 203.223 260.262 203.86C260.732 204.496 260.111 205.744 260.201 206.505Z" fill="black"/>
<path d="M247.991 262.633C248.728 263.514 250.025 263.687 251.159 263.493C253.81 263.063 255.978 261.114 258.572 260.413C261.753 259.553 265.12 260.658 268.124 262.013C271.128 263.368 274.115 265.024 277.4 265.257C274.43 258.65 276.128 250.701 273.288 244.038C272.594 242.408 271.624 240.838 271.469 239.075C271.275 236.885 272.37 234.773 272.538 232.597C272.693 230.657 272.107 228.726 271.546 226.876C270.854 224.605 270.161 222.334 269.469 220.063C268.693 217.521 267.895 214.936 266.391 212.751C265.835 211.946 265.667 210.316 264.822 209.83C262.977 208.768 260.18 210.105 258.18 210.178C256.18 210.252 254.357 211.671 253.189 213.275C251.952 214.97 251.249 216.987 250.603 218.983C249.573 221.955 248.805 225.01 248.305 228.115C248.241 228.579 248.185 229.044 248.142 229.513C247.711 233.93 248.34 238.373 248.374 242.812V242.842C248.417 248.473 247.512 254.069 247.344 259.695C247.327 260.723 247.353 261.846 247.991 262.633Z" fill="#2F2E41"/>
<path opacity="0.1" d="M248.387 242.817C249.874 242.442 251.219 241.483 252.374 240.434C253.375 239.54 254.263 238.529 255.021 237.423C255.974 235.935 256.74 234.336 257.301 232.661C258.897 228.182 259.911 223.517 260.318 218.781C260.43 217.491 260.465 216.106 259.693 215.082C259.26 214.527 258.651 214.135 257.967 213.97C257.282 213.804 256.561 213.875 255.922 214.17C254.904 214.665 254.245 215.667 253.633 216.626C252.422 218.527 251.202 220.454 250.422 222.57C250.077 223.508 249.822 224.472 249.486 225.414C249.144 226.343 248.75 227.252 248.305 228.136C248.241 228.601 248.185 229.065 248.141 229.534C247.741 233.952 248.353 238.378 248.387 242.817Z" fill="black"/>
<path d="M259.67 214.252C260.442 215.275 260.408 216.673 260.3 217.947C259.893 222.683 258.879 227.348 257.283 231.827C256.727 233.516 255.961 235.128 255.002 236.627C254.244 237.732 253.355 238.743 252.356 239.638C250.89 240.971 249.106 242.163 247.119 242.18C246.001 242.127 244.899 241.888 243.86 241.47L227.675 235.973C227.512 235.053 228.163 233.977 228.469 233.091L229.331 230.541C229.576 229.835 229.861 229.074 230.503 228.691C231.145 228.308 232.162 228.833 232.697 229.259C233.231 229.685 233.637 230.244 234.162 230.678C235.158 231.504 236.473 231.814 237.74 232.098L241.373 232.911C242.691 233.271 244.051 233.452 245.416 233.448C246.429 230.36 248.356 227.642 249.447 224.579C249.783 223.641 250.037 222.674 250.386 221.736C251.162 219.62 252.386 217.697 253.597 215.792C254.205 214.837 254.865 213.835 255.886 213.336C256.527 213.037 257.251 212.965 257.939 213.131C258.627 213.298 259.238 213.693 259.67 214.252Z" fill="#2F2E41"/>
<g opacity="0.1">
<path opacity="0.1" d="M253.623 199.498C253.455 198.991 253.364 198.41 252.968 198.053C252.689 197.845 252.368 197.698 252.028 197.623C250.183 197.042 248.287 195.971 247.67 194.143C247.53 193.771 247.497 193.367 247.576 192.978C247.618 192.794 247.695 192.62 247.804 192.466C247.101 192.771 246.489 193.175 246.317 193.889C246.238 194.279 246.272 194.684 246.416 195.055C247.028 196.883 248.929 197.954 250.77 198.535C251.11 198.61 251.43 198.757 251.709 198.965C252.11 199.322 252.196 199.898 252.369 200.41C252.541 200.922 252.92 201.46 253.455 201.434C253.989 201.408 254.248 200.922 254.588 200.513C254.119 200.453 253.778 199.971 253.623 199.498Z" fill="black"/>
<path opacity="0.1" d="M261.692 204.729C259.477 204.931 258.602 202.918 258.244 201.064C258.197 200.567 258.05 200.084 257.813 199.645C257.686 199.425 257.492 199.252 257.259 199.15C257.027 199.048 256.768 199.022 256.52 199.077C256.127 199.267 255.796 199.566 255.567 199.937C255.765 199.956 255.956 200.02 256.125 200.125C256.294 200.229 256.436 200.371 256.542 200.539C256.786 200.978 256.941 201.46 256.998 201.959C257.348 203.813 258.223 205.83 260.447 205.623C261.326 205.527 262.137 205.106 262.722 204.445C262.397 204.596 262.049 204.692 261.692 204.729Z" fill="black"/>
</g>
<path d="M350.472 284.741C358.159 284.741 364.39 283.545 364.39 282.07C364.39 280.595 358.159 279.399 350.472 279.399C342.786 279.399 336.555 280.595 336.555 282.07C336.555 283.545 342.786 284.741 350.472 284.741Z" fill="#4ABFB2"/>
<path d="M350.238 283.051C351.133 283.051 351.859 282.103 351.859 280.935C351.859 279.766 351.133 278.818 350.238 278.818C349.343 278.818 348.617 279.766 348.617 280.935C348.617 282.103 349.343 283.051 350.238 283.051Z" fill="#3F3D56"/>
<path d="M350.238 280.462C351.133 280.462 351.859 279.514 351.859 278.345C351.859 277.177 351.133 276.229 350.238 276.229C349.343 276.229 348.617 277.177 348.617 278.345C348.617 279.514 349.343 280.462 350.238 280.462Z" fill="#3F3D56"/>
<path d="M350.238 277.877C351.133 277.877 351.859 276.929 351.859 275.76C351.859 274.592 351.133 273.644 350.238 273.644C349.343 273.644 348.617 274.592 348.617 275.76C348.617 276.929 349.343 277.877 350.238 277.877Z" fill="#3F3D56"/>
<path d="M350.238 275.287C351.133 275.287 351.859 274.34 351.859 273.171C351.859 272.002 351.133 271.055 350.238 271.055C349.343 271.055 348.617 272.002 348.617 273.171C348.617 274.34 349.343 275.287 350.238 275.287Z" fill="#3F3D56"/>
<path d="M350.238 272.698C351.133 272.698 351.859 271.75 351.859 270.582C351.859 269.413 351.133 268.465 350.238 268.465C349.343 268.465 348.617 269.413 348.617 270.582C348.617 271.75 349.343 272.698 350.238 272.698Z" fill="#3F3D56"/>
<path d="M350.238 270.113C351.133 270.113 351.859 269.165 351.859 267.996C351.859 266.828 351.133 265.88 350.238 265.88C349.343 265.88 348.617 266.828 348.617 267.996C348.617 269.165 349.343 270.113 350.238 270.113Z" fill="#3F3D56"/>
<path d="M350.238 267.523C351.133 267.523 351.859 266.576 351.859 265.407C351.859 264.238 351.133 263.291 350.238 263.291C349.343 263.291 348.617 264.238 348.617 265.407C348.617 266.576 349.343 267.523 350.238 267.523Z" fill="#3F3D56"/>
<path d="M356.304 247.716C356.525 247.435 356.727 247.138 356.907 246.83L352.649 246.133L357.256 246.163C357.696 245.203 357.936 244.164 357.961 243.109C357.986 242.054 357.796 241.005 357.403 240.025L351.222 243.225L356.92 239.044C356.385 238.126 355.667 237.327 354.81 236.698C353.952 236.068 352.975 235.621 351.937 235.385C350.899 235.149 349.824 235.128 348.778 235.325C347.731 235.521 346.737 235.93 345.856 236.526C344.975 237.122 344.227 237.893 343.657 238.791C343.088 239.688 342.709 240.693 342.545 241.742C342.382 242.792 342.436 243.864 342.705 244.891C342.974 245.919 343.453 246.88 344.11 247.716C343.764 248.153 343.466 248.626 343.222 249.127L348.752 251.996L342.856 250.021C342.444 251.24 342.343 252.542 342.562 253.81C342.781 255.078 343.313 256.271 344.11 257.282C343.211 258.424 342.652 259.796 342.497 261.24C342.342 262.684 342.597 264.143 343.234 265.449C343.87 266.756 344.862 267.857 346.096 268.628C347.329 269.398 348.756 269.807 350.211 269.807C351.667 269.807 353.093 269.398 354.327 268.628C355.561 267.857 356.553 266.756 357.189 265.449C357.825 264.143 358.081 262.684 357.926 261.24C357.771 259.796 357.212 258.424 356.312 257.282C357.389 255.917 357.975 254.23 357.975 252.492C357.975 250.755 357.389 249.068 356.312 247.703L356.304 247.716Z" fill="#4ABFB2"/>
<path opacity="0.1" d="M342.436 252.49C342.435 254.23 343.024 255.919 344.108 257.282C343.209 258.424 342.65 259.796 342.495 261.24C342.34 262.684 342.595 264.143 343.231 265.449C343.868 266.756 344.86 267.857 346.093 268.628C347.327 269.398 348.754 269.807 350.209 269.807C351.665 269.807 353.091 269.398 354.325 268.628C355.559 267.857 356.55 266.756 357.187 265.449C357.823 264.143 358.078 262.684 357.923 261.24C357.768 259.796 357.209 258.424 356.31 257.282C357.34 255.961 342.436 251.621 342.436 252.49Z" fill="black"/>
<path d="M63.972 338C75.0388 338 84.0103 336.278 84.0103 334.155C84.0103 332.031 75.0388 330.309 63.972 330.309C52.9051 330.309 43.9336 332.031 43.9336 334.155C43.9336 336.278 52.9051 338 63.972 338Z" fill="#4ABFB2"/>
<path d="M63.6365 335.57C64.9244 335.57 65.9684 334.204 65.9684 332.52C65.9684 330.836 64.9244 329.471 63.6365 329.471C62.3487 329.471 61.3047 330.836 61.3047 332.52C61.3047 334.204 62.3487 335.57 63.6365 335.57Z" fill="#3F3D56"/>
<path d="M63.6365 331.845C64.9244 331.845 65.9684 330.48 65.9684 328.795C65.9684 327.111 64.9244 325.746 63.6365 325.746C62.3487 325.746 61.3047 327.111 61.3047 328.795C61.3047 330.48 62.3487 331.845 63.6365 331.845Z" fill="#3F3D56"/>
<path d="M63.6365 328.12C64.9244 328.12 65.9684 326.755 65.9684 325.07C65.9684 323.386 64.9244 322.021 63.6365 322.021C62.3487 322.021 61.3047 323.386 61.3047 325.07C61.3047 326.755 62.3487 328.12 63.6365 328.12Z" fill="#3F3D56"/>
<path d="M63.6365 324.395C64.9244 324.395 65.9684 323.03 65.9684 321.345C65.9684 319.661 64.9244 318.296 63.6365 318.296C62.3487 318.296 61.3047 319.661 61.3047 321.345C61.3047 323.03 62.3487 324.395 63.6365 324.395Z" fill="#3F3D56"/>
<path d="M63.6365 320.67C64.9244 320.67 65.9684 319.305 65.9684 317.62C65.9684 315.936 64.9244 314.571 63.6365 314.571C62.3487 314.571 61.3047 315.936 61.3047 317.62C61.3047 319.305 62.3487 320.67 63.6365 320.67Z" fill="#3F3D56"/>
<path d="M63.6365 316.941C64.9244 316.941 65.9684 315.576 65.9684 313.891C65.9684 312.207 64.9244 310.842 63.6365 310.842C62.3487 310.842 61.3047 312.207 61.3047 313.891C61.3047 315.576 62.3487 316.941 63.6365 316.941Z" fill="#3F3D56"/>
<path d="M63.6365 313.216C64.9244 313.216 65.9684 311.851 65.9684 310.166C65.9684 308.482 64.9244 307.117 63.6365 307.117C62.3487 307.117 61.3047 308.482 61.3047 310.166C61.3047 311.851 62.3487 313.216 63.6365 313.216Z" fill="#3F3D56"/>
<path d="M72.369 284.677C72.6846 284.266 72.9726 283.835 73.2311 283.386L67.1019 282.38L73.731 282.432C74.3664 281.05 74.7129 279.553 74.7492 278.034C74.7855 276.514 74.5109 275.003 73.9423 273.592L65.0545 278.212L73.244 272.19C72.4771 270.862 71.4442 269.706 70.2098 268.795C68.9754 267.883 67.5659 267.235 66.0693 266.891C64.5727 266.547 63.0211 266.514 61.5114 266.795C60.0016 267.076 58.5661 267.665 57.2944 268.524C56.0227 269.383 54.9421 270.495 54.1201 271.79C53.298 273.084 52.7522 274.534 52.5165 276.048C52.2809 277.563 52.3606 279.109 52.7505 280.592C53.1405 282.074 53.8325 283.46 54.7832 284.664C54.2798 285.292 53.8462 285.973 53.4901 286.694L61.4512 290.823L52.9643 287.98C52.3695 289.743 52.2259 291.626 52.5466 293.458C52.8673 295.291 53.642 297.014 54.8004 298.471C53.5036 300.116 52.6969 302.092 52.4724 304.173C52.248 306.254 52.6149 308.357 53.5312 310.239C54.4476 312.122 55.8764 313.71 57.6542 314.82C59.4321 315.931 61.4872 316.52 63.5847 316.52C65.6822 316.52 67.7374 315.931 69.5152 314.82C71.2931 313.71 72.7218 312.122 73.6382 310.239C74.5545 308.357 74.9215 306.254 74.697 304.173C74.4726 302.092 73.6658 300.116 72.369 298.471C73.919 296.506 74.7617 294.077 74.7617 291.576C74.7617 289.075 73.919 286.647 72.369 284.681V284.677Z" fill="#4ABFB2"/>
<path opacity="0.1" d="M52.4082 291.589C52.4086 294.086 53.2512 296.51 54.8004 298.471C53.5036 300.116 52.6968 302.092 52.4724 304.173C52.2479 306.254 52.6149 308.357 53.5312 310.239C54.4476 312.122 55.8763 313.71 57.6542 314.82C59.432 315.931 61.4872 316.52 63.5847 316.52C65.6822 316.52 67.7373 315.931 69.5152 314.82C71.293 313.71 72.7218 312.122 73.6382 310.239C74.5545 308.357 74.9214 306.254 74.697 304.173C74.4725 302.092 73.6658 300.116 72.369 298.471C73.856 296.57 52.4082 290.32 52.4082 291.589Z" fill="black"/>
<path d="M254.429 206.715C258.623 206.715 262.023 203.321 262.023 199.136C262.023 194.95 258.623 191.557 254.429 191.557C250.234 191.557 246.834 194.95 246.834 199.136C246.834 203.321 250.234 206.715 254.429 206.715Z" fill="#FBBEBE"/>
<path d="M256.851 200.849C256.793 200.35 256.638 199.868 256.394 199.429C256.267 199.21 256.073 199.036 255.84 198.934C255.608 198.832 255.349 198.806 255.101 198.861C254.342 199.098 254.088 200.268 253.295 200.307C252.76 200.332 252.377 199.79 252.208 199.283C252.04 198.775 251.95 198.195 251.549 197.838C251.27 197.629 250.95 197.483 250.609 197.408C248.769 196.827 246.868 195.756 246.256 193.928C246.112 193.557 246.078 193.152 246.157 192.762C246.437 191.605 247.881 191.257 248.98 190.839C250.079 190.422 251.135 189.708 252.213 189.166C253.29 188.624 254.54 188.241 255.726 188.517C256.327 188.706 256.918 188.925 257.497 189.175C259.282 189.794 261.467 189.506 262.85 190.792C263.455 191.43 263.898 192.203 264.144 193.046C265.109 195.721 265.721 198.896 264.122 201.244C263.135 202.694 262.178 204.35 260.282 204.526C258.075 204.711 257.2 202.715 256.851 200.849Z" fill="#2F2E41"/>
<path d="M262.494 199.608C255.598 199.436 248.989 194.518 246.547 192.08C246.374 191.736 246.331 191.507 246.331 191.435C246.848 191.779 246.906 191.435 247.193 191.435L249.564 190.575C251.62 189.027 253.509 188.496 254.521 188.424C256.403 188.291 258.903 188.998 259.693 189.285C260.21 188.424 261.058 188.353 261.417 188.424C261.934 188.596 261.92 189.428 261.848 189.93C266.589 193.371 265.44 198.819 264.434 200.898C263.744 200.898 262.782 200.038 262.494 199.608Z" fill="#FED253"/>
<path d="M252.58 192.295L249.563 190.575L246.977 191.435H246.33C246.33 191.779 252.149 196.597 252.58 195.737L252.58 192.295Z" fill="#F1C74F"/>
<path d="M260.77 189.715C260.77 189.371 261.201 188.711 261.416 188.424C260.554 188.252 259.908 188.926 259.692 189.285L260.77 189.715Z" fill="#E5BD4B"/>
<path d="M231.462 107.532V102.371H226.028C225.695 100.755 225.052 99.2192 224.135 97.8467L227.989 94.0014L224.332 90.3522L220.479 94.1975C219.103 93.2827 217.564 92.6412 215.945 92.3084V86.8862H210.773V92.3084C209.154 92.6412 207.615 93.2827 206.239 94.1975L202.386 90.3522L198.729 94.0014L202.582 97.8467C201.666 99.2192 201.023 100.755 200.689 102.371H195.256V107.532H200.689C201.023 109.148 201.666 110.684 202.582 112.056L198.729 115.902L202.386 119.551L206.239 115.706C207.615 116.621 209.154 117.262 210.773 117.595V123.017H215.945V117.595C217.564 117.262 219.103 116.621 220.479 115.706L224.332 119.551L227.989 115.902L224.135 112.056C225.052 110.684 225.695 109.148 226.028 107.532H231.462ZM213.359 112.694C211.824 112.694 210.324 112.24 209.049 111.389C207.773 110.538 206.778 109.329 206.191 107.914C205.604 106.5 205.45 104.943 205.75 103.441C206.049 101.939 206.788 100.56 207.873 99.477C208.958 98.3942 210.34 97.6568 211.845 97.358C213.35 97.0593 214.91 97.2126 216.328 97.7986C217.746 98.3846 218.957 99.377 219.81 100.65C220.662 101.923 221.117 103.42 221.117 104.952C221.115 107.004 220.297 108.972 218.843 110.424C217.388 111.876 215.416 112.692 213.359 112.694Z" fill="#3F3D56"/>
<path d="M251.288 157.304V150.238H243.849C243.392 148.026 242.512 145.923 241.257 144.044L246.533 138.78L241.526 133.784L236.251 139.048C234.368 137.796 232.261 136.918 230.044 136.462V129.039H222.963V136.462C220.747 136.918 218.639 137.796 216.756 139.048L211.481 133.784L206.475 138.78L211.75 144.044C210.495 145.923 209.615 148.026 209.158 150.238H201.72V157.304H209.158C209.615 159.516 210.495 161.619 211.75 163.498L206.475 168.763L211.481 173.759L216.756 168.494C218.639 169.747 220.747 170.625 222.963 171.08V178.504H230.044V171.08C232.261 170.625 234.368 169.747 236.251 168.494L241.526 173.759L246.533 168.763L241.257 163.498C242.512 161.619 243.392 159.516 243.849 157.304H251.288ZM226.504 164.371C224.403 164.371 222.349 163.749 220.603 162.585C218.856 161.42 217.494 159.764 216.691 157.828C215.887 155.891 215.676 153.76 216.086 151.703C216.496 149.647 217.508 147.759 218.993 146.276C220.478 144.794 222.371 143.784 224.431 143.375C226.492 142.966 228.628 143.176 230.568 143.978C232.509 144.781 234.168 146.139 235.335 147.882C236.502 149.626 237.125 151.675 237.125 153.771C237.123 156.582 236.003 159.276 234.011 161.263C232.02 163.25 229.32 164.368 226.504 164.371Z" fill="#3F3D56"/>
<defs>
<linearGradient id="paint0_linear" x1="259.426" y1="329.628" x2="253.744" y2="188.492" gradientUnits="userSpaceOnUse">
<stop stop-color="#808080" stop-opacity="0.25"/>
<stop offset="0.54" stop-color="#808080" stop-opacity="0.12"/>
<stop offset="1" stop-color="#808080" stop-opacity="0.1"/>
</linearGradient>
</defs>
</svg>
