<svg width="21" height="20" viewBox="0 0 21 20" fill="none" xmlns="http://www.w3.org/2000/svg">
<path d="M10.9468 2.5C6.83126 2.5 3.47699 5.85427 3.47699 9.96985C3.47699 11.2889 3.82372 12.5704 4.47196 13.701L3.41669 17.5754L7.37397 16.5352C8.46694 17.1307 9.69558 17.4472 10.9468 17.4472C15.0624 17.4472 18.4167 14.093 18.4167 9.97739C18.4167 7.9799 17.6403 6.10301 16.2308 4.69347C14.8212 3.27638 12.9443 2.5 10.9468 2.5ZM10.9544 3.75879C12.6127 3.75879 14.1654 4.40704 15.3413 5.58291C16.5097 6.75879 17.1579 8.3191 17.1579 9.97739C17.1579 13.3995 14.3689 16.1809 10.9468 16.1809C9.83126 16.1809 8.73829 15.8869 7.78855 15.3141L7.56242 15.1859L5.21066 15.804L5.83629 13.5126L5.68553 13.2714C5.06744 12.299 4.73578 11.1457 4.73578 9.96985C4.74332 6.54774 7.52473 3.75879 10.9544 3.75879ZM8.30111 6.51759C8.18051 6.51759 7.97699 6.56281 7.80362 6.75126C7.63779 6.9397 7.14784 7.3995 7.14784 8.31156C7.14784 9.23116 7.8187 10.1131 7.90161 10.2412C8.00714 10.3693 9.22824 12.2538 11.1051 13.0528C11.5499 13.2563 11.8966 13.3693 12.1679 13.4523C12.6127 13.5955 13.0197 13.5729 13.3438 13.5276C13.7056 13.4749 14.4443 13.0754 14.6026 12.6382C14.7609 12.201 14.7609 11.8317 14.7157 11.7487C14.6629 11.6734 14.5423 11.6281 14.3539 11.5452C14.1654 11.4397 13.2458 10.9874 13.08 10.9271C12.9066 10.8668 12.8011 10.8367 12.6579 11.0176C12.5373 11.206 12.1755 11.6281 12.07 11.7487C11.9569 11.8769 11.8514 11.892 11.6705 11.8015C11.4745 11.7035 10.8715 11.5075 10.1629 10.8744C9.60513 10.3769 9.23578 9.76633 9.12272 9.57789C9.03226 9.39698 9.11518 9.28392 9.20563 9.201C9.28855 9.11809 9.40915 8.98241 9.48453 8.86935C9.58252 8.76382 9.61267 8.6809 9.67297 8.5603C9.73327 8.43216 9.70312 8.32663 9.65789 8.23618C9.61267 8.15327 9.23578 7.21859 9.07749 6.84925C8.92674 6.48744 8.77598 6.53266 8.65538 6.52513C8.54985 6.52513 8.42925 6.51759 8.30111 6.51759Z" fill="#50ABA3"/>
</svg>
